<?xml version="1.0" encoding="utf-8" ?>
<svg baseProfile="full" height="680" version="1.1" width="1400" xmlns="http://www.w3.org/2000/svg" xmlns:ev="http://www.w3.org/2001/xml-events" xmlns:xlink="http://www.w3.org/1999/xlink"><defs><style type="text/css"><![CDATA[.curve_00{stroke:#4ce5e6;opacity:0.3;}
.curve_00:hover{opacity:1;}]]></style><style type="text/css"><![CDATA[.curve_01{stroke:#51fec8;opacity:0.3;}
.curve_01:hover{opacity:1;}]]></style><style type="text/css"><![CDATA[.curve_02{stroke:#60ffa8;opacity:0.3;}
.curve_02:hover{opacity:1;}]]></style><style type="text/css"><![CDATA[.curve_03{stroke:#77ff89;opacity:0.3;}
.curve_03:hover{opacity:1;}]]></style><style type="text/css"><![CDATA[.curve_04{stroke:#93ff6e;opacity:0.3;}
.curve_04:hover{opacity:1;}]]></style><style type="text/css"><![CDATA[.curve_05{stroke:#b2ff5a;opacity:0.3;}
.curve_05:hover{opacity:1;}]]></style><style type="text/css"><![CDATA[.curve_06{stroke:#d2f74f;opacity:0.3;}
.curve_06:hover{opacity:1;}]]></style><style type="text/css"><![CDATA[.curve_07{stroke:#eedc4d;opacity:0.3;}
.curve_07:hover{opacity:1;}]]></style><style type="text/css"><![CDATA[.curve_08{stroke:#ffbd55;opacity:0.3;}
.curve_08:hover{opacity:1;}]]></style><style type="text/css"><![CDATA[.curve_09{stroke:#ff9d67;opacity:0.3;}
.curve_09:hover{opacity:1;}]]></style><style type="text/css"><![CDATA[.curve_10{stroke:#ff807f;opacity:0.3;}
.curve_10:hover{opacity:1;}]]></style><style type="text/css"><![CDATA[.curve_11{stroke:#ff679d;opacity:0.3;}
.curve_11:hover{opacity:1;}]]></style><style type="text/css"><![CDATA[.curve_12{stroke:#ff55bd;opacity:0.3;}
.curve_12:hover{opacity:1;}]]></style><style type="text/css"><![CDATA[.curve_13{stroke:#ee4ddc;opacity:0.3;}
.curve_13:hover{opacity:1;}]]></style><style type="text/css"><![CDATA[.curve_14{stroke:#d24ff7;opacity:0.3;}
.curve_14:hover{opacity:1;}]]></style><style type="text/css"><![CDATA[.curve_15{stroke:#b35aff;opacity:0.3;}
.curve_15:hover{opacity:1;}]]></style><style type="text/css"><![CDATA[.curve_16{stroke:#936eff;opacity:0.3;}
.curve_16:hover{opacity:1;}]]></style><style type="text/css"><![CDATA[.curve_17{stroke:#7789ff;opacity:0.3;}
.curve_17:hover{opacity:1;}]]></style><style type="text/css"><![CDATA[.curve_18{stroke:#60a8ff;opacity:0.3;}
.curve_18:hover{opacity:1;}]]></style><style type="text/css"><![CDATA[.curve_19{stroke:#51c8fe;opacity:0.3;}
.curve_19:hover{opacity:1;}]]></style><marker id="arrowhead" markerHeight="3" markerWidth="3" orient="auto" refX="5" refY="5" viewBox="0 0 10 10"><path d="M 0 0 L 10 5 L 0 10 Z" fill="#ff679d" stroke-width="0" /></marker></defs><text fill="#FFD700" font-family="Fira Code" font-size="16px" font-weight="bold" text-anchor="middle" x="630.0" y="20.0">All trajectories</text><g><text fill="#4ce5e6" font-family="Fira Code" font-size="14px" font-weight="bold" text-anchor="middle" x="140.0" y="665.0">Seed</text><text fill="#6aff98" font-family="Fira Code" font-size="14px" font-weight="bold" text-anchor="middle" x="280.0" y="665.0">Soil</text><text fill="#b2ff5a" font-family="Fira Code" font-size="14px" font-weight="bold" text-anchor="middle" x="420.0" y="665.0">Fertilizer</text><text fill="#fbcd50" font-family="Fira Code" font-size="14px" font-weight="bold" text-anchor="middle" x="560.0" y="665.0">Water</text><text fill="#ff807f" font-family="Fira Code" font-size="14px" font-weight="bold" text-anchor="middle" x="700.0" y="665.0">Light</text><text fill="#fb50cd" font-family="Fira Code" font-size="14px" font-weight="bold" text-anchor="middle" x="840.0" y="665.0">Temperature</text><text fill="#b35aff" font-family="Fira Code" font-size="14px" font-weight="bold" text-anchor="middle" x="980.0" y="665.0">Humidity</text><text fill="#6a98ff" font-family="Fira Code" font-size="14px" font-weight="bold" text-anchor="middle" x="1120.0" y="665.0">Location</text></g><g id="grid" stroke="#5988a6" stroke-width="2"><line x1="140.0" x2="140.0" y1="40" y2="650" /><line x1="280.0" x2="280.0" y1="40" y2="650" /><line x1="420.0" x2="420.0" y1="40" y2="650" /><line x1="560.0" x2="560.0" y1="40" y2="650" /><line x1="700.0" x2="700.0" y1="40" y2="650" /><line x1="840.0" x2="840.0" y1="40" y2="650" /><line x1="980.0" x2="980.0" y1="40" y2="650" /><line x1="1120.0" x2="1120.0" y1="40" y2="650" /></g><g class="curve_00"><path d="M 140.0 628.9748409514285 C 186.66666666666666 628.9748409514285 233.33333333333334 628.9748409514285 280.0 628.9748409514285 C 326.66666666666663 628.9748409514285 373.33333333333337 608.5396749284891 420.0 608.5396749284891 C 466.6666666666667 608.5396749284891 513.3333333333333 574.5857190076722 560.0 574.5857190076722 C 606.6666666666667 574.5857190076722 653.3333333333333 389.7462875275785 700.0 389.7462875275785 C 746.6666666666666 389.7462875275785 793.3333333333334 290.1075935709724 840.0 290.1075935709724 C 886.6666666666666 290.1075935709724 933.3333333333334 77.49301334713755 980.0 77.49301334713755 C 1026.6666666666665 77.49301334713755 1073.3333333333335 197.90090478272452 1120.0 197.90090478272452" fill="none" stroke="#4ce5e6" stroke-linecap="round" stroke-width="10" /></g><g class="curve_01"><path d="M 140.0 355.0224583558737 C 186.66666666666666 355.0224583558737 233.33333333333334 562.6101381079187 280.0 562.6101381079187 C 326.66666666666663 562.6101381079187 373.33333333333337 562.6101381079187 420.0 562.6101381079187 C 466.6666666666667 562.6101381079187 513.3333333333333 616.5271403118488 560.0 616.5271403118488 C 606.6666666666667 616.5271403118488 653.3333333333333 298.05689979472015 700.0 298.05689979472015 C 746.6666666666666 298.05689979472015 793.3333333333334 134.78210490814985 840.0 134.78210490814985 C 886.6666666666666 134.78210490814985 933.3333333333334 99.54243963490217 980.0 99.54243963490217 C 1026.6666666666665 99.54243963490217 1073.3333333333335 219.95033107048909 1120.0 219.95033107048909" fill="none" stroke="#51fec8" stroke-linecap="round" stroke-width="10" /></g><g class="curve_02"><path d="M 140.0 593.7276367477318 C 186.66666666666666 593.7276367477318 233.33333333333334 255.85806622477043 280.0 255.85806622477043 C 326.66666666666663 255.85806622477043 373.33333333333337 132.23198291455185 420.0 132.23198291455185 C 466.6666666666667 132.23198291455185 513.3333333333333 489.0041025972909 560.0 489.0041025972909 C 606.6666666666667 489.0041025972909 653.3333333333333 569.3220724253533 700.0 569.3220724253533 C 746.6666666666666 569.3220724253533 793.3333333333334 104.71509303007463 840.0 104.71509303007463 C 886.6666666666666 104.71509303007463 933.3333333333334 209.93363416058276 980.0 209.93363416058276 C 1026.6666666666665 209.93363416058276 1073.3333333333335 91.22591862629588 1120.0 91.22591862629588" fill="none" stroke="#60ffa8" stroke-linecap="round" stroke-width="10" /></g><g class="curve_03"><path d="M 140.0 549.637720511284 C 186.66666666666666 549.637720511284 233.33333333333334 211.76814998832253 280.0 211.76814998832253 C 326.66666666666663 211.76814998832253 373.33333333333337 88.14206667810402 420.0 88.14206667810402 C 466.6666666666667 88.14206667810402 513.3333333333333 99.20345111062522 560.0 99.20345111062522 C 606.6666666666667 99.20345111062522 653.3333333333333 175.2608226666286 700.0 175.2608226666286 C 746.6666666666666 175.2608226666286 793.3333333333334 530.328118023937 840.0 530.328118023937 C 886.6666666666666 530.328118023937 933.3333333333334 444.60924022257444 980.0 444.60924022257444 C 1026.6666666666665 444.60924022257444 1073.3333333333335 158.9913026945169 1120.0 158.9913026945169" fill="none" stroke="#77ff89" stroke-linecap="round" stroke-width="10" /></g><g class="curve_04"><path d="M 140.0 616.1589942339448 C 186.66666666666666 616.1589942339448 233.33333333333334 616.1589942339448 280.0 616.1589942339448 C 326.66666666666663 616.1589942339448 373.33333333333337 595.7238282110054 420.0 595.7238282110054 C 466.6666666666667 595.7238282110054 513.3333333333333 561.7698722901885 560.0 561.7698722901885 C 606.6666666666667 561.7698722901885 653.3333333333333 531.5088743088368 700.0 531.5088743088368 C 746.6666666666666 531.5088743088368 793.3333333333334 413.2471972164067 840.0 413.2471972164067 C 886.6666666666666 413.2471972164067 933.3333333333334 124.83730170386883 980.0 124.83730170386883 C 1026.6666666666665 124.83730170386883 1073.3333333333335 245.24519313945575 1120.0 245.24519313945575" fill="none" stroke="#93ff6e" stroke-linecap="round" stroke-width="10" /></g><g class="curve_05"><path d="M 140.0 282.31823937362645 C 186.66666666666666 282.31823937362645 233.33333333333334 312.41904556986896 280.0 312.41904556986896 C 326.66666666666663 312.41904556986896 373.33333333333337 362.82879387578475 420.0 362.82879387578475 C 466.6666666666667 362.82879387578475 513.3333333333333 383.6179906350357 560.0 383.6179906350357 C 606.6666666666667 383.6179906350357 653.3333333333333 541.5712876693087 700.0 541.5712876693087 C 746.6666666666666 541.5712876693087 793.3333333333334 298.19904052333294 840.0 298.19904052333294 C 886.6666666666666 298.19904052333294 933.3333333333334 301.2384174323105 980.0 301.2384174323105 C 1026.6666666666665 301.2384174323105 1073.3333333333335 353.2154390591671 1120.0 353.2154390591671" fill="none" stroke="#b2ff5a" stroke-linecap="round" stroke-width="10" /></g><g class="curve_06"><path d="M 140.0 617.8414596192043 C 186.66666666666666 617.8414596192043 233.33333333333334 617.8414596192043 280.0 617.8414596192043 C 326.66666666666663 617.8414596192043 373.33333333333337 597.406293596265 420.0 597.406293596265 C 466.6666666666667 597.406293596265 513.3333333333333 563.452337675448 560.0 563.452337675448 C 606.6666666666667 563.452337675448 653.3333333333333 533.1913396940963 700.0 533.1913396940963 C 746.6666666666666 533.1913396940963 793.3333333333334 414.9296626016662 840.0 414.9296626016662 C 886.6666666666666 414.9296626016662 933.3333333333334 414.9296626016662 980.0 414.9296626016662 C 1026.6666666666665 414.9296626016662 1073.3333333333335 129.3117250736086 1120.0 129.3117250736086" fill="none" stroke="#d2f74f" stroke-linecap="round" stroke-width="10" /></g><g class="curve_07"><path d="M 140.0 342.02195897036586 C 186.66666666666666 342.02195897036586 233.33333333333334 549.6096387224109 280.0 549.6096387224109 C 326.66666666666663 549.6096387224109 373.33333333333337 549.6096387224109 420.0 549.6096387224109 C 466.6666666666667 549.6096387224109 513.3333333333333 603.5266409263411 560.0 603.5266409263411 C 606.6666666666667 603.5266409263411 653.3333333333333 327.07384425426346 700.0 327.07384425426346 C 746.6666666666666 327.07384425426346 793.3333333333334 163.79904936769316 840.0 163.79904936769316 C 886.6666666666666 163.79904936769316 933.3333333333334 351.9461381011435 980.0 351.9461381011435 C 1026.6666666666665 351.9461381011435 1073.3333333333335 403.9231597280001 1120.0 403.9231597280001" fill="none" stroke="#eedc4d" stroke-linecap="round" stroke-width="10" /></g><g class="curve_08"><path d="M 140.0 600.9594336119907 C 186.66666666666666 600.9594336119907 233.33333333333334 600.9594336119907 280.0 600.9594336119907 C 326.66666666666663 600.9594336119907 373.33333333333337 580.5242675890513 420.0 580.5242675890513 C 466.6666666666667 580.5242675890513 513.3333333333333 546.5703116682344 560.0 546.5703116682344 C 606.6666666666667 546.5703116682344 653.3333333333333 347.1491303129489 700.0 347.1491303129489 C 746.6666666666666 347.1491303129489 793.3333333333334 247.51043635634284 840.0 247.51043635634284 C 886.6666666666666 247.51043635634284 933.3333333333334 281.9800660825624 980.0 281.9800660825624 C 1026.6666666666665 281.9800660825624 1073.3333333333335 333.95708770941906 1120.0 333.95708770941906" fill="none" stroke="#ffbd55" stroke-linecap="round" stroke-width="10" /></g><g class="curve_09"><path d="M 140.0 317.143748350329 C 186.66666666666666 317.143748350329 233.33333333333334 347.2445545465715 280.0 347.2445545465715 C 326.66666666666663 347.2445545465715 373.33333333333337 397.6543028524873 420.0 397.6543028524873 C 466.6666666666667 397.6543028524873 513.3333333333333 437.14087093548085 560.0 437.14087093548085 C 606.6666666666667 437.14087093548085 653.3333333333333 496.1795865874368 700.0 496.1795865874368 C 746.6666666666666 496.1795865874368 793.3333333333334 377.9179094950067 840.0 377.9179094950067 C 886.6666666666666 377.9179094950067 933.3333333333334 146.98079073352346 980.0 146.98079073352346 C 1026.6666666666665 146.98079073352346 1073.3333333333335 267.3886821691104 1120.0 267.3886821691104" fill="none" stroke="#ff9d67" stroke-linecap="round" stroke-width="10" /></g><g class="curve_10"><path d="M 140.0 626.4310041472461 C 186.66666666666666 626.4310041472461 233.33333333333334 626.4310041472461 280.0 626.4310041472461 C 326.66666666666663 626.4310041472461 373.33333333333337 605.9958381243067 420.0 605.9958381243067 C 466.6666666666667 605.9958381243067 513.3333333333333 572.0418822034898 560.0 572.0418822034898 C 606.6666666666667 572.0418822034898 653.3333333333333 387.20245072339617 700.0 387.20245072339617 C 746.6666666666666 387.20245072339617 793.3333333333334 287.56375676679005 840.0 287.56375676679005 C 886.6666666666666 287.56375676679005 933.3333333333334 74.94917654295523 980.0 74.94917654295523 C 1026.6666666666665 74.94917654295523 1073.3333333333335 195.35706797854215 1120.0 195.35706797854215" fill="none" stroke="#ff807f" stroke-linecap="round" stroke-width="10" /></g><g class="curve_11"><path d="M 140.0 503.08684317042514 C 186.66666666666666 503.08684317042514 233.33333333333334 481.3208916838434 280.0 481.3208916838434 C 326.66666666666663 481.3208916838434 373.33333333333337 243.01555348755056 420.0 243.01555348755056 C 466.6666666666667 243.01555348755056 513.3333333333333 510.2637355587025 560.0 510.2637355587025 C 606.6666666666667 510.2637355587025 653.3333333333333 415.25980377500144 700.0 415.25980377500144 C 746.6666666666666 415.25980377500144 793.3333333333334 440.7316798719411 840.0 440.7316798719411 C 886.6666666666666 440.7316798719411 933.3333333333334 565.2971167572846 980.0 565.2971167572846 C 1026.6666666666665 565.2971167572846 1073.3333333333335 580.6016035090948 1120.0 580.6016035090948" fill="none" stroke="#ff679d" stroke-linecap="round" stroke-width="10" /></g><g class="curve_12"><path d="M 140.0 626.4559088987128 C 186.66666666666666 626.4559088987128 233.33333333333334 626.4559088987128 280.0 626.4559088987128 C 326.66666666666663 626.4559088987128 373.33333333333337 606.0207428757734 420.0 606.0207428757734 C 466.6666666666667 606.0207428757734 513.3333333333333 572.0667869549565 560.0 572.0667869549565 C 606.6666666666667 572.0667869549565 653.3333333333333 387.22735547486286 700.0 387.22735547486286 C 746.6666666666666 387.22735547486286 793.3333333333334 287.58866151825674 840.0 287.58866151825674 C 886.6666666666666 287.58866151825674 933.3333333333334 74.97408129442192 980.0 74.97408129442192 C 1026.6666666666665 74.97408129442192 1073.3333333333335 195.38197273000884 1120.0 195.38197273000884" fill="none" stroke="#ff55bd" stroke-linecap="round" stroke-width="10" /></g><g class="curve_13"><path d="M 140.0 413.82303611743623 C 186.66666666666666 413.82303611743623 233.33333333333334 392.05708463085455 280.0 392.05708463085455 C 326.66666666666663 392.05708463085455 373.33333333333337 532.4536985102559 420.0 532.4536985102559 C 466.6666666666667 532.4536985102559 513.3333333333333 532.4536985102559 560.0 532.4536985102559 C 606.6666666666667 532.4536985102559 653.3333333333333 333.0325171549703 700.0 333.0325171549703 C 746.6666666666666 333.0325171549703 793.3333333333334 169.75772226840002 840.0 169.75772226840002 C 886.6666666666666 169.75772226840002 933.3333333333334 357.90481100185036 980.0 357.90481100185036 C 1026.6666666666665 357.90481100185036 1073.3333333333335 409.88183262870695 1120.0 409.88183262870695" fill="none" stroke="#ee4ddc" stroke-linecap="round" stroke-width="10" /></g><g class="curve_14"><path d="M 140.0 533.3911027894609 C 186.66666666666666 533.3911027894609 233.33333333333334 511.62515130287915 280.0 511.62515130287915 C 326.66666666666663 511.62515130287915 373.33333333333337 273.3198131065863 420.0 273.3198131065863 C 466.6666666666667 273.3198131065863 513.3333333333333 132.0544238342237 560.0 132.0544238342237 C 606.6666666666667 132.0544238342237 653.3333333333333 208.1117953902271 700.0 208.1117953902271 C 746.6666666666666 208.1117953902271 793.3333333333334 563.1790907475354 840.0 563.1790907475354 C 886.6666666666666 563.1790907475354 933.3333333333334 477.46021294617293 980.0 477.46021294617293 C 1026.6666666666665 477.46021294617293 1073.3333333333335 477.46021294617293 1120.0 477.46021294617293" fill="none" stroke="#d24ff7" stroke-linecap="round" stroke-width="10" /></g><g class="curve_15"><path d="M 140.0 216.0492409959681 C 186.66666666666666 216.0492409959681 233.33333333333334 179.09312169278388 280.0 179.09312169278388 C 326.66666666666663 179.09312169278388 373.33333333333337 526.9130045095676 420.0 526.9130045095676 C 466.6666666666667 526.9130045095676 513.3333333333333 332.43056398747393 560.0 332.43056398747393 C 606.6666666666667 332.43056398747393 653.3333333333333 596.5923328870359 700.0 596.5923328870359 C 746.6666666666666 596.5923328870359 793.3333333333334 60.000000000000114 840.0 60.000000000000114 C 886.6666666666666 60.000000000000114 933.3333333333334 238.36571224758313 980.0 238.36571224758313 C 1026.6666666666665 238.36571224758313 1073.3333333333335 420.58666530700344 1120.0 420.58666530700344" fill="none" stroke="#b35aff" stroke-linecap="round" stroke-width="10" /></g><g class="curve_16"><path d="M 140.0 625.7209671111198 C 186.66666666666666 625.7209671111198 233.33333333333334 625.7209671111198 280.0 625.7209671111198 C 326.66666666666663 625.7209671111198 373.33333333333337 605.2858010881804 420.0 605.2858010881804 C 466.6666666666667 605.2858010881804 513.3333333333333 571.3318451673634 560.0 571.3318451673634 C 606.6666666666667 571.3318451673634 653.3333333333333 386.49241368726973 700.0 386.49241368726973 C 746.6666666666666 386.49241368726973 793.3333333333334 286.85371973066367 840.0 286.85371973066367 C 886.6666666666666 286.85371973066367 933.3333333333334 74.23913950682879 980.0 74.23913950682879 C 1026.6666666666665 74.23913950682879 1073.3333333333335 194.64703094241577 1120.0 194.64703094241577" fill="none" stroke="#936eff" stroke-linecap="round" stroke-width="10" /></g><g class="curve_17"><path d="M 140.0 260.7428551839331 C 186.66666666666666 260.7428551839331 233.33333333333334 370.20866070551347 280.0 370.20866070551347 C 326.66666666666663 370.20866070551347 373.33333333333337 420.6184090114292 420.0 420.6184090114292 C 466.6666666666667 420.6184090114292 513.3333333333333 460.1049770944228 560.0 460.1049770944228 C 606.6666666666667 460.1049770944228 653.3333333333333 360.98529587471114 700.0 360.98529587471114 C 746.6666666666666 360.98529587471114 793.3333333333334 261.3466019181051 840.0 261.3466019181051 C 886.6666666666666 261.3466019181051 933.3333333333334 224.47307111351284 980.0 224.47307111351284 C 1026.6666666666665 224.47307111351284 1073.3333333333335 105.76535557922591 1120.0 105.76535557922591" fill="none" stroke="#7789ff" stroke-linecap="round" stroke-width="10" /></g><g class="curve_18"><path d="M 140.0 630.0 C 186.66666666666666 630.0 233.33333333333334 630.0 280.0 630.0 C 326.66666666666663 630.0 373.33333333333337 609.5648339770606 420.0 609.5648339770606 C 466.6666666666667 609.5648339770606 513.3333333333333 575.6108780562437 560.0 575.6108780562437 C 606.6666666666667 575.6108780562437 653.3333333333333 390.7714465761501 700.0 390.7714465761501 C 746.6666666666666 390.7714465761501 793.3333333333334 416.24332267308966 840.0 416.24332267308966 C 886.6666666666666 416.24332267308966 933.3333333333334 416.24332267308966 980.0 416.24332267308966 C 1026.6666666666665 416.24332267308966 1073.3333333333335 130.62538514503217 1120.0 130.62538514503217" fill="none" stroke="#60a8ff" stroke-linecap="round" stroke-width="10" /></g><g class="curve_19"><path d="M 140.0 64.60295601595965 C 186.66666666666666 64.60295601595965 233.33333333333334 264.40036260729516 280.0 264.40036260729516 C 326.66666666666663 264.40036260729516 373.33333333333337 60.82623303139985 420.0 60.82623303139985 C 466.6666666666667 60.82623303139985 513.3333333333333 71.88761746392117 560.0 71.88761746392117 C 606.6666666666667 71.88761746392117 653.3333333333333 147.9449890199245 700.0 147.9449890199245 C 746.6666666666666 147.9449890199245 793.3333333333334 503.01228437723285 840.0 503.01228437723285 C 886.6666666666666 503.01228437723285 933.3333333333334 627.5777212625763 980.0 627.5777212625763 C 1026.6666666666665 627.5777212625763 1073.3333333333335 512.645041958745 1120.0 512.645041958745" fill="none" stroke="#51c8fe" stroke-linecap="round" stroke-width="10" /></g><g><line marker-end="url(#arrowhead)" stroke="#ff679d" stroke-width="5" x1="1365.0" x2="1190.0" y1="580.6016035090948" y2="580.6016035090948" /><text fill="#ff679d" font-family="Fira Code" font-size="16px" font-weight="bold" text-anchor="middle" x="1277.5" y="565.6016035090948">Lowest Location</text></g></svg>