<?xml version="1.0" encoding="utf-8" ?>
<svg baseProfile="full" height="680" version="1.1" width="1400" xmlns="http://www.w3.org/2000/svg" xmlns:ev="http://www.w3.org/2001/xml-events" xmlns:xlink="http://www.w3.org/1999/xlink"><defs><style type="text/css"><![CDATA[.curve_00{stroke:#4ce5e6;opacity:1;}
.curve_00:hover{opacity:1;}]]></style></defs><g><text fill="#4ce5e6" font-family="Fira Code" font-size="14px" font-weight="bold" text-anchor="middle" x="140.0" y="665.0">Seed</text><text fill="#6aff98" font-family="Fira Code" font-size="14px" font-weight="bold" text-anchor="middle" x="280.0" y="665.0">Soil</text><text fill="#b2ff5a" font-family="Fira Code" font-size="14px" font-weight="bold" text-anchor="middle" x="420.0" y="665.0">Fertilizer</text><text fill="#fbcd50" font-family="Fira Code" font-size="14px" font-weight="bold" text-anchor="middle" x="560.0" y="665.0">Water</text><text fill="#ff807f" font-family="Fira Code" font-size="14px" font-weight="bold" text-anchor="middle" x="700.0" y="665.0">Light</text><text fill="#fb50cd" font-family="Fira Code" font-size="14px" font-weight="bold" text-anchor="middle" x="840.0" y="665.0">Temperature</text><text fill="#b35aff" font-family="Fira Code" font-size="14px" font-weight="bold" text-anchor="middle" x="980.0" y="665.0">Humidity</text><text fill="#6a98ff" font-family="Fira Code" font-size="14px" font-weight="bold" text-anchor="middle" x="1120.0" y="665.0">Location</text></g><g id="grid" stroke="#5988a6" stroke-width="2"><line x1="140.0" x2="140.0" y1="0" y2="650" /><line x1="280.0" x2="280.0" y1="0" y2="650" /><line x1="420.0" x2="420.0" y1="0" y2="650" /><line x1="560.0" x2="560.0" y1="0" y2="650" /><line x1="700.0" x2="700.0" y1="0" y2="650" /><line x1="840.0" x2="840.0" y1="0" y2="650" /><line x1="980.0" x2="980.0" y1="0" y2="650" /><line x1="1120.0" x2="1120.0" y1="0" y2="650" /></g><g class="curve_00"><path d="M 140.0 628.9028999655637 C 186.66666666666666 628.9028999655637 233.33333333333334 628.9028999655637 280.0 628.9028999655637 C 326.66666666666663 628.9028999655637 373.33333333333337 607.0336872041725 420.0 607.0336872041725 C 466.6666666666667 607.0336872041725 513.3333333333333 570.6969975345263 560.0 570.6969975345263 C 606.6666666666667 570.6969975345263 653.3333333333333 372.8863778803909 700.0 372.8863778803909 C 746.6666666666666 372.8863778803909 793.3333333333334 266.25549487419846 840.0 266.25549487419846 C 886.6666666666666 266.25549487419846 933.3333333333334 38.72059323114706 980.0 38.72059323114706 C 1026.6666666666665 38.72059323114706 1073.3333333333335 167.57816125870505 1120.0 167.57816125870505" fill="none" stroke="#4ce5e6" stroke-linecap="round" stroke-width="10" /></g></svg>