<?xml version="1.0" encoding="utf-8" ?>
<svg baseProfile="full" height="680" version="1.1" width="1400" xmlns="http://www.w3.org/2000/svg" xmlns:ev="http://www.w3.org/2001/xml-events" xmlns:xlink="http://www.w3.org/1999/xlink"><defs><style type="text/css"><![CDATA[.column_00{opacity:0.3;stroke:#4ce5e6;fill:#4ce5e6}
.column_00:hover{opacity:1;}]]></style><style type="text/css"><![CDATA[.column_01{opacity:0.3;stroke:#6aff98;fill:#6aff98}
.column_01:hover{opacity:1;}]]></style><style type="text/css"><![CDATA[.column_02{opacity:0.3;stroke:#b2ff5a;fill:#b2ff5a}
.column_02:hover{opacity:1;}]]></style><style type="text/css"><![CDATA[.column_03{opacity:0.3;stroke:#fbcd50;fill:#fbcd50}
.column_03:hover{opacity:1;}]]></style><style type="text/css"><![CDATA[.column_04{opacity:0.3;stroke:#ff807f;fill:#ff807f}
.column_04:hover{opacity:1;}]]></style><style type="text/css"><![CDATA[.column_05{opacity:0.3;stroke:#fb50cd;fill:#fb50cd}
.column_05:hover{opacity:1;}]]></style><style type="text/css"><![CDATA[.column_06{opacity:0.3;stroke:#b35aff;fill:#b35aff}
.column_06:hover{opacity:1;}]]></style></defs><rect fill="#07273B" height="680" width="1400" x="0" y="0" /><g stroke="#5988a6" stroke-width="1.0"><line x1="133.0" x2="1127.0" y1="630.0" y2="630.0" /><text fill="#5988a6" font-family="Fira Code" font-size="12px" font-weight="bold" stroke="none" text-anchor="end" x="130.0" y="634.0">0.0</text><text fill="#5988a6" font-family="Fira Code" font-size="12px" font-weight="bold" stroke="none" text-anchor="start" x="1130.0" y="634.0">0.0</text><line x1="133.0" x2="1127.0" y1="497.2865331172943" y2="497.2865331172943" /><text fill="#5988a6" font-family="Fira Code" font-size="12px" font-weight="bold" stroke="none" text-anchor="end" x="130.0" y="501.2865331172943">1E+09</text><text fill="#5988a6" font-family="Fira Code" font-size="12px" font-weight="bold" stroke="none" text-anchor="start" x="1130.0" y="501.2865331172943">1E+09</text><line x1="133.0" x2="1127.0" y1="364.5730662345886" y2="364.5730662345886" /><text fill="#5988a6" font-family="Fira Code" font-size="12px" font-weight="bold" stroke="none" text-anchor="end" x="130.0" y="368.5730662345886">2E+09</text><text fill="#5988a6" font-family="Fira Code" font-size="12px" font-weight="bold" stroke="none" text-anchor="start" x="1130.0" y="368.5730662345886">2E+09</text><line x1="133.0" x2="1127.0" y1="231.85959935188293" y2="231.85959935188293" /><text fill="#5988a6" font-family="Fira Code" font-size="12px" font-weight="bold" stroke="none" text-anchor="end" x="130.0" y="235.85959935188293">3E+09</text><text fill="#5988a6" font-family="Fira Code" font-size="12px" font-weight="bold" stroke="none" text-anchor="start" x="1130.0" y="235.85959935188293">3E+09</text><line x1="133.0" x2="1127.0" y1="99.14613246917725" y2="99.14613246917725" /><text fill="#5988a6" font-family="Fira Code" font-size="12px" font-weight="bold" stroke="none" text-anchor="end" x="130.0" y="103.14613246917725">4E+09</text><text fill="#5988a6" font-family="Fira Code" font-size="12px" font-weight="bold" stroke="none" text-anchor="start" x="1130.0" y="103.14613246917725">4E+09</text></g><text fill="#FFD700" font-family="Fira Code" font-size="16px" font-weight="bold" stroke="none" text-anchor="middle" x="630.0" y="20.0">The maps and their shifters</text><g><text fill="#4ce5e6" font-family="Fira Code" font-size="14px" font-weight="bold" stroke="none" text-anchor="middle" x="140.0" y="665.0">Seed</text><text fill="#6aff98" font-family="Fira Code" font-size="14px" font-weight="bold" stroke="none" text-anchor="middle" x="280.0" y="665.0">Soil</text><text fill="#b2ff5a" font-family="Fira Code" font-size="14px" font-weight="bold" stroke="none" text-anchor="middle" x="420.0" y="665.0">Fertilizer</text><text fill="#fbcd50" font-family="Fira Code" font-size="14px" font-weight="bold" stroke="none" text-anchor="middle" x="560.0" y="665.0">Water</text><text fill="#ff807f" font-family="Fira Code" font-size="14px" font-weight="bold" stroke="none" text-anchor="middle" x="700.0" y="665.0">Light</text><text fill="#fb50cd" font-family="Fira Code" font-size="14px" font-weight="bold" stroke="none" text-anchor="middle" x="840.0" y="665.0">Temperature</text><text fill="#b35aff" font-family="Fira Code" font-size="14px" font-weight="bold" stroke="none" text-anchor="middle" x="980.0" y="665.0">Humidity</text><text fill="#6a98ff" font-family="Fira Code" font-size="14px" font-weight="bold" stroke="none" text-anchor="middle" x="1120.0" y="665.0">Location</text></g><g id="shifters"><g id="column_00"><g class="column_00" id="column_00_00"><path d="M 140.0 544.8823208094109 C 210.0 544.8823208094109 210.0 523.3282848482486 280.0 523.3282848482486 L 280.0 373.04076305706985 C 210.0 373.04076305706985 210.0 394.59479901823215 140.0 394.59479901823215 Z" fill-opacity="0.6" stroke-width="1.5" /></g><g class="column_00" id="column_00_01"><path d="M 140.0 391.46453584427945 C 210.0 391.46453584427945 210.0 597.0311207568739 280.0 597.0311207568739 L 280.0 531.3996206258889 C 210.0 531.3996206258889 210.0 325.8330357132945 140.0 325.8330357132945 Z" fill-opacity="0.6" stroke-width="1.5" /></g><g class="column_00" id="column_00_02"><path d="M 140.0 264.6407277917024 C 210.0 264.6407277917024 210.0 373.04076305706985 280.0 373.04076305706985 L 280.0 355.29862893163227 C 210.0 355.29862893163227 210.0 246.8985936662648 140.0 246.8985936662648 Z" fill-opacity="0.6" stroke-width="1.5" /></g><g class="column_00" id="column_00_03"><path d="M 140.0 325.4908872570377 C 210.0 325.4908872570377 210.0 355.29862893163227 280.0 355.29862893163227 L 280.0 294.44846946629696 C 210.0 294.44846946629696 210.0 264.6407277917024 140.0 264.6407277917024 Z" fill-opacity="0.6" stroke-width="1.5" /></g><g class="column_00" id="column_00_04"><path d="M 140.0 592.432196609443 C 210.0 592.432196609443 210.0 257.85215871292166 280.0 257.85215871292166 L 280.0 210.3022829128895 C 210.0 210.3022829128895 210.0 544.8823208094109 140.0 544.8823208094109 Z" fill-opacity="0.6" stroke-width="1.5" /></g><g class="column_00" id="column_00_05"><path d="M 140.0 246.8985936662648 C 210.0 246.8985936662648 210.0 210.3022829128895 280.0 210.3022829128895 L 280.0 60.00000006635673 C 210.0 60.00000006635673 210.0 96.59631081973203 140.0 96.59631081973203 Z" fill-opacity="0.6" stroke-width="1.5" /></g><g class="column_00" id="column_00_06"><path d="M 140.0 96.59631081973203 C 210.0 96.59631081973203 210.0 294.44846946629696 280.0 294.44846946629696 L 280.0 257.85215871292166 C 210.0 257.85215871292166 210.0 60.00000006635673 140.0 60.00000006635673 Z" fill-opacity="0.6" stroke-width="1.5" /></g><g class="column_00" id="column_00_07"><path d="M 140.0 597.0311207568739 C 210.0 597.0311207568739 210.0 528.2693574519362 280.0 528.2693574519362 L 280.0 523.6704333045054 C 210.0 523.6704333045054 210.0 592.432196609443 140.0 592.432196609443 Z" fill-opacity="0.6" stroke-width="1.5" /></g><g class="column_00" id="column_00_08"><path d="M 140.0 394.59479901823215 C 210.0 394.59479901823215 210.0 531.3996206258889 280.0 531.3996206258889 L 280.0 528.2693574519362 C 210.0 528.2693574519362 210.0 391.46453584427945 140.0 391.46453584427945 Z" fill-opacity="0.6" stroke-width="1.5" /></g><g class="column_00" id="column_00_09"><path d="M 140.0 325.8330357132945 C 210.0 325.8330357132945 210.0 523.6704333045054 280.0 523.6704333045054 L 280.0 523.3282848482486 C 210.0 523.3282848482486 210.0 325.4908872570377 140.0 325.4908872570377 Z" fill-opacity="0.6" stroke-width="1.5" /></g></g><g id="column_01"><g class="column_01" id="column_01_00"><path d="M 280.0 534.5906440063845 C 350.0 534.5906440063845 350.0 298.6054709076416 420.0 298.6054709076416 L 420.0 159.57577279186808 C 350.0 159.57577279186808 350.0 395.56094589061104 280.0 395.56094589061104 Z" fill-opacity="0.6" stroke-width="1.5" /></g><g class="column_01" id="column_01_01"><path d="M 280.0 69.5907285308931 C 350.0 69.5907285308931 350.0 159.57577279186808 420.0 159.57577279186808 L 420.0 149.9850443273317 C 350.0 149.9850443273317 350.0 60.00000006635673 280.0 60.00000006635673 Z" fill-opacity="0.6" stroke-width="1.5" /></g><g class="column_01" id="column_01_02"><path d="M 280.0 183.32058347412385 C 350.0 183.32058347412385 350.0 527.7540564083029 420.0 527.7540564083029 L 420.0 499.9719864700455 C 350.0 499.9719864700455 350.0 155.5385135358665 280.0 155.5385135358665 Z" fill-opacity="0.6" stroke-width="1.5" /></g><g class="column_01" id="column_01_03"><path d="M 280.0 261.5921111369971 C 350.0 261.5921111369971 350.0 139.16966399294324 420.0 139.16966399294324 L 420.0 71.71351666445844 C 350.0 71.71351666445844 350.0 194.13596380851232 280.0 194.13596380851232 Z" fill-opacity="0.6" stroke-width="1.5" /></g><g class="column_01" id="column_01_04"><path d="M 280.0 388.72435829252936 C 350.0 388.72435829252936 350.0 438.6433121433947 420.0 438.6433121433947 L 420.0 342.32106035691686 C 350.0 342.32106035691686 350.0 292.4021065060515 280.0 292.4021065060515 Z" fill-opacity="0.6" stroke-width="1.5" /></g><g class="column_01" id="column_01_05"><path d="M 280.0 594.8158607992809 C 350.0 594.8158607992809 350.0 574.5796536386479 420.0 574.5796536386479 L 420.0 572.5600220903289 C 350.0 572.5600220903289 350.0 592.7962292509619 280.0 592.7962292509619 Z" fill-opacity="0.6" stroke-width="1.5" /></g><g class="column_01" id="column_01_06"><path d="M 280.0 130.9194028575439 C 350.0 130.9194028575439 350.0 499.9719864700455 420.0 499.9719864700455 L 420.0 438.6433121433947 C 350.0 438.6433121433947 350.0 69.5907285308931 280.0 69.5907285308931 Z" fill-opacity="0.6" stroke-width="1.5" /></g><g class="column_01" id="column_01_07"><path d="M 280.0 292.4021065060515 C 350.0 292.4021065060515 350.0 342.32106035691686 420.0 342.32106035691686 L 420.0 323.2245815859642 C 350.0 323.2245815859642 350.0 273.3056277350988 280.0 273.3056277350988 Z" fill-opacity="0.6" stroke-width="1.5" /></g><g class="column_01" id="column_01_08"><path d="M 280.0 194.13596380851232 C 350.0 194.13596380851232 350.0 149.9850443273317 420.0 149.9850443273317 L 420.0 139.16966399294324 C 350.0 139.16966399294324 350.0 183.32058347412385 280.0 183.32058347412385 Z" fill-opacity="0.6" stroke-width="1.5" /></g><g class="column_01" id="column_01_09"><path d="M 280.0 273.3056277350988 C 350.0 273.3056277350988 350.0 71.71351666445844 420.0 71.71351666445844 L 420.0 60.00000006635673 C 350.0 60.00000006635673 350.0 261.5921111369971 280.0 261.5921111369971 Z" fill-opacity="0.6" stroke-width="1.5" /></g><g class="column_01" id="column_01_10"><path d="M 280.0 155.5385135358665 C 350.0 155.5385135358665 350.0 314.11608953378163 420.0 314.11608953378163 L 420.0 298.6054709076416 C 350.0 298.6054709076416 350.0 140.02789490972646 280.0 140.02789490972646 Z" fill-opacity="0.6" stroke-width="1.5" /></g><g class="column_01" id="column_01_11"><path d="M 280.0 592.7962292509619 C 350.0 592.7962292509619 350.0 630.0000000663567 420.0 630.0000000663567 L 420.0 627.8842433576938 C 350.0 627.8842433576938 350.0 590.680472542299 280.0 590.680472542299 Z" fill-opacity="0.6" stroke-width="1.5" /></g><g class="column_01" id="column_01_12"><path d="M 280.0 395.56094589061104 C 350.0 395.56094589061104 350.0 534.5906440063845 420.0 534.5906440063845 L 420.0 527.7540564083029 C 350.0 527.7540564083029 350.0 388.72435829252936 280.0 388.72435829252936 Z" fill-opacity="0.6" stroke-width="1.5" /></g><g class="column_01" id="column_01_13"><path d="M 280.0 630.0000000663567 C 350.0 630.0000000663567 350.0 609.7637929057237 420.0 609.7637929057237 L 420.0 574.5796536386479 C 350.0 574.5796536386479 350.0 594.8158607992809 280.0 594.8158607992809 Z" fill-opacity="0.6" stroke-width="1.5" /></g><g class="column_01" id="column_01_14"><path d="M 280.0 140.02789490972646 C 350.0 140.02789490972646 350.0 323.2245815859642 420.0 323.2245815859642 L 420.0 314.11608953378163 C 350.0 314.11608953378163 350.0 130.9194028575439 280.0 130.9194028575439 Z" fill-opacity="0.6" stroke-width="1.5" /></g><g class="column_01" id="column_01_15"><path d="M 280.0 590.680472542299 C 350.0 590.680472542299 350.0 627.8842433576938 420.0 627.8842433576938 L 420.0 609.7637929057237 C 350.0 609.7637929057237 350.0 572.5600220903289 280.0 572.5600220903289 Z" fill-opacity="0.6" stroke-width="1.5" /></g></g><g id="column_02"><g class="column_02" id="column_02_00"><path d="M 420.0 576.6079392994288 C 490.0 576.6079392994288 490.0 630.0000000663567 560.0 630.0000000663567 L 560.0 596.376623326214 C 490.0 596.376623326214 490.0 542.9845625592861 420.0 542.9845625592861 Z" fill-opacity="0.6" stroke-width="1.5" /></g><g class="column_02" id="column_02_01"><path d="M 420.0 261.9799787190277 C 490.0 261.9799787190277 490.0 526.6262052103411 560.0 526.6262052103411 L 560.0 500.86280889459886 C 490.0 500.86280889459886 490.0 236.21658240328543 420.0 236.21658240328543 Z" fill-opacity="0.6" stroke-width="1.5" /></g><g class="column_02" id="column_02_02"><path d="M 420.0 236.21658240328543 C 490.0 236.21658240328543 490.0 251.259093292756 560.0 251.259093292756 L 560.0 173.5604595404584 C 490.0 173.5604595404584 490.0 158.51794865098782 420.0 158.51794865098782 Z" fill-opacity="0.6" stroke-width="1.5" /></g><g class="column_02" id="column_02_03"><path d="M 420.0 111.13627403159626 C 490.0 111.13627403159626 490.0 122.08996369619854 560.0 122.08996369619854 L 560.0 70.95368973095901 C 490.0 70.95368973095901 490.0 60.00000006635673 420.0 60.00000006635673 Z" fill-opacity="0.6" stroke-width="1.5" /></g><g class="column_02" id="column_02_04"><path d="M 420.0 158.51794865098782 C 490.0 158.51794865098782 490.0 64.65694547980092 560.0 64.65694547980092 L 560.0 60.00000006635673 C 490.0 60.00000006635673 490.0 153.86100323754363 420.0 153.86100323754363 Z" fill-opacity="0.6" stroke-width="1.5" /></g><g class="column_02" id="column_02_05"><path d="M 420.0 147.56425898638554 C 490.0 147.56425898638554 490.0 500.86280889459886 560.0 500.86280889459886 L 560.0 471.30694609950297 C 490.0 471.30694609950297 490.0 118.00839619128965 420.0 118.00839619128965 Z" fill-opacity="0.6" stroke-width="1.5" /></g><g class="column_02" id="column_02_06"><path d="M 420.0 630.0000000663567 C 490.0 630.0000000663567 490.0 596.376623326214 560.0 596.376623326214 L 560.0 544.6231026097666 C 490.0 544.6231026097666 490.0 578.2464793499094 420.0 578.2464793499094 Z" fill-opacity="0.6" stroke-width="1.5" /></g><g class="column_02" id="column_02_07"><path d="M 420.0 526.6262052103411 C 490.0 526.6262052103411 490.0 334.037265580846 560.0 334.037265580846 L 560.0 258.1312154524494 C 490.0 258.1312154524494 490.0 450.72015508194454 420.0 450.72015508194454 Z" fill-opacity="0.6" stroke-width="1.5" /></g><g class="column_02" id="column_02_08"><path d="M 420.0 432.20482327393256 C 490.0 432.20482327393256 490.0 471.30694609950297 560.0 471.30694609950297 L 560.0 425.89227364514954 C 490.0 425.89227364514954 490.0 386.79015081957914 420.0 386.79015081957914 Z" fill-opacity="0.6" stroke-width="1.5" /></g><g class="column_02" id="column_02_09"><path d="M 420.0 118.00839619128965 C 490.0 118.00839619128965 490.0 258.1312154524494 560.0 258.1312154524494 L 560.0 251.259093292756 C 490.0 251.259093292756 490.0 111.13627403159626 420.0 111.13627403159626 Z" fill-opacity="0.6" stroke-width="1.5" /></g><g class="column_02" id="column_02_10"><path d="M 420.0 578.2464793499094 C 490.0 578.2464793499094 490.0 544.6231026097666 560.0 544.6231026097666 L 560.0 542.9845625592861 C 490.0 542.9845625592861 490.0 576.6079392994288 420.0 576.6079392994288 Z" fill-opacity="0.6" stroke-width="1.5" /></g><g class="column_02" id="column_02_11"><path d="M 420.0 153.86100323754363 C 490.0 153.86100323754363 490.0 70.95368973095901 560.0 70.95368973095901 L 560.0 64.65694547980092 C 490.0 64.65694547980092 490.0 147.56425898638554 420.0 147.56425898638554 Z" fill-opacity="0.6" stroke-width="1.5" /></g><g class="column_02" id="column_02_12"><path d="M 420.0 313.45047456328757 C 490.0 313.45047456328757 490.0 173.5604595404584 560.0 173.5604595404584 L 560.0 122.08996369619854 C 490.0 122.08996369619854 490.0 261.9799787190277 420.0 261.9799787190277 Z" fill-opacity="0.6" stroke-width="1.5" /></g><g class="column_02" id="column_02_13"><path d="M 420.0 386.79015081957914 C 490.0 386.79015081957914 490.0 407.37694183713757 560.0 407.37694183713757 L 560.0 334.037265580846 C 490.0 334.037265580846 490.0 313.45047456328757 420.0 313.45047456328757 Z" fill-opacity="0.6" stroke-width="1.5" /></g><g class="column_02" id="column_02_14"><path d="M 420.0 450.72015508194454 C 490.0 450.72015508194454 490.0 425.89227364514954 560.0 425.89227364514954 L 560.0 407.37694183713757 C 490.0 407.37694183713757 490.0 432.20482327393256 420.0 432.20482327393256 Z" fill-opacity="0.6" stroke-width="1.5" /></g></g><g id="column_03"><g class="column_03" id="column_03_00"><path d="M 560.0 528.1849950843025 C 630.0 528.1849950843025 630.0 424.492521219654 700.0 424.492521219654 L 700.0 423.9041469467338 C 630.0 423.9041469467338 630.0 527.5966208113823 560.0 527.5966208113823 Z" fill-opacity="0.6" stroke-width="1.5" /></g><g class="column_03" id="column_03_01"><path d="M 560.0 237.6609403558541 C 630.0 237.6609403558541 630.0 121.28678935929202 700.0 121.28678935929202 L 700.0 103.56444533332251 C 630.0 103.56444533332251 630.0 219.9385963298846 560.0 219.9385963298846 Z" fill-opacity="0.6" stroke-width="1.5" /></g><g class="column_03" id="column_03_02"><path d="M 560.0 190.75400052010082 C 630.0 190.75400052010082 630.0 236.2777554814238 700.0 236.2777554814238 L 700.0 222.7006244903896 C 630.0 222.7006244903896 630.0 177.1768695290666 560.0 177.1768695290666 Z" fill-opacity="0.6" stroke-width="1.5" /></g><g class="column_03" id="column_03_03"><path d="M 560.0 517.9831107531209 C 630.0 517.9831107531209 630.0 423.9041469467338 700.0 423.9041469467338 L 700.0 396.8820541736204 C 630.0 396.8820541736204 630.0 490.96101798000745 560.0 490.96101798000745 Z" fill-opacity="0.6" stroke-width="1.5" /></g><g class="column_03" id="column_03_04"><path d="M 560.0 219.9385963298846 C 630.0 219.9385963298846 630.0 65.03300833166577 700.0 65.03300833166577 L 700.0 60.00000006635673 C 630.0 60.00000006635673 630.0 214.90558806457557 560.0 214.90558806457557 Z" fill-opacity="0.6" stroke-width="1.5" /></g><g class="column_03" id="column_03_05"><path d="M 560.0 156.47841499303468 C 630.0 156.47841499303468 630.0 250.04693148541264 700.0 250.04693148541264 L 700.0 246.3298916432541 C 630.0 246.3298916432541 630.0 152.76137515087612 560.0 152.76137515087612 Z" fill-opacity="0.6" stroke-width="1.5" /></g><g class="column_03" id="column_03_06"><path d="M 560.0 587.5625016877893 C 630.0 587.5625016877893 630.0 613.1304324336816 700.0 613.1304324336816 L 700.0 612.5376545952167 C 630.0 612.5376545952167 630.0 586.9697238493245 560.0 586.9697238493245 Z" fill-opacity="0.6" stroke-width="1.5" /></g><g class="column_03" id="column_03_07"><path d="M 560.0 606.8406484730076 C 630.0 606.8406484730076 630.0 518.4784928325098 700.0 518.4784928325098 L 700.0 513.9609540242236 C 630.0 513.9609540242236 630.0 602.3231096647214 560.0 602.3231096647214 Z" fill-opacity="0.6" stroke-width="1.5" /></g><g class="column_03" id="column_03_08"><path d="M 560.0 152.76137515087612 C 630.0 152.76137515087612 630.0 246.3298916432541 700.0 246.3298916432541 L 700.0 240.95227175974287 C 630.0 240.95227175974287 630.0 147.3837552673649 560.0 147.3837552673649 Z" fill-opacity="0.6" stroke-width="1.5" /></g><g class="column_03" id="column_03_09"><path d="M 560.0 363.5832324635703 C 630.0 363.5832324635703 630.0 627.9048496449832 700.0 627.9048496449832 L 700.0 613.1304324336816 C 630.0 613.1304324336816 630.0 348.8088152522687 560.0 348.8088152522687 Z" fill-opacity="0.6" stroke-width="1.5" /></g><g class="column_03" id="column_03_10"><path d="M 560.0 627.1106536395382 C 630.0 627.1106536395382 630.0 311.7410718917381 700.0 311.7410718917381 L 700.0 291.4710667252075 C 630.0 291.4710667252075 630.0 606.8406484730076 560.0 606.8406484730076 Z" fill-opacity="0.6" stroke-width="1.5" /></g><g class="column_03" id="column_03_11"><path d="M 560.0 458.21830909349956 C 630.0 458.21830909349956 630.0 484.73304478568025 700.0 484.73304478568025 L 700.0 484.15075741591863 C 630.0 484.15075741591863 630.0 457.63602172373794 560.0 457.63602172373794 Z" fill-opacity="0.6" stroke-width="1.5" /></g><g class="column_03" id="column_03_12"><path d="M 560.0 518.4982238744851 C 630.0 518.4982238744851 630.0 561.2750075489748 700.0 561.2750075489748 L 700.0 560.7598944276106 C 630.0 560.7598944276106 630.0 517.9831107531209 560.0 517.9831107531209 Z" fill-opacity="0.6" stroke-width="1.5" /></g><g class="column_03" id="column_03_13"><path d="M 560.0 426.26913609565236 C 630.0 426.26913609565236 630.0 290.7252333650831 700.0 290.7252333650831 L 700.0 289.56593610928394 C 630.0 289.56593610928394 630.0 425.1098388398532 560.0 425.1098388398532 Z" fill-opacity="0.6" stroke-width="1.5" /></g><g class="column_03" id="column_03_14"><path d="M 560.0 314.5536414545495 C 630.0 314.5536414545495 630.0 461.9840121769812 700.0 461.9840121769812 L 700.0 439.0914572530892 C 630.0 439.0914572530892 630.0 291.6610865306575 560.0 291.6610865306575 Z" fill-opacity="0.6" stroke-width="1.5" /></g><g class="column_03" id="column_03_15"><path d="M 560.0 455.4970453341957 C 630.0 455.4970453341957 630.0 513.9609540242236 700.0 513.9609540242236 L 700.0 484.73304478568025 C 630.0 484.73304478568025 630.0 426.26913609565236 560.0 426.26913609565236 Z" fill-opacity="0.6" stroke-width="1.5" /></g><g class="column_03" id="column_03_16"><path d="M 560.0 255.73950099642389 C 630.0 255.73950099642389 630.0 139.3653499998618 700.0 139.3653499998618 L 700.0 121.28678935929202 C 630.0 121.28678935929202 630.0 237.6609403558541 560.0 237.6609403558541 Z" fill-opacity="0.6" stroke-width="1.5" /></g><g class="column_03" id="column_03_17"><path d="M 560.0 602.3231096647214 C 630.0 602.3231096647214 630.0 328.5618856397923 700.0 328.5618856397923 L 700.0 313.80127766286023 C 630.0 313.80127766286023 630.0 587.5625016877893 560.0 587.5625016877893 Z" fill-opacity="0.6" stroke-width="1.5" /></g><g class="column_03" id="column_03_18"><path d="M 560.0 566.6241956956219 C 630.0 566.6241956956219 630.0 536.6578218794893 700.0 536.6578218794893 L 700.0 518.4784928325098 C 630.0 518.4784928325098 630.0 548.4448666486423 560.0 548.4448666486423 Z" fill-opacity="0.6" stroke-width="1.5" /></g><g class="column_03" id="column_03_19"><path d="M 560.0 402.94309360091574 C 630.0 402.94309360091574 630.0 578.334759286372 700.0 578.334759286372 L 700.0 570.4970038554166 C 630.0 570.4970038554166 630.0 395.1053381699603 560.0 395.1053381699603 Z" fill-opacity="0.6" stroke-width="1.5" /></g><g class="column_03" id="column_03_20"><path d="M 560.0 262.78283122577704 C 630.0 262.78283122577704 630.0 74.82421628083102 700.0 74.82421628083102 L 700.0 71.77417985745706 C 630.0 71.77417985745706 630.0 259.7327948024031 560.0 259.7327948024031 Z" fill-opacity="0.6" stroke-width="1.5" /></g><g class="column_03" id="column_03_21"><path d="M 560.0 586.9697238493245 C 630.0 586.9697238493245 630.0 560.7598944276106 700.0 560.7598944276106 L 700.0 553.7120406597387 C 630.0 553.7120406597387 630.0 579.9218700814527 560.0 579.9218700814527 Z" fill-opacity="0.6" stroke-width="1.5" /></g><g class="column_03" id="column_03_22"><path d="M 560.0 380.2423742681276 C 630.0 380.2423742681276 630.0 439.0914572530892 700.0 439.0914572530892 L 700.0 424.492521219654 C 630.0 424.492521219654 630.0 365.64343823469244 560.0 365.64343823469244 Z" fill-opacity="0.6" stroke-width="1.5" /></g><g class="column_03" id="column_03_23"><path d="M 560.0 457.63602172373794 C 630.0 457.63602172373794 630.0 612.5376545952167 700.0 612.5376545952167 L 700.0 610.3986782056745 C 630.0 610.3986782056745 630.0 455.4970453341957 560.0 455.4970453341957 Z" fill-opacity="0.6" stroke-width="1.5" /></g><g class="column_03" id="column_03_24"><path d="M 560.0 548.4448666486423 C 630.0 548.4448666486423 630.0 350.9652702708263 700.0 350.9652702708263 L 700.0 330.70539870648645 C 630.0 330.70539870648645 630.0 528.1849950843025 560.0 528.1849950843025 Z" fill-opacity="0.6" stroke-width="1.5" /></g><g class="column_03" id="column_03_25"><path d="M 560.0 291.6610865306575 C 630.0 291.6610865306575 630.0 630.0000000663567 700.0 630.0000000663567 L 700.0 627.9048496449832 C 630.0 627.9048496449832 630.0 289.56593610928394 560.0 289.56593610928394 Z" fill-opacity="0.6" stroke-width="1.5" /></g><g class="column_03" id="column_03_26"><path d="M 560.0 425.1098388398532 C 630.0 425.1098388398532 630.0 484.15075741591863 700.0 484.15075741591863 L 700.0 461.9840121769812 C 630.0 461.9840121769812 630.0 402.94309360091574 560.0 402.94309360091574 Z" fill-opacity="0.6" stroke-width="1.5" /></g><g class="column_03" id="column_03_27"><path d="M 560.0 259.7327948024031 C 630.0 259.7327948024031 630.0 103.56444533332251 700.0 103.56444533332251 L 700.0 99.57115152734332 C 630.0 99.57115152734332 630.0 255.73950099642389 560.0 255.73950099642389 Z" fill-opacity="0.6" stroke-width="1.5" /></g><g class="column_03" id="column_03_28"><path d="M 560.0 630.0000000663567 C 630.0 630.0000000663567 630.0 330.70539870648645 700.0 330.70539870648645 L 700.0 328.5618856397923 C 630.0 328.5618856397923 630.0 627.8564869996626 560.0 627.8564869996626 Z" fill-opacity="0.6" stroke-width="1.5" /></g><g class="column_03" id="column_03_29"><path d="M 560.0 579.9218700814527 C 630.0 579.9218700814527 630.0 396.8820541736204 700.0 396.8820541736204 L 700.0 383.58437978778966 C 630.0 383.58437978778966 630.0 566.6241956956219 560.0 566.6241956956219 Z" fill-opacity="0.6" stroke-width="1.5" /></g><g class="column_03" id="column_03_30"><path d="M 560.0 316.74489633296616 C 630.0 316.74489633296616 630.0 553.7120406597387 700.0 553.7120406597387 L 700.0 551.520785781322 C 630.0 551.520785781322 630.0 314.5536414545495 560.0 314.5536414545495 Z" fill-opacity="0.6" stroke-width="1.5" /></g><g class="column_03" id="column_03_31"><path d="M 560.0 365.64343823469244 C 630.0 365.64343823469244 630.0 313.80127766286023 700.0 313.80127766286023 L 700.0 311.7410718917381 C 630.0 311.7410718917381 630.0 363.5832324635703 560.0 363.5832324635703 Z" fill-opacity="0.6" stroke-width="1.5" /></g><g class="column_03" id="column_03_32"><path d="M 560.0 147.3837552673649 C 630.0 147.3837552673649 630.0 222.7006244903896 700.0 222.7006244903896 L 700.0 139.3653499998618 C 630.0 139.3653499998618 630.0 64.0484807768371 560.0 64.0484807768371 Z" fill-opacity="0.6" stroke-width="1.5" /></g><g class="column_03" id="column_03_33"><path d="M 560.0 208.16441653878428 C 630.0 208.16441653878428 630.0 262.78283122577704 700.0 262.78283122577704 L 700.0 252.2542748192791 C 630.0 252.2542748192791 630.0 197.63586013228633 560.0 197.63586013228633 Z" fill-opacity="0.6" stroke-width="1.5" /></g><g class="column_03" id="column_03_34"><path d="M 560.0 195.42851679841988 C 630.0 195.42851679841988 630.0 240.95227175974287 700.0 240.95227175974287 L 700.0 236.2777554814238 C 630.0 236.2777554814238 630.0 190.75400052010082 560.0 190.75400052010082 Z" fill-opacity="0.6" stroke-width="1.5" /></g><g class="column_03" id="column_03_35"><path d="M 560.0 64.0484807768371 C 630.0 64.0484807768371 630.0 99.57115152734332 700.0 99.57115152734332 L 700.0 95.52267081686296 C 630.0 95.52267081686296 630.0 60.00000006635673 560.0 60.00000006635673 Z" fill-opacity="0.6" stroke-width="1.5" /></g><g class="column_03" id="column_03_36"><path d="M 560.0 197.63586013228633 C 630.0 197.63586013228633 630.0 252.2542748192791 700.0 252.2542748192791 L 700.0 250.04693148541264 C 630.0 250.04693148541264 630.0 195.42851679841988 560.0 195.42851679841988 Z" fill-opacity="0.6" stroke-width="1.5" /></g><g class="column_03" id="column_03_37"><path d="M 560.0 527.5966208113823 C 630.0 527.5966208113823 630.0 360.0636672077235 700.0 360.0636672077235 L 700.0 350.9652702708263 C 630.0 350.9652702708263 630.0 518.4982238744851 560.0 518.4982238744851 Z" fill-opacity="0.6" stroke-width="1.5" /></g><g class="column_03" id="column_03_38"><path d="M 560.0 214.90558806457557 C 630.0 214.90558806457557 630.0 71.77417985745706 700.0 71.77417985745706 L 700.0 65.03300833166577 C 630.0 65.03300833166577 630.0 208.16441653878428 560.0 208.16441653878428 Z" fill-opacity="0.6" stroke-width="1.5" /></g><g class="column_03" id="column_03_39"><path d="M 560.0 627.8564869996626 C 630.0 627.8564869996626 630.0 291.4710667252075 700.0 291.4710667252075 L 700.0 290.7252333650831 C 630.0 290.7252333650831 630.0 627.1106536395382 560.0 627.1106536395382 Z" fill-opacity="0.6" stroke-width="1.5" /></g><g class="column_03" id="column_03_40"><path d="M 560.0 395.1053381699603 C 630.0 395.1053381699603 630.0 551.520785781322 700.0 551.520785781322 L 700.0 536.6578218794893 C 630.0 536.6578218794893 630.0 380.2423742681276 560.0 380.2423742681276 Z" fill-opacity="0.6" stroke-width="1.5" /></g><g class="column_03" id="column_03_41"><path d="M 560.0 490.96101798000745 C 630.0 490.96101798000745 630.0 570.4970038554166 700.0 570.4970038554166 L 700.0 561.2750075489748 C 630.0 561.2750075489748 630.0 481.73902167356573 560.0 481.73902167356573 Z" fill-opacity="0.6" stroke-width="1.5" /></g><g class="column_03" id="column_03_42"><path d="M 560.0 177.1768695290666 C 630.0 177.1768695290666 630.0 95.52267081686296 700.0 95.52267081686296 L 700.0 74.82421628083102 C 630.0 74.82421628083102 630.0 156.47841499303468 560.0 156.47841499303468 Z" fill-opacity="0.6" stroke-width="1.5" /></g><g class="column_03" id="column_03_43"><path d="M 560.0 348.8088152522687 C 630.0 348.8088152522687 630.0 610.3986782056745 700.0 610.3986782056745 L 700.0 578.334759286372 C 630.0 578.334759286372 630.0 316.74489633296616 560.0 316.74489633296616 Z" fill-opacity="0.6" stroke-width="1.5" /></g><g class="column_03" id="column_03_44"><path d="M 560.0 481.73902167356573 C 630.0 481.73902167356573 630.0 383.58437978778966 700.0 383.58437978778966 L 700.0 360.0636672077235 C 630.0 360.0636672077235 630.0 458.21830909349956 560.0 458.21830909349956 Z" fill-opacity="0.6" stroke-width="1.5" /></g></g><g id="column_04"><g class="column_04" id="column_04_00"><path d="M 700.0 390.3127479145769 C 770.0 390.3127479145769 770.0 291.6441464528907 840.0 291.6441464528907 L 840.0 238.5276381263975 C 770.0 238.5276381263975 770.0 337.1962395880837 700.0 337.1962395880837 Z" fill-opacity="0.6" stroke-width="1.5" /></g><g class="column_04" id="column_04_01"><path d="M 700.0 435.03510464332066 C 770.0 435.03510464332066 770.0 460.2589839545544 840.0 460.2589839545544 L 840.0 415.53662722581066 C 770.0 415.53662722581066 770.0 390.3127479145769 700.0 390.3127479145769 Z" fill-opacity="0.6" stroke-width="1.5" /></g><g class="column_04" id="column_04_02"><path d="M 700.0 295.72981095523573 C 770.0 295.72981095523573 770.0 356.11652132472955 840.0 356.11652132472955 L 840.0 307.3733632697258 C 770.0 307.3733632697258 770.0 246.986652900232 700.0 246.986652900232 Z" fill-opacity="0.6" stroke-width="1.5" /></g><g class="column_04" id="column_04_03"><path d="M 700.0 598.5969768266659 C 770.0 598.5969768266659 770.0 67.22896166495048 840.0 67.22896166495048 L 840.0 60.00000006635673 C 770.0 60.00000006635673 770.0 591.3680152280722 700.0 591.3680152280722 Z" fill-opacity="0.6" stroke-width="1.5" /></g><g class="column_04" id="column_04_04"><path d="M 700.0 470.5633667449001 C 770.0 470.5633667449001 770.0 134.04467613785528 840.0 134.04467613785528 L 840.0 131.28449680865742 C 770.0 131.28449680865742 770.0 467.80318741570227 700.0 467.80318741570227 Z" fill-opacity="0.6" stroke-width="1.5" /></g><g class="column_04" id="column_04_05"><path d="M 700.0 467.80318741570227 C 770.0 467.80318741570227 770.0 474.6268573484849 840.0 474.6268573484849 L 840.0 460.2589839545544 C 770.0 460.2589839545544 770.0 453.4353140217718 700.0 453.4353140217718 Z" fill-opacity="0.6" stroke-width="1.5" /></g><g class="column_04" id="column_04_06"><path d="M 700.0 453.4353140217718 C 770.0 453.4353140217718 770.0 374.51673070318066 840.0 374.51673070318066 L 840.0 356.11652132472955 C 770.0 356.11652132472955 770.0 435.03510464332066 700.0 435.03510464332066 Z" fill-opacity="0.6" stroke-width="1.5" /></g><g class="column_04" id="column_04_07"><path d="M 700.0 591.3680152280722 C 770.0 591.3680152280722 770.0 131.28449680865742 840.0 131.28449680865742 L 840.0 88.29259495600127 C 770.0 88.29259495600127 770.0 548.376113375416 700.0 548.376113375416 Z" fill-opacity="0.6" stroke-width="1.5" /></g><g class="column_04" id="column_04_08"><path d="M 700.0 337.1962395880837 C 770.0 337.1962395880837 770.0 175.51110477070324 840.0 175.51110477070324 L 840.0 134.04467613785528 C 770.0 134.04467613785528 770.0 295.72981095523573 700.0 295.72981095523573 Z" fill-opacity="0.6" stroke-width="1.5" /></g><g class="column_04" id="column_04_09"><path d="M 700.0 246.986652900232 C 770.0 246.986652900232 770.0 598.5969768266659 840.0 598.5969768266659 L 840.0 474.6268573484849 C 770.0 474.6268573484849 770.0 123.016533422051 700.0 123.016533422051 Z" fill-opacity="0.6" stroke-width="1.5" /></g><g class="column_04" id="column_04_10"><path d="M 700.0 491.6270000359509 C 770.0 491.6270000359509 770.0 80.76579381362535 840.0 80.76579381362535 L 840.0 67.22896166495048 C 770.0 67.22896166495048 770.0 478.09016788727604 700.0 478.09016788727604 Z" fill-opacity="0.6" stroke-width="1.5" /></g><g class="column_04" id="column_04_11"><path d="M 700.0 478.09016788727604 C 770.0 478.09016788727604 770.0 88.29259495600127 840.0 88.29259495600127 L 840.0 80.76579381362535 C 770.0 80.76579381362535 770.0 470.5633667449001 700.0 470.5633667449001 Z" fill-opacity="0.6" stroke-width="1.5" /></g><g class="column_04" id="column_04_12"><path d="M 700.0 548.376113375416 C 770.0 548.376113375416 770.0 307.3733632697258 840.0 307.3733632697258 L 840.0 291.6441464528907 C 770.0 291.6441464528907 770.0 532.6468965585809 700.0 532.6468965585809 Z" fill-opacity="0.6" stroke-width="1.5" /></g><g class="column_04" id="column_04_13"><path d="M 700.0 532.6468965585809 C 770.0 532.6468965585809 770.0 415.53662722581066 840.0 415.53662722581066 L 840.0 374.51673070318066 C 770.0 374.51673070318066 770.0 491.6270000359509 700.0 491.6270000359509 Z" fill-opacity="0.6" stroke-width="1.5" /></g><g class="column_04" id="column_04_14"><path d="M 700.0 123.016533422051 C 770.0 123.016533422051 770.0 238.5276381263975 840.0 238.5276381263975 L 840.0 175.51110477070324 C 770.0 175.51110477070324 770.0 60.00000006635673 700.0 60.00000006635673 Z" fill-opacity="0.6" stroke-width="1.5" /></g></g><g id="column_05"><g class="column_05" id="column_05_00"><path d="M 840.0 618.5491518198978 C 910.0 618.5491518198978 910.0 533.6648417625111 980.0 533.6648417625111 L 980.0 421.7630349320825 C 910.0 421.7630349320825 910.0 506.6473449894693 840.0 506.6473449894693 Z" fill-opacity="0.6" stroke-width="1.5" /></g><g class="column_05" id="column_05_01"><path d="M 840.0 413.5843210865278 C 910.0 413.5843210865278 910.0 127.98241375596263 980.0 127.98241375596263 L 980.0 114.76241656229831 C 910.0 114.76241656229831 910.0 400.36432389286347 840.0 400.36432389286347 Z" fill-opacity="0.6" stroke-width="1.5" /></g><g class="column_05" id="column_05_02"><path d="M 840.0 260.1316265075002 C 910.0 260.1316265075002 910.0 294.2656564002391 980.0 294.2656564002391 L 980.0 248.16196774248965 C 910.0 248.16196774248965 910.0 214.02793784975074 840.0 214.02793784975074 Z" fill-opacity="0.6" stroke-width="1.5" /></g><g class="column_05" id="column_05_03"><path d="M 840.0 356.6711051564198 C 910.0 356.6711051564198 910.0 338.57336317305453 980.0 338.57336317305453 L 980.0 326.7333366663661 C 910.0 326.7333366663661 910.0 344.83107864973135 840.0 344.83107864973135 Z" fill-opacity="0.6" stroke-width="1.5" /></g><g class="column_05" id="column_05_04"><path d="M 840.0 342.2530088725034 C 910.0 342.2530088725034 910.0 223.61710016266443 980.0 223.61710016266443 L 980.0 211.5992710541468 C 910.0 211.5992710541468 910.0 330.2351797639858 840.0 330.2351797639858 Z" fill-opacity="0.6" stroke-width="1.5" /></g><g class="column_05" id="column_05_05"><path d="M 840.0 214.02793784975074 C 910.0 214.02793784975074 910.0 400.3432073222939 980.0 400.3432073222939 L 980.0 338.57336317305453 C 910.0 338.57336317305453 910.0 152.25809370051138 840.0 152.25809370051138 Z" fill-opacity="0.6" stroke-width="1.5" /></g><g class="column_05" id="column_05_06"><path d="M 840.0 273.14365187776275 C 910.0 273.14365187776275 910.0 236.629125532927 980.0 236.629125532927 L 980.0 223.61710016266443 C 910.0 223.61710016266443 910.0 260.1316265075002 840.0 260.1316265075002 Z" fill-opacity="0.6" stroke-width="1.5" /></g><g class="column_05" id="column_05_07"><path d="M 840.0 316.9940659997519 C 910.0 316.9940659997519 910.0 326.7333366663661 980.0 326.7333366663661 L 980.0 324.9858307640534 C 910.0 324.9858307640534 910.0 315.2465600974392 840.0 315.2465600974392 Z" fill-opacity="0.6" stroke-width="1.5" /></g><g class="column_05" id="column_05_08"><path d="M 840.0 115.6078965018969 C 910.0 115.6078965018969 910.0 248.16196774248965 980.0 248.16196774248965 L 980.0 239.95921962079592 C 910.0 239.95921962079592 910.0 107.40514838020317 840.0 107.40514838020317 Z" fill-opacity="0.6" stroke-width="1.5" /></g><g class="column_05" id="column_05_09"><path d="M 840.0 506.6473449894693 C 910.0 506.6473449894693 910.0 630.0000000663567 980.0 630.0000000663567 L 980.0 545.11569000897 C 910.0 545.11569000897 910.0 421.7630349320825 840.0 421.7630349320825 Z" fill-opacity="0.6" stroke-width="1.5" /></g><g class="column_05" id="column_05_10"><path d="M 840.0 344.83107864973135 C 910.0 344.83107864973135 910.0 167.5242168281693 980.0 167.5242168281693 L 980.0 164.94614705094136 C 910.0 164.94614705094136 910.0 342.2530088725034 840.0 342.2530088725034 Z" fill-opacity="0.6" stroke-width="1.5" /></g><g class="column_05" id="column_05_11"><path d="M 840.0 400.36432389286347 C 910.0 400.36432389286347 910.0 324.9858307640534 980.0 324.9858307640534 L 980.0 302.41739450837485 C 910.0 302.41739450837485 910.0 377.79588763718493 840.0 377.79588763718493 Z" fill-opacity="0.6" stroke-width="1.5" /></g><g class="column_05" id="column_05_12"><path d="M 840.0 630.0000000663567 C 910.0 630.0000000663567 910.0 545.11569000897 980.0 545.11569000897 L 980.0 533.6648417625111 C 910.0 533.6648417625111 910.0 618.5491518198978 840.0 618.5491518198978 Z" fill-opacity="0.6" stroke-width="1.5" /></g><g class="column_05" id="column_05_13"><path d="M 840.0 315.2465600974392 C 910.0 315.2465600974392 910.0 164.94614705094136 980.0 164.94614705094136 L 980.0 149.10719623672776 C 910.0 149.10719623672776 910.0 299.4076092832256 840.0 299.4076092832256 Z" fill-opacity="0.6" stroke-width="1.5" /></g><g class="column_05" id="column_05_14"><path d="M 840.0 152.25809370051138 C 910.0 152.25809370051138 910.0 62.59910890948959 980.0 62.59910890948959 L 980.0 60.00000006635673 C 910.0 60.00000006635673 910.0 149.65898485737853 840.0 149.65898485737853 Z" fill-opacity="0.6" stroke-width="1.5" /></g><g class="column_05" id="column_05_15"><path d="M 840.0 299.4076092832256 C 910.0 299.4076092832256 910.0 302.41739450837485 980.0 302.41739450837485 L 980.0 294.2656564002391 C 910.0 294.2656564002391 910.0 291.25587117508985 840.0 291.25587117508985 Z" fill-opacity="0.6" stroke-width="1.5" /></g><g class="column_05" id="column_05_16"><path d="M 840.0 377.79588763718493 C 910.0 377.79588763718493 910.0 149.10719623672776 980.0 149.10719623672776 L 980.0 127.98241375596263 C 910.0 127.98241375596263 910.0 356.6711051564198 840.0 356.6711051564198 Z" fill-opacity="0.6" stroke-width="1.5" /></g><g class="column_05" id="column_05_17"><path d="M 840.0 291.25587117508985 C 910.0 291.25587117508985 910.0 80.71132820681669 980.0 80.71132820681669 L 980.0 62.59910890948959 C 910.0 62.59910890948959 910.0 273.14365187776275 840.0 273.14365187776275 Z" fill-opacity="0.6" stroke-width="1.5" /></g><g class="column_05" id="column_05_18"><path d="M 840.0 144.7956139978487 C 910.0 144.7956139978487 910.0 109.89904570276849 980.0 109.89904570276849 L 980.0 80.71132820681669 C 910.0 80.71132820681669 910.0 115.6078965018969 840.0 115.6078965018969 Z" fill-opacity="0.6" stroke-width="1.5" /></g><g class="column_05" id="column_05_19"><path d="M 840.0 63.33009415422566 C 910.0 63.33009415422566 910.0 239.95921962079592 980.0 239.95921962079592 L 980.0 236.629125532927 C 910.0 236.629125532927 910.0 60.00000006635673 840.0 60.00000006635673 Z" fill-opacity="0.6" stroke-width="1.5" /></g><g class="column_05" id="column_05_20"><path d="M 840.0 149.65898485737853 C 910.0 149.65898485737853 910.0 114.76241656229831 980.0 114.76241656229831 L 980.0 109.89904570276849 C 910.0 109.89904570276849 910.0 144.7956139978487 840.0 144.7956139978487 Z" fill-opacity="0.6" stroke-width="1.5" /></g><g class="column_05" id="column_05_21"><path d="M 840.0 107.40514838020317 C 910.0 107.40514838020317 910.0 211.5992710541468 980.0 211.5992710541468 L 980.0 167.5242168281693 C 910.0 167.5242168281693 910.0 63.33009415422566 840.0 63.33009415422566 Z" fill-opacity="0.6" stroke-width="1.5" /></g><g class="column_05" id="column_05_22"><path d="M 840.0 330.2351797639858 C 910.0 330.2351797639858 910.0 413.5843210865278 980.0 413.5843210865278 L 980.0 400.3432073222939 C 910.0 400.3432073222939 910.0 316.9940659997519 840.0 316.9940659997519 Z" fill-opacity="0.6" stroke-width="1.5" /></g></g><g id="column_06"><g class="column_06" id="column_06_00"><path d="M 980.0 260.18851891276427 C 1050.0 260.18851891276427 1050.0 440.6353501731064 1120.0 440.6353501731064 L 1120.0 432.1197159856092 C 1050.0 432.1197159856092 1050.0 251.67288472526707 980.0 251.67288472526707 Z" fill-opacity="0.6" stroke-width="1.5" /></g><g class="column_06" id="column_06_01"><path d="M 980.0 360.89070289512165 C 1050.0 360.89070289512165 1050.0 412.3616709338967 1120.0 412.3616709338967 L 1120.0 315.3926290513482 C 1050.0 315.3926290513482 1050.0 263.92166101257317 980.0 263.92166101257317 Z" fill-opacity="0.6" stroke-width="1.5" /></g><g class="column_06" id="column_06_02"><path d="M 980.0 630.0000000663567 C 1050.0 630.0000000663567 1050.0 516.1863170599099 1120.0 516.1863170599099 L 1120.0 501.0308363533113 C 1050.0 501.0308363533113 1050.0 614.8445193597581 980.0 614.8445193597581 Z" fill-opacity="0.6" stroke-width="1.5" /></g><g class="column_06" id="column_06_03"><path d="M 980.0 379.4957788672764 C 1050.0 379.4957788672764 1050.0 315.3926290513482 1120.0 315.3926290513482 L 1120.0 296.78755307919346 C 1050.0 296.78755307919346 1050.0 360.89070289512165 980.0 360.89070289512165 Z" fill-opacity="0.6" stroke-width="1.5" /></g><g class="column_06" id="column_06_04"><path d="M 980.0 462.07272011437453 C 1050.0 462.07272011437453 1050.0 179.23558798036538 1120.0 179.23558798036538 L 1120.0 114.36287457472645 C 1050.0 114.36287457472645 1050.0 397.2000067087356 980.0 397.2000067087356 Z" fill-opacity="0.6" stroke-width="1.5" /></g><g class="column_06" id="column_06_05"><path d="M 980.0 251.67288472526707 C 1050.0 251.67288472526707 1050.0 432.1197159856092 1120.0 432.1197159856092 L 1120.0 412.3616709338967 C 1050.0 412.3616709338967 1050.0 231.91483967355452 980.0 231.91483967355452 Z" fill-opacity="0.6" stroke-width="1.5" /></g><g class="column_06" id="column_06_06"><path d="M 980.0 231.91483967355452 C 1050.0 231.91483967355452 1050.0 114.36287457472645 1120.0 114.36287457472645 L 1120.0 60.00000006635673 C 1050.0 60.00000006635673 1050.0 177.5519651651848 980.0 177.5519651651848 Z" fill-opacity="0.6" stroke-width="1.5" /></g><g class="column_06" id="column_06_07"><path d="M 980.0 614.8445193597581 C 1050.0 614.8445193597581 1050.0 630.0000000663567 1120.0 630.0000000663567 L 1120.0 516.1863170599099 C 1050.0 516.1863170599099 1050.0 501.0308363533113 980.0 501.0308363533113 Z" fill-opacity="0.6" stroke-width="1.5" /></g><g class="column_06" id="column_06_08"><path d="M 980.0 397.2000067087356 C 1050.0 397.2000067087356 1050.0 458.33957801456563 1120.0 458.33957801456563 L 1120.0 440.6353501731064 C 1050.0 440.6353501731064 1050.0 379.4957788672764 980.0 379.4957788672764 Z" fill-opacity="0.6" stroke-width="1.5" /></g><g class="column_06" id="column_06_09"><path d="M 980.0 177.5519651651848 C 1050.0 177.5519651651848 1050.0 296.78755307919346 1120.0 296.78755307919346 L 1120.0 179.23558798036538 C 1050.0 179.23558798036538 1050.0 60.00000006635673 980.0 60.00000006635673 Z" fill-opacity="0.6" stroke-width="1.5" /></g><g class="column_06" id="column_06_10"><path d="M 980.0 263.92166101257317 C 1050.0 263.92166101257317 1050.0 462.07272011437453 1120.0 462.07272011437453 L 1120.0 458.33957801456563 C 1050.0 458.33957801456563 1050.0 260.18851891276427 980.0 260.18851891276427 Z" fill-opacity="0.6" stroke-width="1.5" /></g></g></g><g id="grid" stroke="#5988a6" stroke-width="2"><line x1="140.0" x2="140.0" y1="40" y2="650" /><line x1="280.0" x2="280.0" y1="40" y2="650" /><line x1="420.0" x2="420.0" y1="40" y2="650" /><line x1="560.0" x2="560.0" y1="40" y2="650" /><line x1="700.0" x2="700.0" y1="40" y2="650" /><line x1="840.0" x2="840.0" y1="40" y2="650" /><line x1="980.0" x2="980.0" y1="40" y2="650" /><line x1="1120.0" x2="1120.0" y1="40" y2="650" /></g></svg>