<?xml version="1.0" encoding="utf-8" ?>
<svg baseProfile="full" height="680" version="1.1" width="1400" xmlns="http://www.w3.org/2000/svg" xmlns:ev="http://www.w3.org/2001/xml-events" xmlns:xlink="http://www.w3.org/1999/xlink"><defs><style type="text/css"><![CDATA[.column_00{opacity:1;stroke:#e3541c;fill:#e3541c}
.column_00:hover{opacity:1;}]]></style></defs><rect fill="#07273B" height="680" width="1400" x="0" y="0" /><g stroke="#5988a6" stroke-width="1.0"><line stroke-width="0.6666666666666666" x1="409.5" x2="850.5" y1="597.1153846153846" y2="597.1153846153846" /><line stroke-width="0.6666666666666666" x1="409.5" x2="850.5" y1="586.1538461538462" y2="586.1538461538462" /><line stroke-width="0.6666666666666666" x1="409.5" x2="850.5" y1="575.1923076923077" y2="575.1923076923077" /><line stroke-width="0.6666666666666666" x1="409.5" x2="850.5" y1="564.2307692307693" y2="564.2307692307693" /><line stroke-width="0.6666666666666666" x1="409.5" x2="850.5" y1="553.2692307692308" y2="553.2692307692308" /><line stroke-width="0.6666666666666666" x1="409.5" x2="850.5" y1="542.3076923076924" y2="542.3076923076924" /><line stroke-width="0.6666666666666666" x1="409.5" x2="850.5" y1="531.3461538461539" y2="531.3461538461539" /><line stroke-width="0.6666666666666666" x1="409.5" x2="850.5" y1="520.3846153846154" y2="520.3846153846154" /><line stroke-width="0.6666666666666666" x1="409.5" x2="850.5" y1="509.4230769230769" y2="509.4230769230769" /><line x1="399.0" x2="861.0" y1="608.0769230769231" y2="608.0769230769231" /><text fill="#5988a6" font-family="Fira Code" font-size="12px" font-weight="bold" stroke="none" text-anchor="end" x="396.0" y="612.0769230769231">50</text><text fill="#5988a6" font-family="Fira Code" font-size="12px" font-weight="bold" stroke="none" text-anchor="start" x="864.0" y="612.0769230769231">50</text><line stroke-width="0.6666666666666666" x1="409.5" x2="850.5" y1="487.5" y2="487.5" /><line stroke-width="0.6666666666666666" x1="409.5" x2="850.5" y1="476.53846153846155" y2="476.53846153846155" /><line stroke-width="0.6666666666666666" x1="409.5" x2="850.5" y1="465.5769230769231" y2="465.5769230769231" /><line stroke-width="0.6666666666666666" x1="409.5" x2="850.5" y1="454.61538461538464" y2="454.61538461538464" /><line stroke-width="0.6666666666666666" x1="409.5" x2="850.5" y1="443.6538461538462" y2="443.6538461538462" /><line stroke-width="0.6666666666666666" x1="409.5" x2="850.5" y1="432.69230769230774" y2="432.69230769230774" /><line stroke-width="0.6666666666666666" x1="409.5" x2="850.5" y1="421.7307692307693" y2="421.7307692307693" /><line stroke-width="0.6666666666666666" x1="409.5" x2="850.5" y1="410.76923076923083" y2="410.76923076923083" /><line stroke-width="0.6666666666666666" x1="409.5" x2="850.5" y1="399.8076923076924" y2="399.8076923076924" /><line x1="399.0" x2="861.0" y1="498.46153846153845" y2="498.46153846153845" /><text fill="#5988a6" font-family="Fira Code" font-size="12px" font-weight="bold" stroke="none" text-anchor="end" x="396.0" y="502.46153846153845">60</text><text fill="#5988a6" font-family="Fira Code" font-size="12px" font-weight="bold" stroke="none" text-anchor="start" x="864.0" y="502.46153846153845">60</text><line stroke-width="0.6666666666666666" x1="409.5" x2="850.5" y1="377.88461538461536" y2="377.88461538461536" /><line stroke-width="0.6666666666666666" x1="409.5" x2="850.5" y1="366.9230769230769" y2="366.9230769230769" /><line stroke-width="0.6666666666666666" x1="409.5" x2="850.5" y1="355.96153846153845" y2="355.96153846153845" /><line stroke-width="0.6666666666666666" x1="409.5" x2="850.5" y1="345.0" y2="345.0" /><line stroke-width="0.6666666666666666" x1="409.5" x2="850.5" y1="334.03846153846155" y2="334.03846153846155" /><line stroke-width="0.6666666666666666" x1="409.5" x2="850.5" y1="323.0769230769231" y2="323.0769230769231" /><line stroke-width="0.6666666666666666" x1="409.5" x2="850.5" y1="312.11538461538464" y2="312.11538461538464" /><line stroke-width="0.6666666666666666" x1="409.5" x2="850.5" y1="301.1538461538462" y2="301.1538461538462" /><line stroke-width="0.6666666666666666" x1="409.5" x2="850.5" y1="290.19230769230774" y2="290.19230769230774" /><line x1="399.0" x2="861.0" y1="388.8461538461539" y2="388.8461538461539" /><text fill="#5988a6" font-family="Fira Code" font-size="12px" font-weight="bold" stroke="none" text-anchor="end" x="396.0" y="392.8461538461539">70</text><text fill="#5988a6" font-family="Fira Code" font-size="12px" font-weight="bold" stroke="none" text-anchor="start" x="864.0" y="392.8461538461539">70</text><line stroke-width="0.6666666666666666" x1="409.5" x2="850.5" y1="268.26923076923083" y2="268.26923076923083" /><line stroke-width="0.6666666666666666" x1="409.5" x2="850.5" y1="257.3076923076924" y2="257.3076923076924" /><line stroke-width="0.6666666666666666" x1="409.5" x2="850.5" y1="246.34615384615392" y2="246.34615384615392" /><line stroke-width="0.6666666666666666" x1="409.5" x2="850.5" y1="235.38461538461536" y2="235.38461538461536" /><line stroke-width="0.6666666666666666" x1="409.5" x2="850.5" y1="224.4230769230769" y2="224.4230769230769" /><line stroke-width="0.6666666666666666" x1="409.5" x2="850.5" y1="213.46153846153845" y2="213.46153846153845" /><line stroke-width="0.6666666666666666" x1="409.5" x2="850.5" y1="202.5" y2="202.5" /><line stroke-width="0.6666666666666666" x1="409.5" x2="850.5" y1="191.53846153846155" y2="191.53846153846155" /><line stroke-width="0.6666666666666666" x1="409.5" x2="850.5" y1="180.5769230769231" y2="180.5769230769231" /><line x1="399.0" x2="861.0" y1="279.2307692307693" y2="279.2307692307693" /><text fill="#5988a6" font-family="Fira Code" font-size="12px" font-weight="bold" stroke="none" text-anchor="end" x="396.0" y="283.2307692307693">80</text><text fill="#5988a6" font-family="Fira Code" font-size="12px" font-weight="bold" stroke="none" text-anchor="start" x="864.0" y="283.2307692307693">80</text><line stroke-width="0.6666666666666666" x1="409.5" x2="850.5" y1="158.6538461538462" y2="158.6538461538462" /><line stroke-width="0.6666666666666666" x1="409.5" x2="850.5" y1="147.69230769230774" y2="147.69230769230774" /><line stroke-width="0.6666666666666666" x1="409.5" x2="850.5" y1="136.73076923076928" y2="136.73076923076928" /><line stroke-width="0.6666666666666666" x1="409.5" x2="850.5" y1="125.76923076923072" y2="125.76923076923072" /><line stroke-width="0.6666666666666666" x1="409.5" x2="850.5" y1="114.80769230769238" y2="114.80769230769238" /><line stroke-width="0.6666666666666666" x1="409.5" x2="850.5" y1="103.84615384615381" y2="103.84615384615381" /><line stroke-width="0.6666666666666666" x1="409.5" x2="850.5" y1="92.88461538461547" y2="92.88461538461547" /><line stroke-width="0.6666666666666666" x1="409.5" x2="850.5" y1="81.9230769230769" y2="81.9230769230769" /><line stroke-width="0.6666666666666666" x1="409.5" x2="850.5" y1="70.96153846153857" y2="70.96153846153857" /><line x1="399.0" x2="861.0" y1="169.61538461538464" y2="169.61538461538464" /><text fill="#5988a6" font-family="Fira Code" font-size="12px" font-weight="bold" stroke="none" text-anchor="end" x="396.0" y="173.61538461538464">90</text><text fill="#5988a6" font-family="Fira Code" font-size="12px" font-weight="bold" stroke="none" text-anchor="start" x="864.0" y="173.61538461538464">90</text><line x1="399.0" x2="861.0" y1="60.0" y2="60.0" /><text fill="#5988a6" font-family="Fira Code" font-size="12px" font-weight="bold" stroke="none" text-anchor="end" x="396.0" y="64.0">100</text><text fill="#5988a6" font-family="Fira Code" font-size="12px" font-weight="bold" stroke="none" text-anchor="start" x="864.0" y="64.0">100</text></g><text fill="#FFD700" font-family="Fira Code" font-size="16px" font-weight="bold" stroke="none" text-anchor="middle" x="630.0" y="20.0">The first map</text><g><text fill="#4ce5e6" font-family="Fira Code" font-size="14px" font-weight="bold" stroke="none" text-anchor="middle" x="420.0" y="665.0">Seed</text><text fill="#6aff98" font-family="Fira Code" font-size="14px" font-weight="bold" stroke="none" text-anchor="middle" x="840.0" y="665.0">Soil</text></g><g id="shifters"><g id="column_00"><g class="column_00" id="column_00_00"><path d="M 420.0 87.40384615384619 C 560.0 87.40384615384619 700.0 613.5576923076924 840.0 613.5576923076924 L 840.0 591.6346153846154 C 700.0 591.6346153846154 560.0 65.48076923076928 420.0 65.48076923076928 Z" fill-opacity="0.6" stroke-width="1.5" /></g><g class="column_00" id="column_00_01"><path d="M 420.0 613.5576923076924 C 560.0 613.5576923076924 700.0 591.6346153846154 840.0 591.6346153846154 L 840.0 65.48076923076928 C 700.0 65.48076923076928 560.0 87.40384615384619 420.0 87.40384615384619 Z" fill-opacity="0.6" stroke-width="1.5" /></g></g></g><g id="grid" stroke="#5988a6" stroke-width="2"><line x1="420.0" x2="420.0" y1="40" y2="650" /><line x1="840.0" x2="840.0" y1="40" y2="650" /></g></svg>