<?xml version="1.0" encoding="utf-8" ?>
<svg baseProfile="full" height="680" version="1.1" width="1400" xmlns="http://www.w3.org/2000/svg" xmlns:ev="http://www.w3.org/2001/xml-events" xmlns:xlink="http://www.w3.org/1999/xlink"><defs><style type="text/css"><![CDATA[.curve_00{stroke:#4ce5e6;opacity:0.3;}
.curve_00:hover{opacity:1;}]]></style><style type="text/css"><![CDATA[.curve_01{stroke:#b2ff5a;opacity:0.3;}
.curve_01:hover{opacity:1;}]]></style><style type="text/css"><![CDATA[.curve_02{stroke:#ff807f;opacity:0.3;}
.curve_02:hover{opacity:1;}]]></style><style type="text/css"><![CDATA[.curve_03{stroke:#b35aff;opacity:0.3;}
.curve_03:hover{opacity:1;}]]></style><marker id="arrowhead" markerHeight="3" markerWidth="3" orient="auto" refX="5" refY="5" viewBox="0 0 10 10"><path d="M 0 0 L 10 5 L 0 10 Z" fill="#b35aff" stroke-width="0" /></marker></defs><text fill="#FFD700" font-family="Fira Code" font-size="16px" font-weight="bold" text-anchor="middle" x="630.0" y="20.0">All trajectories</text><g><text fill="#4ce5e6" font-family="Fira Code" font-size="14px" font-weight="bold" text-anchor="middle" x="140.0" y="665.0">Seed</text><text fill="#6aff98" font-family="Fira Code" font-size="14px" font-weight="bold" text-anchor="middle" x="280.0" y="665.0">Soil</text><text fill="#b2ff5a" font-family="Fira Code" font-size="14px" font-weight="bold" text-anchor="middle" x="420.0" y="665.0">Fertilizer</text><text fill="#fbcd50" font-family="Fira Code" font-size="14px" font-weight="bold" text-anchor="middle" x="560.0" y="665.0">Water</text><text fill="#ff807f" font-family="Fira Code" font-size="14px" font-weight="bold" text-anchor="middle" x="700.0" y="665.0">Light</text><text fill="#fb50cd" font-family="Fira Code" font-size="14px" font-weight="bold" text-anchor="middle" x="840.0" y="665.0">Temperature</text><text fill="#b35aff" font-family="Fira Code" font-size="14px" font-weight="bold" text-anchor="middle" x="980.0" y="665.0">Humidity</text><text fill="#6a98ff" font-family="Fira Code" font-size="14px" font-weight="bold" text-anchor="middle" x="1120.0" y="665.0">Location</text></g><g id="grid" stroke="#5988a6" stroke-width="2"><line x1="140.0" x2="140.0" y1="40" y2="650" /><line x1="280.0" x2="280.0" y1="40" y2="650" /><line x1="420.0" x2="420.0" y1="40" y2="650" /><line x1="560.0" x2="560.0" y1="40" y2="650" /><line x1="700.0" x2="700.0" y1="40" y2="650" /><line x1="840.0" x2="840.0" y1="40" y2="650" /><line x1="980.0" x2="980.0" y1="40" y2="650" /><line x1="1120.0" x2="1120.0" y1="40" y2="650" /></g><g class="curve_00"><path d="M 140.0 114.65753424657532 C 186.66666666666666 114.65753424657532 233.33333333333334 99.04109589041093 280.0 99.04109589041093 C 326.66666666666663 99.04109589041093 373.33333333333337 99.04109589041093 420.0 99.04109589041093 C 466.6666666666667 99.04109589041093 513.3333333333333 99.04109589041093 560.0 99.04109589041093 C 606.6666666666667 99.04109589041093 653.3333333333333 153.69863013698625 700.0 153.69863013698625 C 746.6666666666666 153.69863013698625 793.3333333333334 122.46575342465758 840.0 122.46575342465758 C 886.6666666666666 122.46575342465758 933.3333333333334 122.46575342465758 980.0 122.46575342465758 C 1026.6666666666665 122.46575342465758 1073.3333333333335 91.23287671232879 1120.0 91.23287671232879" fill="none" stroke="#4ce5e6" stroke-linecap="round" stroke-width="10" /></g><g class="curve_01"><path d="M 140.0 622.1917808219179 C 186.66666666666666 622.1917808219179 233.33333333333334 622.1917808219179 280.0 622.1917808219179 C 326.66666666666663 622.1917808219179 373.33333333333337 317.67123287671234 420.0 317.67123287671234 C 466.6666666666667 317.67123287671234 513.3333333333333 348.9041095890411 560.0 348.9041095890411 C 606.6666666666667 348.9041095890411 653.3333333333333 403.56164383561645 700.0 403.56164383561645 C 746.6666666666666 403.56164383561645 793.3333333333334 403.56164383561645 840.0 403.56164383561645 C 886.6666666666666 403.56164383561645 933.3333333333334 395.75342465753425 980.0 395.75342465753425 C 1026.6666666666665 395.75342465753425 1073.3333333333335 395.75342465753425 1120.0 395.75342465753425" fill="none" stroke="#b2ff5a" stroke-linecap="round" stroke-width="10" /></g><g class="curve_02"><path d="M 140.0 302.05479452054794 C 186.66666666666666 302.05479452054794 233.33333333333334 286.43835616438355 280.0 286.43835616438355 C 326.66666666666663 286.43835616438355 373.33333333333337 286.43835616438355 420.0 286.43835616438355 C 466.6666666666667 286.43835616438355 513.3333333333333 317.67123287671234 560.0 317.67123287671234 C 606.6666666666667 317.67123287671234 653.3333333333333 372.32876712328766 700.0 372.32876712328766 C 746.6666666666666 372.32876712328766 793.3333333333334 91.23287671232879 840.0 91.23287671232879 C 886.6666666666666 91.23287671232879 933.3333333333334 91.23287671232879 980.0 91.23287671232879 C 1026.6666666666665 91.23287671232879 1073.3333333333335 60.0 1120.0 60.0" fill="none" stroke="#ff807f" stroke-linecap="round" stroke-width="10" /></g><g class="curve_03"><path d="M 140.0 630.0 C 186.66666666666666 630.0 233.33333333333334 630.0 280.0 630.0 C 326.66666666666663 630.0 373.33333333333337 325.47945205479454 420.0 325.47945205479454 C 466.6666666666667 325.47945205479454 513.3333333333333 411.36986301369865 560.0 411.36986301369865 C 606.6666666666667 411.36986301369865 653.3333333333333 466.027397260274 700.0 466.027397260274 C 746.6666666666666 466.027397260274 793.3333333333334 466.027397260274 840.0 466.027397260274 C 886.6666666666666 466.027397260274 933.3333333333334 458.2191780821918 980.0 458.2191780821918 C 1026.6666666666665 458.2191780821918 1073.3333333333335 458.2191780821918 1120.0 458.2191780821918" fill="none" stroke="#b35aff" stroke-linecap="round" stroke-width="10" /></g><g><line marker-end="url(#arrowhead)" stroke="#b35aff" stroke-width="5" x1="1365.0" x2="1190.0" y1="458.2191780821918" y2="458.2191780821918" /><text fill="#b35aff" font-family="Fira Code" font-size="16px" font-weight="bold" text-anchor="middle" x="1277.5" y="443.2191780821918">Lowest Location</text></g></svg>