<?xml version="1.0" encoding="utf-8" ?>
<svg baseProfile="full" height="680" version="1.1" width="1400" xmlns="http://www.w3.org/2000/svg" xmlns:ev="http://www.w3.org/2001/xml-events" xmlns:xlink="http://www.w3.org/1999/xlink"><defs><style type="text/css"><![CDATA[.curve_00{stroke:#4ce5e6;opacity:1;}
.curve_00:hover{opacity:1;}]]></style></defs><g><text fill="#4ce5e6" font-family="Fira Code" font-size="14px" font-weight="bold" text-anchor="middle" x="140.0" y="665.0">Seed</text><text fill="#6aff98" font-family="Fira Code" font-size="14px" font-weight="bold" text-anchor="middle" x="280.0" y="665.0">Soil</text><text fill="#b2ff5a" font-family="Fira Code" font-size="14px" font-weight="bold" text-anchor="middle" x="420.0" y="665.0">Fertilizer</text><text fill="#fbcd50" font-family="Fira Code" font-size="14px" font-weight="bold" text-anchor="middle" x="560.0" y="665.0">Water</text><text fill="#ff807f" font-family="Fira Code" font-size="14px" font-weight="bold" text-anchor="middle" x="700.0" y="665.0">Light</text><text fill="#fb50cd" font-family="Fira Code" font-size="14px" font-weight="bold" text-anchor="middle" x="840.0" y="665.0">Temperature</text><text fill="#b35aff" font-family="Fira Code" font-size="14px" font-weight="bold" text-anchor="middle" x="980.0" y="665.0">Humidity</text><text fill="#6a98ff" font-family="Fira Code" font-size="14px" font-weight="bold" text-anchor="middle" x="1120.0" y="665.0">Location</text></g><g id="grid" stroke="#5988a6" stroke-width="2"><line x1="140.0" x2="140.0" y1="0" y2="650" /><line x1="280.0" x2="280.0" y1="0" y2="650" /><line x1="420.0" x2="420.0" y1="0" y2="650" /><line x1="560.0" x2="560.0" y1="0" y2="650" /><line x1="700.0" x2="700.0" y1="0" y2="650" /><line x1="840.0" x2="840.0" y1="0" y2="650" /><line x1="980.0" x2="980.0" y1="0" y2="650" /><line x1="1120.0" x2="1120.0" y1="0" y2="650" /></g><g class="curve_00"><line stroke-linecap="round" stroke-width="10" x1="112.0" x2="168.0" y1="78.49315068493149" y2="78.49315068493149" /><line stroke-linecap="round" stroke-width="3.0" x1="168.0" x2="252.0" y1="78.49315068493149" y2="61.780821917808225" /><line stroke-linecap="round" stroke-width="10" x1="252.0" x2="308.0" y1="61.780821917808225" y2="61.780821917808225" /><line stroke-linecap="round" stroke-width="3.0" x1="308.0" x2="392.0" y1="61.780821917808225" y2="61.780821917808225" /><line stroke-linecap="round" stroke-width="10" x1="392.0" x2="448.0" y1="61.780821917808225" y2="61.780821917808225" /><line stroke-linecap="round" stroke-width="3.0" x1="448.0" x2="532.0" y1="61.780821917808225" y2="61.780821917808225" /><line stroke-linecap="round" stroke-width="10" x1="532.0" x2="588.0" y1="61.780821917808225" y2="61.780821917808225" /><line stroke-linecap="round" stroke-width="3.0" x1="588.0" x2="672.0" y1="61.780821917808225" y2="120.27397260273972" /><line stroke-linecap="round" stroke-width="10" x1="672.0" x2="728.0" y1="120.27397260273972" y2="120.27397260273972" /><line stroke-linecap="round" stroke-width="3.0" x1="728.0" x2="812.0" y1="120.27397260273972" y2="86.84931506849318" /><line stroke-linecap="round" stroke-width="10" x1="812.0" x2="868.0" y1="86.84931506849318" y2="86.84931506849318" /><line stroke-linecap="round" stroke-width="3.0" x1="868.0" x2="952.0" y1="86.84931506849318" y2="86.84931506849318" /><line stroke-linecap="round" stroke-width="10" x1="952.0" x2="1008.0" y1="86.84931506849318" y2="86.84931506849318" /><line stroke-linecap="round" stroke-width="3.0" x1="1008.0" x2="1092.0" y1="86.84931506849318" y2="53.424657534246535" /><line stroke-linecap="round" stroke-width="10" x1="1092.0" x2="1148.0" y1="53.424657534246535" y2="53.424657534246535" /></g></svg>