<?xml version="1.0" encoding="utf-8" ?>
<svg baseProfile="full" height="680" version="1.1" width="1400" xmlns="http://www.w3.org/2000/svg" xmlns:ev="http://www.w3.org/2001/xml-events" xmlns:xlink="http://www.w3.org/1999/xlink"><defs><style type="text/css"><![CDATA[.curve_00{stroke:#4ce5e6;opacity:1;}
.curve_00:hover{opacity:1;}]]></style></defs><g><text fill="#4ce5e6" font-family="Fira Code" font-size="14px" font-weight="bold" text-anchor="middle" x="140.0" y="665.0">Seed</text><text fill="#6aff98" font-family="Fira Code" font-size="14px" font-weight="bold" text-anchor="middle" x="280.0" y="665.0">Soil</text><text fill="#b2ff5a" font-family="Fira Code" font-size="14px" font-weight="bold" text-anchor="middle" x="420.0" y="665.0">Fertilizer</text><text fill="#fbcd50" font-family="Fira Code" font-size="14px" font-weight="bold" text-anchor="middle" x="560.0" y="665.0">Water</text><text fill="#ff807f" font-family="Fira Code" font-size="14px" font-weight="bold" text-anchor="middle" x="700.0" y="665.0">Light</text><text fill="#fb50cd" font-family="Fira Code" font-size="14px" font-weight="bold" text-anchor="middle" x="840.0" y="665.0">Temperature</text><text fill="#b35aff" font-family="Fira Code" font-size="14px" font-weight="bold" text-anchor="middle" x="980.0" y="665.0">Humidity</text><text fill="#6a98ff" font-family="Fira Code" font-size="14px" font-weight="bold" text-anchor="middle" x="1120.0" y="665.0">Location</text></g><g id="grid" stroke="#5988a6" stroke-width="2"><line x1="140.0" x2="140.0" y1="0" y2="650" /><line x1="280.0" x2="280.0" y1="0" y2="650" /><line x1="420.0" x2="420.0" y1="0" y2="650" /><line x1="560.0" x2="560.0" y1="0" y2="650" /><line x1="700.0" x2="700.0" y1="0" y2="650" /><line x1="840.0" x2="840.0" y1="0" y2="650" /><line x1="980.0" x2="980.0" y1="0" y2="650" /><line x1="1120.0" x2="1120.0" y1="0" y2="650" /></g><g class="curve_00"><path d="M 140.0 78.49315068493149 C 186.66666666666666 78.49315068493149 233.33333333333334 61.780821917808225 280.0 61.780821917808225 C 326.66666666666663 61.780821917808225 373.33333333333337 61.780821917808225 420.0 61.780821917808225 C 466.6666666666667 61.780821917808225 513.3333333333333 61.780821917808225 560.0 61.780821917808225 C 606.6666666666667 61.780821917808225 653.3333333333333 120.27397260273972 700.0 120.27397260273972 C 746.6666666666666 120.27397260273972 793.3333333333334 86.84931506849318 840.0 86.84931506849318 C 886.6666666666666 86.84931506849318 933.3333333333334 86.84931506849318 980.0 86.84931506849318 C 1026.6666666666665 86.84931506849318 1073.3333333333335 53.424657534246535 1120.0 53.424657534246535" fill="none" stroke="#4ce5e6" stroke-linecap="round" stroke-width="10" /></g></svg>