<?xml version="1.0" encoding="utf-8" ?>
<svg baseProfile="full" height="680" version="1.1" width="1400" xmlns="http://www.w3.org/2000/svg" xmlns:ev="http://www.w3.org/2001/xml-events" xmlns:xlink="http://www.w3.org/1999/xlink"><defs><style type="text/css"><![CDATA[.column_00{opacity:0.3;stroke:#4ce5e6;fill:#4ce5e6}
.column_00:hover{opacity:1;}]]></style><style type="text/css"><![CDATA[.column_01{opacity:0.3;stroke:#6aff98;fill:#6aff98}
.column_01:hover{opacity:1;}]]></style><style type="text/css"><![CDATA[.column_02{opacity:0.3;stroke:#b2ff5a;fill:#b2ff5a}
.column_02:hover{opacity:1;}]]></style><style type="text/css"><![CDATA[.column_03{opacity:0.3;stroke:#fbcd50;fill:#fbcd50}
.column_03:hover{opacity:1;}]]></style><style type="text/css"><![CDATA[.column_04{opacity:0.3;stroke:#ff807f;fill:#ff807f}
.column_04:hover{opacity:1;}]]></style><style type="text/css"><![CDATA[.column_05{opacity:0.3;stroke:#fb50cd;fill:#fb50cd}
.column_05:hover{opacity:1;}]]></style><style type="text/css"><![CDATA[.column_06{opacity:0.3;stroke:#b35aff;fill:#b35aff}
.column_06:hover{opacity:1;}]]></style></defs><rect fill="#07273B" height="680" width="1400" x="0" y="0" /><g stroke="#5988a6" stroke-width="1.0"><line x1="133.0" x2="1127.0" y1="630.0" y2="630.0" /><text fill="#5988a6" font-family="Fira Code" font-size="12px" font-weight="bold" stroke="none" text-anchor="end" x="130.0" y="634.0">0</text><text fill="#5988a6" font-family="Fira Code" font-size="12px" font-weight="bold" stroke="none" text-anchor="start" x="1130.0" y="634.0">0</text><line x1="133.0" x2="1127.0" y1="573.0" y2="573.0" /><text fill="#5988a6" font-family="Fira Code" font-size="12px" font-weight="bold" stroke="none" text-anchor="end" x="130.0" y="577.0">10</text><text fill="#5988a6" font-family="Fira Code" font-size="12px" font-weight="bold" stroke="none" text-anchor="start" x="1130.0" y="577.0">10</text><line x1="133.0" x2="1127.0" y1="516.0" y2="516.0" /><text fill="#5988a6" font-family="Fira Code" font-size="12px" font-weight="bold" stroke="none" text-anchor="end" x="130.0" y="520.0">20</text><text fill="#5988a6" font-family="Fira Code" font-size="12px" font-weight="bold" stroke="none" text-anchor="start" x="1130.0" y="520.0">20</text><line x1="133.0" x2="1127.0" y1="459.0" y2="459.0" /><text fill="#5988a6" font-family="Fira Code" font-size="12px" font-weight="bold" stroke="none" text-anchor="end" x="130.0" y="463.0">30</text><text fill="#5988a6" font-family="Fira Code" font-size="12px" font-weight="bold" stroke="none" text-anchor="start" x="1130.0" y="463.0">30</text><line x1="133.0" x2="1127.0" y1="402.0" y2="402.0" /><text fill="#5988a6" font-family="Fira Code" font-size="12px" font-weight="bold" stroke="none" text-anchor="end" x="130.0" y="406.0">40</text><text fill="#5988a6" font-family="Fira Code" font-size="12px" font-weight="bold" stroke="none" text-anchor="start" x="1130.0" y="406.0">40</text><line x1="133.0" x2="1127.0" y1="345.0" y2="345.0" /><text fill="#5988a6" font-family="Fira Code" font-size="12px" font-weight="bold" stroke="none" text-anchor="end" x="130.0" y="349.0">50</text><text fill="#5988a6" font-family="Fira Code" font-size="12px" font-weight="bold" stroke="none" text-anchor="start" x="1130.0" y="349.0">50</text><line x1="133.0" x2="1127.0" y1="288.0" y2="288.0" /><text fill="#5988a6" font-family="Fira Code" font-size="12px" font-weight="bold" stroke="none" text-anchor="end" x="130.0" y="292.0">60</text><text fill="#5988a6" font-family="Fira Code" font-size="12px" font-weight="bold" stroke="none" text-anchor="start" x="1130.0" y="292.0">60</text><line x1="133.0" x2="1127.0" y1="231.0" y2="231.0" /><text fill="#5988a6" font-family="Fira Code" font-size="12px" font-weight="bold" stroke="none" text-anchor="end" x="130.0" y="235.0">70</text><text fill="#5988a6" font-family="Fira Code" font-size="12px" font-weight="bold" stroke="none" text-anchor="start" x="1130.0" y="235.0">70</text><line x1="133.0" x2="1127.0" y1="174.0" y2="174.0" /><text fill="#5988a6" font-family="Fira Code" font-size="12px" font-weight="bold" stroke="none" text-anchor="end" x="130.0" y="178.0">80</text><text fill="#5988a6" font-family="Fira Code" font-size="12px" font-weight="bold" stroke="none" text-anchor="start" x="1130.0" y="178.0">80</text><line x1="133.0" x2="1127.0" y1="117.0" y2="117.0" /><text fill="#5988a6" font-family="Fira Code" font-size="12px" font-weight="bold" stroke="none" text-anchor="end" x="130.0" y="121.0">90</text><text fill="#5988a6" font-family="Fira Code" font-size="12px" font-weight="bold" stroke="none" text-anchor="start" x="1130.0" y="121.0">90</text><line x1="133.0" x2="1127.0" y1="60.0" y2="60.0" /><text fill="#5988a6" font-family="Fira Code" font-size="12px" font-weight="bold" stroke="none" text-anchor="end" x="130.0" y="64.0">100</text><text fill="#5988a6" font-family="Fira Code" font-size="12px" font-weight="bold" stroke="none" text-anchor="start" x="1130.0" y="64.0">100</text></g><text fill="#FFD700" font-family="Fira Code" font-size="16px" font-weight="bold" stroke="none" text-anchor="middle" x="630.0" y="20.0">The maps and their shifters</text><g><text fill="#4ce5e6" font-family="Fira Code" font-size="14px" font-weight="bold" stroke="none" text-anchor="middle" x="140.0" y="665.0">Seed</text><text fill="#6aff98" font-family="Fira Code" font-size="14px" font-weight="bold" stroke="none" text-anchor="middle" x="280.0" y="665.0">Soil</text><text fill="#b2ff5a" font-family="Fira Code" font-size="14px" font-weight="bold" stroke="none" text-anchor="middle" x="420.0" y="665.0">Fertilizer</text><text fill="#fbcd50" font-family="Fira Code" font-size="14px" font-weight="bold" stroke="none" text-anchor="middle" x="560.0" y="665.0">Water</text><text fill="#ff807f" font-family="Fira Code" font-size="14px" font-weight="bold" stroke="none" text-anchor="middle" x="700.0" y="665.0">Light</text><text fill="#fb50cd" font-family="Fira Code" font-size="14px" font-weight="bold" stroke="none" text-anchor="middle" x="840.0" y="665.0">Temperature</text><text fill="#b35aff" font-family="Fira Code" font-size="14px" font-weight="bold" stroke="none" text-anchor="middle" x="980.0" y="665.0">Humidity</text><text fill="#6a98ff" font-family="Fira Code" font-size="14px" font-weight="bold" stroke="none" text-anchor="middle" x="1120.0" y="665.0">Location</text></g><g id="shifters"><g id="column_00"><g class="column_00" id="column_00_00"><path d="M 140.0 74.25 C 210.0 74.25 210.0 347.84999999999997 280.0 347.84999999999997 L 280.0 336.45 C 210.0 336.45 210.0 62.85000000000002 140.0 62.85000000000002 Z" fill-opacity="0.6" stroke-width="1.5" /></g><g class="column_00" id="column_00_01"><path d="M 140.0 347.84999999999997 C 210.0 347.84999999999997 210.0 336.45 280.0 336.45 L 280.0 62.85000000000002 C 210.0 62.85000000000002 210.0 74.25 140.0 74.25 Z" fill-opacity="0.6" stroke-width="1.5" /></g></g><g id="column_01"><g class="column_01" id="column_01_00"><path d="M 280.0 547.35 C 350.0 547.35 350.0 632.85 420.0 632.85 L 420.0 421.95 C 350.0 421.95 350.0 336.45 280.0 336.45 Z" fill-opacity="0.6" stroke-width="1.5" /></g><g class="column_01" id="column_01_01"><path d="M 280.0 336.45 C 350.0 336.45 350.0 421.95 420.0 421.95 L 420.0 410.54999999999995 C 350.0 410.54999999999995 350.0 325.05 280.0 325.05 Z" fill-opacity="0.6" stroke-width="1.5" /></g><g class="column_01" id="column_01_02"><path d="M 280.0 632.85 C 350.0 632.85 350.0 410.54999999999995 420.0 410.54999999999995 L 420.0 325.05 C 350.0 325.05 350.0 547.35 280.0 547.35 Z" fill-opacity="0.6" stroke-width="1.5" /></g></g><g id="column_02"><g class="column_02" id="column_02_00"><path d="M 420.0 330.75 C 490.0 330.75 490.0 353.55 560.0 353.55 L 560.0 307.95 C 490.0 307.95 490.0 285.15 420.0 285.15 Z" fill-opacity="0.6" stroke-width="1.5" /></g><g class="column_02" id="column_02_01"><path d="M 420.0 570.15 C 490.0 570.15 490.0 632.85 560.0 632.85 L 560.0 393.45 C 490.0 393.45 490.0 330.75 420.0 330.75 Z" fill-opacity="0.6" stroke-width="1.5" /></g><g class="column_02" id="column_02_02"><path d="M 420.0 632.85 C 490.0 632.85 490.0 393.45 560.0 393.45 L 560.0 353.55 C 490.0 353.55 490.0 592.95 420.0 592.95 Z" fill-opacity="0.6" stroke-width="1.5" /></g><g class="column_02" id="column_02_03"><path d="M 420.0 592.95 C 490.0 592.95 490.0 307.95 560.0 307.95 L 560.0 285.15 C 490.0 285.15 490.0 570.15 420.0 570.15 Z" fill-opacity="0.6" stroke-width="1.5" /></g></g><g id="column_03"><g class="column_03" id="column_03_00"><path d="M 560.0 530.25 C 630.0 530.25 630.0 131.25 700.0 131.25 L 700.0 91.35000000000002 C 630.0 91.35000000000002 630.0 490.35 560.0 490.35 Z" fill-opacity="0.6" stroke-width="1.5" /></g><g class="column_03" id="column_03_01"><path d="M 560.0 490.35 C 630.0 490.35 630.0 530.25 700.0 530.25 L 700.0 131.25 C 630.0 131.25 630.0 91.35000000000002 560.0 91.35000000000002 Z" fill-opacity="0.6" stroke-width="1.5" /></g></g><g id="column_04"><g class="column_04" id="column_04_00"><path d="M 700.0 193.95 C 770.0 193.95 770.0 376.35 840.0 376.35 L 840.0 245.25 C 770.0 245.25 770.0 62.85000000000002 700.0 62.85000000000002 Z" fill-opacity="0.6" stroke-width="1.5" /></g><g class="column_04" id="column_04_01"><path d="M 700.0 376.35 C 770.0 376.35 770.0 171.14999999999998 840.0 171.14999999999998 L 840.0 62.85000000000002 C 770.0 62.85000000000002 770.0 268.05 700.0 268.05 Z" fill-opacity="0.6" stroke-width="1.5" /></g><g class="column_04" id="column_04_02"><path d="M 700.0 268.05 C 770.0 268.05 770.0 245.25 840.0 245.25 L 840.0 171.14999999999998 C 770.0 171.14999999999998 770.0 193.95 700.0 193.95 Z" fill-opacity="0.6" stroke-width="1.5" /></g></g><g id="column_05"><g class="column_05" id="column_05_00"><path d="M 840.0 239.55 C 910.0 239.55 910.0 632.85 980.0 632.85 L 980.0 627.15 C 910.0 627.15 910.0 233.84999999999997 840.0 233.84999999999997 Z" fill-opacity="0.6" stroke-width="1.5" /></g><g class="column_05" id="column_05_01"><path d="M 840.0 632.85 C 910.0 632.85 910.0 627.15 980.0 627.15 L 980.0 233.84999999999997 C 910.0 233.84999999999997 910.0 239.55 840.0 239.55 Z" fill-opacity="0.6" stroke-width="1.5" /></g></g><g id="column_06"><g class="column_06" id="column_06_00"><path d="M 980.0 313.65 C 1050.0 313.65 1050.0 290.84999999999997 1120.0 290.84999999999997 L 1120.0 79.94999999999993 C 1050.0 79.94999999999993 1050.0 102.75 980.0 102.75 Z" fill-opacity="0.6" stroke-width="1.5" /></g><g class="column_06" id="column_06_01"><path d="M 980.0 102.75 C 1050.0 102.75 1050.0 313.65 1120.0 313.65 L 1120.0 290.84999999999997 C 1050.0 290.84999999999997 1050.0 79.94999999999993 980.0 79.94999999999993 Z" fill-opacity="0.6" stroke-width="1.5" /></g></g></g><g id="grid" stroke="#5988a6" stroke-width="2"><line x1="140.0" x2="140.0" y1="40" y2="650" /><line x1="280.0" x2="280.0" y1="40" y2="650" /><line x1="420.0" x2="420.0" y1="40" y2="650" /><line x1="560.0" x2="560.0" y1="40" y2="650" /><line x1="700.0" x2="700.0" y1="40" y2="650" /><line x1="840.0" x2="840.0" y1="40" y2="650" /><line x1="980.0" x2="980.0" y1="40" y2="650" /><line x1="1120.0" x2="1120.0" y1="40" y2="650" /></g></svg>