<?xml version="1.0" encoding="utf-8" ?>
<svg baseProfile="full" height="680" version="1.1" width="1400" xmlns="http://www.w3.org/2000/svg" xmlns:ev="http://www.w3.org/2001/xml-events" xmlns:xlink="http://www.w3.org/1999/xlink"><defs><style type="text/css"><![CDATA[.range_tree_recur_00{opacity:0.2;stroke:#4ce5e6;fill:#4ce5e6;stroke-width:1.5;fill-opacity:0.6;}
.range_tree_recur_00:hover{opacity:1;}]]></style><style type="text/css"><![CDATA[.range_tree_recur_01{opacity:0.2;stroke:#60ffa8;fill:#60ffa8;stroke-width:1.5;fill-opacity:0.6;}
.range_tree_recur_01:hover{opacity:1;}]]></style><style type="text/css"><![CDATA[.range_tree_recur_02{opacity:0.2;stroke:#93ff6e;fill:#93ff6e;stroke-width:1.5;fill-opacity:0.6;}
.range_tree_recur_02:hover{opacity:1;}]]></style><style type="text/css"><![CDATA[.range_tree_recur_03{opacity:0.2;stroke:#d2f74f;fill:#d2f74f;stroke-width:1.5;fill-opacity:0.6;}
.range_tree_recur_03:hover{opacity:1;}]]></style><style type="text/css"><![CDATA[.range_tree_recur_04{opacity:0.2;stroke:#ffbd55;fill:#ffbd55;stroke-width:1.5;fill-opacity:0.6;}
.range_tree_recur_04:hover{opacity:1;}]]></style><style type="text/css"><![CDATA[.range_tree_recur_05{opacity:0.2;stroke:#ff807f;fill:#ff807f;stroke-width:1.5;fill-opacity:0.6;}
.range_tree_recur_05:hover{opacity:1;}]]></style><style type="text/css"><![CDATA[.range_tree_recur_06{opacity:0.2;stroke:#ff55bd;fill:#ff55bd;stroke-width:1.5;fill-opacity:0.6;}
.range_tree_recur_06:hover{opacity:1;}]]></style><style type="text/css"><![CDATA[.range_tree_recur_07{opacity:0.2;stroke:#d24ff7;fill:#d24ff7;stroke-width:1.5;fill-opacity:0.6;}
.range_tree_recur_07:hover{opacity:1;}]]></style><style type="text/css"><![CDATA[.range_tree_recur_08{opacity:0.2;stroke:#936eff;fill:#936eff;stroke-width:1.5;fill-opacity:0.6;}
.range_tree_recur_08:hover{opacity:1;}]]></style><style type="text/css"><![CDATA[.range_tree_recur_09{opacity:0.2;stroke:#60a8ff;fill:#60a8ff;stroke-width:1.5;fill-opacity:0.6;}
.range_tree_recur_09:hover{opacity:1;}]]></style></defs><rect fill="#07273B" height="680" width="1400" x="0" y="0" /><text fill="#FFD700" font-family="Fira Code" font-size="16px" font-weight="bold" stroke="none" text-anchor="middle" x="630.0" y="20.0">Visualizing all the trees</text><g><text fill="#4ce5e6" font-family="Fira Code" font-size="14px" font-weight="bold" stroke="none" text-anchor="middle" x="140.0" y="665.0">Seed</text><text fill="#6aff98" font-family="Fira Code" font-size="14px" font-weight="bold" stroke="none" text-anchor="middle" x="280.0" y="665.0">Soil</text><text fill="#b2ff5a" font-family="Fira Code" font-size="14px" font-weight="bold" stroke="none" text-anchor="middle" x="420.0" y="665.0">Fertilizer</text><text fill="#fbcd50" font-family="Fira Code" font-size="14px" font-weight="bold" stroke="none" text-anchor="middle" x="560.0" y="665.0">Water</text><text fill="#ff807f" font-family="Fira Code" font-size="14px" font-weight="bold" stroke="none" text-anchor="middle" x="700.0" y="665.0">Light</text><text fill="#fb50cd" font-family="Fira Code" font-size="14px" font-weight="bold" stroke="none" text-anchor="middle" x="840.0" y="665.0">Temperature</text><text fill="#b35aff" font-family="Fira Code" font-size="14px" font-weight="bold" stroke="none" text-anchor="middle" x="980.0" y="665.0">Humidity</text><text fill="#6a98ff" font-family="Fira Code" font-size="14px" font-weight="bold" stroke="none" text-anchor="middle" x="1120.0" y="665.0">Location</text></g><g id="grid" stroke="#5988a6" stroke-width="2"><line x1="140.0" x2="140.0" y1="40" y2="650" /><line x1="280.0" x2="280.0" y1="40" y2="650" /><line x1="420.0" x2="420.0" y1="40" y2="650" /><line x1="560.0" x2="560.0" y1="40" y2="650" /><line x1="700.0" x2="700.0" y1="40" y2="650" /><line x1="840.0" x2="840.0" y1="40" y2="650" /><line x1="980.0" x2="980.0" y1="40" y2="650" /><line x1="1120.0" x2="1120.0" y1="40" y2="650" /></g><g id="range_trees"><g class="range_tree_recur_00"><path d="M 140.0 67.39216233487241 C 186.66666666666666 67.39216233487241 233.33333333333334 265.24432098143734 280.0 265.24432098143734 L 280.0 262.52876390120946 C 233.33333333333334 262.52876390120946 186.66666666666666 64.67660525464453 140.0 64.67660525464453 Z" /><g class="range_tree_recur_00"><path d="M 280.0 265.24432098143734 C 326.66666666666663 265.24432098143734 373.33333333333337 63.652209910796955 420.0 63.652209910796955 L 420.0 60.936652830569074 C 373.33333333333337 60.936652830569074 326.66666666666663 262.52876390120946 280.0 262.52876390120946 Z" /><g class="range_tree_recur_00"><path d="M 420.0 63.652209910796955 C 466.6666666666667 63.652209910796955 513.3333333333333 74.60589957539923 560.0 74.60589957539923 L 560.0 71.89034249517135 C 513.3333333333333 71.89034249517135 466.6666666666667 60.936652830569074 420.0 60.936652830569074 Z" /><g class="range_tree_recur_00"><path d="M 560.0 74.60589957539923 C 606.6666666666667 74.60589957539923 653.3333333333333 149.92276879842393 700.0 149.92276879842393 L 700.0 147.20721171819605 C 653.3333333333333 147.20721171819605 606.6666666666667 71.89034249517135 560.0 71.89034249517135 Z" /><g class="range_tree_recur_00"><path d="M 700.0 149.92276879842393 C 746.6666666666666 149.92276879842393 793.3333333333334 501.53309272485785 840.0 501.53309272485785 L 840.0 498.81753564462997 C 793.3333333333334 498.81753564462997 746.6666666666666 147.20721171819605 700.0 147.20721171819605 Z" /><g class="range_tree_recur_00"><path d="M 840.0 501.53309272485785 C 886.6666666666666 501.53309272485785 933.3333333333334 624.8857478017453 980.0 624.8857478017453 L 980.0 622.1701907215174 C 933.3333333333334 622.1701907215174 886.6666666666666 498.81753564462997 840.0 498.81753564462997 Z" /><g class="range_tree_recur_00"><path d="M 980.0 624.8857478017453 C 1026.6666666666665 624.8857478017453 1073.3333333333335 511.0720647952985 1120.0 511.0720647952985 L 1120.0 508.3565077150706 C 1073.3333333333335 508.3565077150706 1026.6666666666665 622.1701907215174 980.0 622.1701907215174 Z" /></g></g></g></g></g></g></g><g class="range_tree_recur_01"><path d="M 140.0 261.622423423687 C 186.66666666666666 261.622423423687 233.33333333333334 370.0224586890545 280.0 370.0224586890545 L 280.0 363.0695298209321 C 233.33333333333334 363.0695298209321 186.66666666666666 254.6694945555646 140.0 254.6694945555646 Z" /><g class="range_tree_recur_01"><path d="M 280.0 370.0224586890545 C 326.66666666666663 370.0224586890545 373.33333333333337 419.94141253991984 420.0 419.94141253991984 L 420.0 412.98848367179744 C 373.33333333333337 412.98848367179744 326.66666666666663 363.0695298209321 280.0 363.0695298209321 Z" /><g class="range_tree_recur_01"><path d="M 420.0 419.94141253991984 C 466.6666666666667 419.94141253991984 513.3333333333333 459.04353536549024 560.0 459.04353536549024 L 560.0 452.09060649736784 C 513.3333333333333 452.09060649736784 466.6666666666667 412.98848367179744 420.0 412.98848367179744 Z" /><g class="range_tree_recur_01"><path d="M 560.0 459.04353536549024 C 606.6666666666667 459.04353536549024 653.3333333333333 360.88889347971417 700.0 360.88889347971417 L 700.0 360.0636672077235 C 653.3333333333333 360.0636672077235 606.6666666666667 458.21830909349956 560.0 458.21830909349956 Z" /><g class="range_tree_recur_01"><path d="M 700.0 360.88889347971417 C 746.6666666666666 360.88889347971417 793.3333333333334 262.220292018028 840.0 262.220292018028 L 840.0 261.3950657460373 C 793.3333333333334 261.3950657460373 746.6666666666666 360.0636672077235 700.0 360.0636672077235 Z" /><g class="range_tree_recur_01"><path d="M 840.0 262.220292018028 C 886.6666666666666 262.220292018028 933.3333333333334 225.70576567319222 980.0 225.70576567319222 L 980.0 224.88053940120153 C 933.3333333333334 224.88053940120153 886.6666666666666 261.3950657460373 840.0 261.3950657460373 Z" /><g class="range_tree_recur_01"><path d="M 980.0 225.70576567319222 C 1026.6666666666665 225.70576567319222 1073.3333333333335 108.15380057436414 1120.0 108.15380057436414 L 1120.0 107.32857430237345 C 1073.3333333333335 107.32857430237345 1026.6666666666665 224.88053940120153 980.0 224.88053940120153 Z" /></g></g></g></g><g class="range_tree_recur_01"><path d="M 560.0 458.21830909349956 C 606.6666666666667 458.21830909349956 653.3333333333333 484.73304478568025 700.0 484.73304478568025 L 700.0 484.15075741591863 C 653.3333333333333 484.15075741591863 606.6666666666667 457.63602172373794 560.0 457.63602172373794 Z" /><g class="range_tree_recur_01"><path d="M 700.0 484.73304478568025 C 746.6666666666666 484.73304478568025 793.3333333333334 73.87183856335469 840.0 73.87183856335469 L 840.0 73.28955119359307 C 793.3333333333334 73.28955119359307 746.6666666666666 484.15075741591863 700.0 484.15075741591863 Z" /><g class="range_tree_recur_01"><path d="M 840.0 73.87183856335469 C 886.6666666666666 73.87183856335469 933.3333333333334 178.06596123729832 980.0 178.06596123729832 L 980.0 177.4836738675367 C 933.3333333333334 177.4836738675367 886.6666666666666 73.28955119359307 840.0 73.28955119359307 Z" /><g class="range_tree_recur_01"><path d="M 980.0 178.06596123729832 C 1026.6666666666665 178.06596123729832 1073.3333333333335 60.51399613847025 1120.0 60.51399613847025 L 1120.0 60.00000006635673 C 1073.3333333333335 60.00000006635673 1026.6666666666665 177.5519651651848 980.0 177.5519651651848 Z" /></g><g class="range_tree_recur_01"><path d="M 980.0 177.5519651651848 C 1026.6666666666665 177.5519651651848 1073.3333333333335 296.78755307919346 1120.0 296.78755307919346 L 1120.0 296.71926178154536 C 1073.3333333333335 296.71926178154536 1026.6666666666665 177.4836738675367 980.0 177.4836738675367 Z" /></g></g></g></g><g class="range_tree_recur_01"><path d="M 560.0 457.63602172373794 C 606.6666666666667 457.63602172373794 653.3333333333333 612.5376545952167 700.0 612.5376545952167 L 700.0 610.3986782056745 C 653.3333333333333 610.3986782056745 606.6666666666667 455.4970453341957 560.0 455.4970453341957 Z" /><g class="range_tree_recur_01"><path d="M 700.0 612.5376545952167 C 746.6666666666666 612.5376545952167 793.3333333333334 612.5376545952167 840.0 612.5376545952167 L 840.0 610.3986782056745 C 793.3333333333334 610.3986782056745 746.6666666666666 610.3986782056745 700.0 610.3986782056745 Z" /><g class="range_tree_recur_01"><path d="M 840.0 612.5376545952167 C 886.6666666666666 612.5376545952167 933.3333333333334 527.65334453783 980.0 527.65334453783 L 980.0 525.5143681482878 C 933.3333333333334 525.5143681482878 886.6666666666666 610.3986782056745 840.0 610.3986782056745 Z" /><g class="range_tree_recur_01"><path d="M 980.0 527.65334453783 C 1026.6666666666665 527.65334453783 1073.3333333333335 542.8088252444286 1120.0 542.8088252444286 L 1120.0 540.6698488548864 C 1073.3333333333335 540.6698488548864 1026.6666666666665 525.5143681482878 980.0 525.5143681482878 Z" /></g></g></g></g><g class="range_tree_recur_01"><path d="M 560.0 455.4970453341957 C 606.6666666666667 455.4970453341957 653.3333333333333 513.9609540242236 700.0 513.9609540242236 L 700.0 510.55451518739574 C 653.3333333333333 510.55451518739574 606.6666666666667 452.09060649736784 560.0 452.09060649736784 Z" /><g class="range_tree_recur_01"><path d="M 700.0 513.9609540242236 C 746.6666666666666 513.9609540242236 793.3333333333334 396.85068469145335 840.0 396.85068469145335 L 840.0 393.4442458546255 C 793.3333333333334 393.4442458546255 746.6666666666666 510.55451518739574 700.0 510.55451518739574 Z" /><g class="range_tree_recur_01"><path d="M 840.0 396.85068469145335 C 886.6666666666666 396.85068469145335 933.3333333333334 321.4721915626433 980.0 321.4721915626433 L 980.0 318.0657527258154 C 933.3333333333334 318.0657527258154 886.6666666666666 393.4442458546255 840.0 393.4442458546255 Z" /><g class="range_tree_recur_01"><path d="M 980.0 321.4721915626433 C 1026.6666666666665 321.4721915626433 1073.3333333333335 372.9431596014183 1120.0 372.9431596014183 L 1120.0 369.5367207645904 C 1073.3333333333335 369.5367207645904 1026.6666666666665 318.0657527258154 980.0 318.0657527258154 Z" /></g></g></g></g></g></g></g><g class="range_tree_recur_02"><path d="M 140.0 217.36395082552917 C 186.66666666666666 217.36395082552917 233.33333333333334 180.76764007215388 280.0 180.76764007215388 L 280.0 82.3837798659224 C 233.33333333333334 82.3837798659224 186.66666666666666 118.9800906192977 140.0 118.9800906192977 Z" /><g class="range_tree_recur_02"><path d="M 280.0 180.76764007215388 C 326.66666666666663 180.76764007215388 373.33333333333337 525.2011130063329 420.0 525.2011130063329 L 420.0 499.9719864700455 C 373.33333333333337 499.9719864700455 326.66666666666663 155.5385135358665 280.0 155.5385135358665 Z" /><g class="range_tree_recur_02"><path d="M 420.0 525.2011130063329 C 466.6666666666667 525.2011130063329 513.3333333333333 332.61217337683775 560.0 332.61217337683775 L 560.0 307.3830468405504 C 513.3333333333333 307.3830468405504 466.6666666666667 499.9719864700455 420.0 499.9719864700455 Z" /><g class="range_tree_recur_02"><path d="M 560.0 332.61217337683775 C 606.6666666666667 332.61217337683775 653.3333333333333 594.2020363302436 700.0 594.2020363302436 L 700.0 578.334759286372 C 653.3333333333333 578.334759286372 606.6666666666667 316.74489633296616 560.0 316.74489633296616 Z" /><g class="range_tree_recur_02"><path d="M 700.0 594.2020363302436 C 746.6666666666666 594.2020363302436 793.3333333333334 62.834021168528125 840.0 62.834021168528125 L 840.0 60.00000006635673 C 793.3333333333334 60.00000006635673 746.6666666666666 591.3680152280722 700.0 591.3680152280722 Z" /><g class="range_tree_recur_02"><path d="M 840.0 62.834021168528125 C 886.6666666666666 62.834021168528125 933.3333333333334 239.46314663509838 980.0 239.46314663509838 L 980.0 236.629125532927 C 933.3333333333334 236.629125532927 886.6666666666666 60.00000006635673 840.0 60.00000006635673 Z" /><g class="range_tree_recur_02"><path d="M 980.0 239.46314663509838 C 1026.6666666666665 239.46314663509838 1073.3333333333335 419.90997789544053 1120.0 419.90997789544053 L 1120.0 417.07595679326914 C 1073.3333333333335 417.07595679326914 1026.6666666666665 236.629125532927 980.0 236.629125532927 Z" /></g></g></g><g class="range_tree_recur_02"><path d="M 700.0 591.3680152280722 C 746.6666666666666 591.3680152280722 793.3333333333334 131.28449680865742 840.0 131.28449680865742 L 840.0 118.25124086695723 C 793.3333333333334 118.25124086695723 746.6666666666666 578.334759286372 700.0 578.334759286372 Z" /><g class="range_tree_recur_02"><path d="M 840.0 131.28449680865742 C 886.6666666666666 131.28449680865742 933.3333333333334 96.38792851357721 980.0 96.38792851357721 L 980.0 83.35467257187702 C 933.3333333333334 83.35467257187702 886.6666666666666 118.25124086695723 840.0 118.25124086695723 Z" /><g class="range_tree_recur_02"><path d="M 980.0 96.38792851357721 C 1026.6666666666665 96.38792851357721 1073.3333333333335 215.62351642758586 1120.0 215.62351642758586 L 1120.0 202.59026048588566 C 1073.3333333333335 202.59026048588566 1026.6666666666665 83.35467257187702 980.0 83.35467257187702 Z" /></g></g></g></g><g class="range_tree_recur_02"><path d="M 560.0 316.74489633296616 C 606.6666666666667 316.74489633296616 653.3333333333333 553.7120406597387 700.0 553.7120406597387 L 700.0 551.520785781322 C 653.3333333333333 551.520785781322 606.6666666666667 314.5536414545495 560.0 314.5536414545495 Z" /><g class="range_tree_recur_02"><path d="M 700.0 553.7120406597387 C 746.6666666666666 553.7120406597387 793.3333333333334 93.62852224032395 840.0 93.62852224032395 L 840.0 91.43726736190729 C 793.3333333333334 91.43726736190729 746.6666666666666 551.520785781322 700.0 551.520785781322 Z" /><g class="range_tree_recur_02"><path d="M 840.0 93.62852224032395 C 886.6666666666666 93.62852224032395 933.3333333333334 197.82264491426758 980.0 197.82264491426758 L 980.0 195.63139003585093 C 933.3333333333334 195.63139003585093 886.6666666666666 91.43726736190729 840.0 91.43726736190729 Z" /><g class="range_tree_recur_02"><path d="M 980.0 197.82264491426758 C 1026.6666666666665 197.82264491426758 1073.3333333333335 80.27067981543951 1120.0 80.27067981543951 L 1120.0 78.07942493702285 C 1073.3333333333335 78.07942493702285 1026.6666666666665 195.63139003585093 980.0 195.63139003585093 Z" /></g></g></g></g><g class="range_tree_recur_02"><path d="M 560.0 314.5536414545495 C 606.6666666666667 314.5536414545495 653.3333333333333 461.9840121769812 700.0 461.9840121769812 L 700.0 454.81341756298207 C 653.3333333333333 454.81341756298207 606.6666666666667 307.3830468405504 560.0 307.3830468405504 Z" /><g class="range_tree_recur_02"><path d="M 700.0 461.9840121769812 C 746.6666666666666 461.9840121769812 793.3333333333334 468.80768210976385 840.0 468.80768210976385 L 840.0 461.6370874957647 C 793.3333333333334 461.6370874957647 746.6666666666666 454.81341756298207 700.0 454.81341756298207 Z" /><g class="range_tree_recur_02"><path d="M 840.0 468.80768210976385 C 886.6666666666666 468.80768210976385 933.3333333333334 592.1603371866513 980.0 592.1603371866513 L 980.0 584.9897425726522 C 933.3333333333334 584.9897425726522 886.6666666666666 461.6370874957647 840.0 461.6370874957647 Z" /><g class="range_tree_recur_02"><path d="M 980.0 592.1603371866513 C 1026.6666666666665 592.1603371866513 1073.3333333333335 607.3158178932499 1120.0 607.3158178932499 L 1120.0 600.1452232792508 C 1073.3333333333335 600.1452232792508 1026.6666666666665 584.9897425726522 980.0 584.9897425726522 Z" /></g></g></g></g></g></g><g class="range_tree_recur_02"><path d="M 280.0 155.5385135358665 C 326.66666666666663 155.5385135358665 373.33333333333337 314.11608953378163 420.0 314.11608953378163 L 420.0 298.6054709076416 C 373.33333333333337 298.6054709076416 326.66666666666663 140.02789490972646 280.0 140.02789490972646 Z" /><g class="range_tree_recur_02"><path d="M 420.0 314.11608953378163 C 466.6666666666667 314.11608953378163 513.3333333333333 334.70288055134006 560.0 334.70288055134006 L 560.0 334.037265580846 C 513.3333333333333 334.037265580846 466.6666666666667 313.45047456328757 420.0 313.45047456328757 Z" /><g class="range_tree_recur_02"><path d="M 560.0 334.70288055134006 C 606.6666666666667 334.70288055134006 653.3333333333333 596.2927435047459 700.0 596.2927435047459 L 700.0 595.6271285342518 C 653.3333333333333 595.6271285342518 606.6666666666667 334.037265580846 560.0 334.037265580846 Z" /><g class="range_tree_recur_02"><path d="M 700.0 596.2927435047459 C 746.6666666666666 596.2927435047459 793.3333333333334 64.92472834303044 840.0 64.92472834303044 L 840.0 64.25911337253638 C 793.3333333333334 64.25911337253638 746.6666666666666 595.6271285342518 700.0 595.6271285342518 Z" /><g class="range_tree_recur_02"><path d="M 840.0 64.92472834303044 C 886.6666666666666 64.92472834303044 933.3333333333334 169.11885101697408 980.0 169.11885101697408 L 980.0 168.45323604648001 C 933.3333333333334 168.45323604648001 886.6666666666666 64.25911337253638 840.0 64.25911337253638 Z" /><g class="range_tree_recur_02"><path d="M 980.0 169.11885101697408 C 1026.6666666666665 169.11885101697408 1073.3333333333335 288.3544389309827 1120.0 288.3544389309827 L 1120.0 287.68882396048866 C 1073.3333333333335 287.68882396048866 1026.6666666666665 168.45323604648001 980.0 168.45323604648001 Z" /></g></g></g></g></g><g class="range_tree_recur_02"><path d="M 420.0 313.45047456328757 C 466.6666666666667 313.45047456328757 513.3333333333333 173.5604595404584 560.0 173.5604595404584 L 560.0 158.7154558848124 C 513.3333333333333 158.7154558848124 466.6666666666667 298.6054709076416 420.0 298.6054709076416 Z" /><g class="range_tree_recur_02"><path d="M 560.0 173.5604595404584 C 606.6666666666667 173.5604595404584 653.3333333333333 91.90626082825474 700.0 91.90626082825474 L 700.0 77.06125717260875 C 653.3333333333333 77.06125717260875 606.6666666666667 158.7154558848124 560.0 158.7154558848124 Z" /><g class="range_tree_recur_02"><path d="M 700.0 91.90626082825474 C 746.6666666666666 91.90626082825474 793.3333333333334 207.41736553260125 840.0 207.41736553260125 L 840.0 192.57236187695526 C 793.3333333333334 192.57236187695526 746.6666666666666 77.06125717260875 700.0 77.06125717260875 Z" /><g class="range_tree_recur_02"><path d="M 840.0 207.41736553260125 C 886.6666666666666 207.41736553260125 933.3333333333334 393.7326350051444 980.0 393.7326350051444 L 980.0 378.8876313494984 C 933.3333333333334 378.8876313494984 886.6666666666666 192.57236187695526 840.0 192.57236187695526 Z" /><g class="range_tree_recur_02"><path d="M 980.0 393.7326350051444 C 1026.6666666666665 393.7326350051444 1073.3333333333335 454.87220631097443 1120.0 454.87220631097443 L 1120.0 440.6353501731064 C 1073.3333333333335 440.6353501731064 1026.6666666666665 379.4957788672764 980.0 379.4957788672764 Z" /></g><g class="range_tree_recur_02"><path d="M 980.0 379.4957788672764 C 1026.6666666666665 379.4957788672764 1073.3333333333335 315.3926290513482 1120.0 315.3926290513482 L 1120.0 314.7844815335702 C 1073.3333333333335 314.7844815335702 1026.6666666666665 378.8876313494984 980.0 378.8876313494984 Z" /></g></g></g></g></g></g><g class="range_tree_recur_02"><path d="M 280.0 140.02789490972646 C 326.66666666666663 140.02789490972646 373.33333333333337 323.2245815859642 420.0 323.2245815859642 L 420.0 314.11608953378163 C 373.33333333333337 314.11608953378163 326.66666666666663 130.9194028575439 280.0 130.9194028575439 Z" /><g class="range_tree_recur_02"><path d="M 420.0 323.2245815859642 C 466.6666666666667 323.2245815859642 513.3333333333333 343.8113726035226 560.0 343.8113726035226 L 560.0 334.70288055134006 C 513.3333333333333 334.70288055134006 466.6666666666667 314.11608953378163 420.0 314.11608953378163 Z" /><g class="range_tree_recur_02"><path d="M 560.0 343.8113726035226 C 606.6666666666667 343.8113726035226 653.3333333333333 605.4012355569284 700.0 605.4012355569284 L 700.0 596.2927435047459 C 653.3333333333333 596.2927435047459 606.6666666666667 334.70288055134006 560.0 334.70288055134006 Z" /><g class="range_tree_recur_02"><path d="M 700.0 605.4012355569284 C 746.6666666666666 605.4012355569284 793.3333333333334 605.4012355569284 840.0 605.4012355569284 L 840.0 598.5969768266659 C 793.3333333333334 598.5969768266659 746.6666666666666 598.5969768266659 700.0 598.5969768266659 Z" /><g class="range_tree_recur_02"><path d="M 840.0 605.4012355569284 C 886.6666666666666 605.4012355569284 933.3333333333334 520.5169254995417 980.0 520.5169254995417 L 980.0 513.7126667692792 C 933.3333333333334 513.7126667692792 886.6666666666666 598.5969768266659 840.0 598.5969768266659 Z" /><g class="range_tree_recur_02"><path d="M 980.0 520.5169254995417 C 1026.6666666666665 520.5169254995417 1073.3333333333335 535.6724062061403 1120.0 535.6724062061403 L 1120.0 528.8681474758778 C 1073.3333333333335 528.8681474758778 1026.6666666666665 513.7126667692792 980.0 513.7126667692792 Z" /></g></g></g><g class="range_tree_recur_02"><path d="M 700.0 598.5969768266659 C 746.6666666666666 598.5969768266659 793.3333333333334 67.22896166495048 840.0 67.22896166495048 L 840.0 64.92472834303044 C 793.3333333333334 64.92472834303044 746.6666666666666 596.2927435047459 700.0 596.2927435047459 Z" /><g class="range_tree_recur_02"><path d="M 840.0 67.22896166495048 C 886.6666666666666 67.22896166495048 933.3333333333334 171.4230843388941 980.0 171.4230843388941 L 980.0 169.11885101697408 C 933.3333333333334 169.11885101697408 886.6666666666666 64.92472834303044 840.0 64.92472834303044 Z" /><g class="range_tree_recur_02"><path d="M 980.0 171.4230843388941 C 1026.6666666666665 171.4230843388941 1073.3333333333335 290.65867225290276 1120.0 290.65867225290276 L 1120.0 288.3544389309827 C 1073.3333333333335 288.3544389309827 1026.6666666666665 169.11885101697408 980.0 169.11885101697408 Z" /></g></g></g></g></g></g><g class="range_tree_recur_02"><path d="M 280.0 130.9194028575439 C 326.66666666666663 130.9194028575439 373.33333333333337 499.9719864700455 420.0 499.9719864700455 L 420.0 451.436363478424 C 373.33333333333337 451.436363478424 326.66666666666663 82.3837798659224 280.0 82.3837798659224 Z" /><g class="range_tree_recur_02"><path d="M 420.0 499.9719864700455 C 466.6666666666667 499.9719864700455 513.3333333333333 307.3830468405504 560.0 307.3830468405504 L 560.0 258.8474238489289 C 513.3333333333333 258.8474238489289 466.6666666666667 451.436363478424 420.0 451.436363478424 Z" /><g class="range_tree_recur_02"><path d="M 560.0 307.3830468405504 C 606.6666666666667 307.3830468405504 653.3333333333333 454.81341756298207 700.0 454.81341756298207 L 700.0 439.0914572530892 C 653.3333333333333 439.0914572530892 606.6666666666667 291.6610865306575 560.0 291.6610865306575 Z" /><g class="range_tree_recur_02"><path d="M 700.0 454.81341756298207 C 746.6666666666666 454.81341756298207 793.3333333333334 461.6370874957647 840.0 461.6370874957647 L 840.0 460.2589839545544 C 793.3333333333334 460.2589839545544 746.6666666666666 453.4353140217718 700.0 453.4353140217718 Z" /><g class="range_tree_recur_02"><path d="M 840.0 461.6370874957647 C 886.6666666666666 461.6370874957647 933.3333333333334 584.9897425726522 980.0 584.9897425726522 L 980.0 583.6116390314419 C 933.3333333333334 583.6116390314419 886.6666666666666 460.2589839545544 840.0 460.2589839545544 Z" /><g class="range_tree_recur_02"><path d="M 980.0 584.9897425726522 C 1026.6666666666665 584.9897425726522 1073.3333333333335 600.1452232792508 1120.0 600.1452232792508 L 1120.0 598.7671197380405 C 1073.3333333333335 598.7671197380405 1026.6666666666665 583.6116390314419 980.0 583.6116390314419 Z" /></g></g></g><g class="range_tree_recur_02"><path d="M 700.0 453.4353140217718 C 746.6666666666666 453.4353140217718 793.3333333333334 374.51673070318066 840.0 374.51673070318066 L 840.0 360.17287393449806 C 793.3333333333334 360.17287393449806 746.6666666666666 439.0914572530892 700.0 439.0914572530892 Z" /><g class="range_tree_recur_02"><path d="M 840.0 374.51673070318066 C 886.6666666666666 374.51673070318066 933.3333333333334 145.82803930272348 980.0 145.82803930272348 L 980.0 131.48418253404088 C 933.3333333333334 131.48418253404088 886.6666666666666 360.17287393449806 840.0 360.17287393449806 Z" /><g class="range_tree_recur_02"><path d="M 980.0 145.82803930272348 C 1026.6666666666665 145.82803930272348 1073.3333333333335 265.06362721673213 1120.0 265.06362721673213 L 1120.0 250.71977044804953 C 1073.3333333333335 250.71977044804953 1026.6666666666665 131.48418253404088 980.0 131.48418253404088 Z" /></g></g></g></g><g class="range_tree_recur_02"><path d="M 560.0 291.6610865306575 C 606.6666666666667 291.6610865306575 653.3333333333333 630.0000000663567 700.0 630.0000000663567 L 700.0 627.9048496449832 C 653.3333333333333 627.9048496449832 606.6666666666667 289.56593610928394 560.0 289.56593610928394 Z" /><g class="range_tree_recur_02"><path d="M 700.0 630.0000000663567 C 746.6666666666666 630.0000000663567 793.3333333333334 630.0000000663567 840.0 630.0000000663567 L 840.0 627.9048496449832 C 793.3333333333334 627.9048496449832 746.6666666666666 627.9048496449832 700.0 627.9048496449832 Z" /><g class="range_tree_recur_02"><path d="M 840.0 630.0000000663567 C 886.6666666666666 630.0000000663567 933.3333333333334 545.11569000897 980.0 545.11569000897 L 980.0 543.0205395875964 C 933.3333333333334 543.0205395875964 886.6666666666666 627.9048496449832 840.0 627.9048496449832 Z" /><g class="range_tree_recur_02"><path d="M 980.0 545.11569000897 C 1026.6666666666665 545.11569000897 1073.3333333333335 560.2711707155686 1120.0 560.2711707155686 L 1120.0 558.176020294195 C 1073.3333333333335 558.176020294195 1026.6666666666665 543.0205395875964 980.0 543.0205395875964 Z" /></g></g></g></g><g class="range_tree_recur_02"><path d="M 560.0 289.56593610928394 C 606.6666666666667 289.56593610928394 653.3333333333333 289.56593610928394 700.0 289.56593610928394 L 700.0 262.78283122577704 C 653.3333333333333 262.78283122577704 606.6666666666667 262.78283122577704 560.0 262.78283122577704 Z" /><g class="range_tree_recur_02"><path d="M 700.0 289.56593610928394 C 746.6666666666666 289.56593610928394 793.3333333333334 349.95264647877775 840.0 349.95264647877775 L 840.0 323.16954159527086 C 793.3333333333334 323.16954159527086 746.6666666666666 262.78283122577704 700.0 262.78283122577704 Z" /><g class="range_tree_recur_02"><path d="M 840.0 349.95264647877775 C 886.6666666666666 349.95264647877775 933.3333333333334 331.8549044954125 980.0 331.8549044954125 L 980.0 326.7333366663661 C 933.3333333333334 326.7333366663661 886.6666666666666 344.83107864973135 840.0 344.83107864973135 Z" /><g class="range_tree_recur_02"><path d="M 980.0 331.8549044954125 C 1026.6666666666665 331.8549044954125 1073.3333333333335 383.3258725341875 1120.0 383.3258725341875 L 1120.0 378.2043047051411 C 1073.3333333333335 378.2043047051411 1026.6666666666665 326.7333366663661 980.0 326.7333366663661 Z" /></g></g><g class="range_tree_recur_02"><path d="M 840.0 344.83107864973135 C 886.6666666666666 344.83107864973135 933.3333333333334 167.5242168281693 980.0 167.5242168281693 L 980.0 164.94614705094136 C 933.3333333333334 164.94614705094136 886.6666666666666 342.2530088725034 840.0 342.2530088725034 Z" /><g class="range_tree_recur_02"><path d="M 980.0 167.5242168281693 C 1026.6666666666665 167.5242168281693 1073.3333333333335 286.75980474217795 1120.0 286.75980474217795 L 1120.0 284.18173496495 C 1073.3333333333335 284.18173496495 1026.6666666666665 164.94614705094136 980.0 164.94614705094136 Z" /></g></g><g class="range_tree_recur_02"><path d="M 840.0 342.2530088725034 C 886.6666666666666 342.2530088725034 933.3333333333334 223.61710016266443 980.0 223.61710016266443 L 980.0 211.5992710541468 C 933.3333333333334 211.5992710541468 886.6666666666666 330.2351797639858 840.0 330.2351797639858 Z" /><g class="range_tree_recur_02"><path d="M 980.0 223.61710016266443 C 1026.6666666666665 223.61710016266443 1073.3333333333335 106.06513506383635 1120.0 106.06513506383635 L 1120.0 94.04730595531873 C 1073.3333333333335 94.04730595531873 1026.6666666666665 211.5992710541468 980.0 211.5992710541468 Z" /></g></g><g class="range_tree_recur_02"><path d="M 840.0 330.2351797639858 C 886.6666666666666 330.2351797639858 933.3333333333334 413.5843210865278 980.0 413.5843210865278 L 980.0 406.51868291781284 C 933.3333333333334 406.51868291781284 886.6666666666666 323.16954159527086 840.0 323.16954159527086 Z" /><g class="range_tree_recur_02"><path d="M 980.0 413.5843210865278 C 1026.6666666666665 413.5843210865278 1073.3333333333335 130.74718895251863 1120.0 130.74718895251863 L 1120.0 123.68155078380369 C 1073.3333333333335 123.68155078380369 1026.6666666666665 406.51868291781284 980.0 406.51868291781284 Z" /></g></g></g></g><g class="range_tree_recur_02"><path d="M 560.0 262.78283122577704 C 606.6666666666667 262.78283122577704 653.3333333333333 74.82421628083102 700.0 74.82421628083102 L 700.0 71.77417985745706 C 653.3333333333333 71.77417985745706 606.6666666666667 259.7327948024031 560.0 259.7327948024031 Z" /><g class="range_tree_recur_02"><path d="M 700.0 74.82421628083102 C 746.6666666666666 74.82421628083102 793.3333333333334 190.33532098517753 840.0 190.33532098517753 L 840.0 187.28528456180356 C 793.3333333333334 187.28528456180356 746.6666666666666 71.77417985745706 700.0 71.77417985745706 Z" /><g class="range_tree_recur_02"><path d="M 840.0 190.33532098517753 C 886.6666666666666 190.33532098517753 933.3333333333334 376.6505904577207 980.0 376.6505904577207 L 980.0 373.6005540343467 C 933.3333333333334 373.6005540343467 886.6666666666666 187.28528456180356 840.0 187.28528456180356 Z" /><g class="range_tree_recur_02"><path d="M 980.0 376.6505904577207 C 1026.6666666666665 376.6505904577207 1073.3333333333335 312.5474406417925 1120.0 312.5474406417925 L 1120.0 309.4974042184185 C 1073.3333333333335 309.4974042184185 1026.6666666666665 373.6005540343467 980.0 373.6005540343467 Z" /></g></g></g></g><g class="range_tree_recur_02"><path d="M 560.0 259.7327948024031 C 606.6666666666667 259.7327948024031 653.3333333333333 103.56444533332251 700.0 103.56444533332251 L 700.0 102.67907437984832 C 653.3333333333333 102.67907437984832 606.6666666666667 258.8474238489289 560.0 258.8474238489289 Z" /><g class="range_tree_recur_02"><path d="M 700.0 103.56444533332251 C 746.6666666666666 103.56444533332251 793.3333333333334 219.07555003766902 840.0 219.07555003766902 L 840.0 218.19017908419482 C 793.3333333333334 218.19017908419482 746.6666666666666 102.67907437984832 700.0 102.67907437984832 Z" /><g class="range_tree_recur_02"><path d="M 840.0 219.07555003766902 C 886.6666666666666 219.07555003766902 933.3333333333334 253.20957993040793 980.0 253.20957993040793 L 980.0 252.32420897693373 C 933.3333333333334 252.32420897693373 886.6666666666666 218.19017908419482 840.0 218.19017908419482 Z" /><g class="range_tree_recur_02"><path d="M 980.0 253.20957993040793 C 1026.6666666666665 253.20957993040793 1073.3333333333335 433.6564111907501 1120.0 433.6564111907501 L 1120.0 432.7710402372759 C 1073.3333333333335 432.7710402372759 1026.6666666666665 252.32420897693373 980.0 252.32420897693373 Z" /></g></g></g></g></g></g></g><g class="range_tree_recur_03"><path d="M 140.0 413.2122000900563 C 186.66666666666666 413.2122000900563 233.33333333333334 391.658164128894 280.0 391.658164128894 L 280.0 385.4330215801019 C 233.33333333333334 385.4330215801019 186.66666666666666 406.9870575412642 140.0 406.9870575412642 Z" /><g class="range_tree_recur_03"><path d="M 280.0 391.658164128894 C 326.66666666666663 391.658164128894 373.33333333333337 530.6878622446675 420.0 530.6878622446675 L 420.0 527.7540564083029 C 373.33333333333337 527.7540564083029 326.66666666666663 388.72435829252936 280.0 388.72435829252936 Z" /><g class="range_tree_recur_03"><path d="M 420.0 530.6878622446675 C 466.6666666666667 530.6878622446675 513.3333333333333 530.6878622446675 560.0 530.6878622446675 L 560.0 527.7540564083029 C 513.3333333333333 527.7540564083029 466.6666666666667 527.7540564083029 420.0 527.7540564083029 Z" /><g class="range_tree_recur_03"><path d="M 560.0 530.6878622446675 C 606.6666666666667 530.6878622446675 653.3333333333333 333.20826586685143 700.0 333.20826586685143 L 700.0 330.70539870648645 C 653.3333333333333 330.70539870648645 606.6666666666667 528.1849950843025 560.0 528.1849950843025 Z" /><g class="range_tree_recur_03"><path d="M 700.0 333.20826586685143 C 746.6666666666666 333.20826586685143 793.3333333333334 171.52313104947098 840.0 171.52313104947098 L 840.0 169.020263889106 C 793.3333333333334 169.020263889106 746.6666666666666 330.70539870648645 700.0 330.70539870648645 Z" /><g class="range_tree_recur_03"><path d="M 840.0 171.52313104947098 C 886.6666666666666 171.52313104947098 933.3333333333334 357.8384005220141 980.0 357.8384005220141 L 980.0 355.33553336164914 C 933.3333333333334 355.33553336164914 886.6666666666666 169.020263889106 840.0 169.020263889106 Z" /><g class="range_tree_recur_03"><path d="M 980.0 357.8384005220141 C 1026.6666666666665 357.8384005220141 1073.3333333333335 409.30936856078915 1120.0 409.30936856078915 L 1120.0 406.80650140042417 C 1073.3333333333335 406.80650140042417 1026.6666666666665 355.33553336164914 980.0 355.33553336164914 Z" /></g></g></g></g><g class="range_tree_recur_03"><path d="M 560.0 528.1849950843025 C 606.6666666666667 528.1849950843025 653.3333333333333 424.492521219654 700.0 424.492521219654 L 700.0 424.06158254365437 C 653.3333333333333 424.06158254365437 606.6666666666667 527.7540564083029 560.0 527.7540564083029 Z" /><g class="range_tree_recur_03"><path d="M 700.0 424.492521219654 C 746.6666666666666 424.492521219654 793.3333333333334 449.71640053088777 840.0 449.71640053088777 L 840.0 449.2854618548881 C 793.3333333333334 449.2854618548881 746.6666666666666 424.06158254365437 700.0 424.06158254365437 Z" /><g class="range_tree_recur_03"><path d="M 840.0 449.71640053088777 C 886.6666666666666 449.71640053088777 933.3333333333334 573.0690556077752 980.0 573.0690556077752 L 980.0 572.6381169317756 C 933.3333333333334 572.6381169317756 886.6666666666666 449.2854618548881 840.0 449.2854618548881 Z" /><g class="range_tree_recur_03"><path d="M 980.0 573.0690556077752 C 1026.6666666666665 573.0690556077752 1073.3333333333335 588.2245363143738 1120.0 588.2245363143738 L 1120.0 587.7935976383742 C 1073.3333333333335 587.7935976383742 1026.6666666666665 572.6381169317756 980.0 572.6381169317756 Z" /></g></g></g></g></g></g><g class="range_tree_recur_03"><path d="M 280.0 388.72435829252936 C 326.66666666666663 388.72435829252936 373.33333333333337 438.6433121433947 420.0 438.6433121433947 L 420.0 435.3519754309673 C 373.33333333333337 435.3519754309673 326.66666666666663 385.4330215801019 280.0 385.4330215801019 Z" /><g class="range_tree_recur_03"><path d="M 420.0 438.6433121433947 C 466.6666666666667 438.6433121433947 513.3333333333333 413.8154307065997 560.0 413.8154307065997 L 560.0 410.5240939941723 C 513.3333333333333 410.5240939941723 466.6666666666667 435.3519754309673 420.0 435.3519754309673 Z" /><g class="range_tree_recur_03"><path d="M 560.0 413.8154307065997 C 606.6666666666667 413.8154307065997 653.3333333333333 472.8563492826652 700.0 472.8563492826652 L 700.0 469.56501257023774 C 653.3333333333333 469.56501257023774 606.6666666666667 410.5240939941723 560.0 410.5240939941723 Z" /><g class="range_tree_recur_03"><path d="M 700.0 472.8563492826652 C 746.6666666666666 472.8563492826652 793.3333333333334 83.0587763513904 840.0 83.0587763513904 L 840.0 80.76579381362535 C 793.3333333333334 80.76579381362535 746.6666666666666 470.5633667449001 700.0 470.5633667449001 Z" /><g class="range_tree_recur_03"><path d="M 840.0 83.0587763513904 C 886.6666666666666 83.0587763513904 933.3333333333334 187.25289902533405 980.0 187.25289902533405 L 980.0 184.959916487569 C 933.3333333333334 184.959916487569 886.6666666666666 80.76579381362535 840.0 80.76579381362535 Z" /><g class="range_tree_recur_03"><path d="M 980.0 187.25289902533405 C 1026.6666666666665 187.25289902533405 1073.3333333333335 69.70093392650597 1120.0 69.70093392650597 L 1120.0 67.40795138874091 C 1073.3333333333335 67.40795138874091 1026.6666666666665 184.959916487569 980.0 184.959916487569 Z" /></g></g></g><g class="range_tree_recur_03"><path d="M 700.0 470.5633667449001 C 746.6666666666666 470.5633667449001 793.3333333333334 134.04467613785528 840.0 134.04467613785528 L 840.0 133.0463219631929 C 793.3333333333334 133.0463219631929 746.6666666666666 469.56501257023774 700.0 469.56501257023774 Z" /><g class="range_tree_recur_03"><path d="M 840.0 134.04467613785528 C 886.6666666666666 134.04467613785528 933.3333333333334 99.14810784277506 980.0 99.14810784277506 L 980.0 98.14975366811268 C 933.3333333333334 98.14975366811268 886.6666666666666 133.0463219631929 840.0 133.0463219631929 Z" /><g class="range_tree_recur_03"><path d="M 980.0 99.14810784277506 C 1026.6666666666665 99.14810784277506 1073.3333333333335 218.3836957567837 1120.0 218.3836957567837 L 1120.0 217.38534158212133 C 1073.3333333333335 217.38534158212133 1026.6666666666665 98.14975366811268 980.0 98.14975366811268 Z" /></g></g></g></g></g></g></g><g class="range_tree_recur_04"><path d="M 140.0 501.6069256060291 C 186.66666666666666 501.6069256060291 233.33333333333334 480.0528896448668 280.0 480.0528896448668 L 280.0 473.80308481981046 C 233.33333333333334 473.80308481981046 186.66666666666666 495.35712078097276 140.0 495.35712078097276 Z" /><g class="range_tree_recur_04"><path d="M 280.0 480.0528896448668 C 326.66666666666663 480.0528896448668 373.33333333333337 244.06771654612385 420.0 244.06771654612385 L 420.0 237.8179117210675 C 373.33333333333337 237.8179117210675 326.66666666666663 473.80308481981046 280.0 473.80308481981046 Z" /><g class="range_tree_recur_04"><path d="M 420.0 244.06771654612385 C 466.6666666666667 244.06771654612385 513.3333333333333 508.7139430374373 560.0 508.7139430374373 L 560.0 502.46413821238093 C 513.3333333333333 502.46413821238093 466.6666666666667 237.8179117210675 420.0 237.8179117210675 Z" /><g class="range_tree_recur_04"><path d="M 560.0 508.7139430374373 C 606.6666666666667 508.7139430374373 653.3333333333333 414.63497923105024 700.0 414.63497923105024 L 700.0 408.3851744059939 C 653.3333333333333 408.3851744059939 606.6666666666667 502.46413821238093 560.0 502.46413821238093 Z" /><g class="range_tree_recur_04"><path d="M 700.0 414.63497923105024 C 746.6666666666666 414.63497923105024 793.3333333333334 439.858858542284 840.0 439.858858542284 L 840.0 433.60905371722765 C 793.3333333333334 433.60905371722765 746.6666666666666 408.3851744059939 700.0 408.3851744059939 Z" /><g class="range_tree_recur_04"><path d="M 840.0 439.858858542284 C 886.6666666666666 439.858858542284 933.3333333333334 563.2115136191715 980.0 563.2115136191715 L 980.0 556.9617087941151 C 933.3333333333334 556.9617087941151 886.6666666666666 433.60905371722765 840.0 433.60905371722765 Z" /><g class="range_tree_recur_04"><path d="M 980.0 563.2115136191715 C 1026.6666666666665 563.2115136191715 1073.3333333333335 578.3669943257701 1120.0 578.3669943257701 L 1120.0 572.1171895007137 C 1073.3333333333335 572.1171895007137 1026.6666666666665 556.9617087941151 980.0 556.9617087941151 Z" /></g></g></g></g></g></g></g><g class="range_tree_recur_05"><path d="M 140.0 317.4741917371284 C 186.66666666666666 317.4741917371284 233.33333333333334 347.281933411723 280.0 347.281933411723 L 280.0 315.8085518621374 C 233.33333333333334 315.8085518621374 186.66666666666666 286.0008101875428 140.0 286.0008101875428 Z" /><g class="range_tree_recur_05"><path d="M 280.0 347.281933411723 C 326.66666666666663 347.281933411723 373.33333333333337 397.20088726258837 420.0 397.20088726258837 L 420.0 365.72750571300276 C 373.33333333333337 365.72750571300276 326.66666666666663 315.8085518621374 280.0 315.8085518621374 Z" /><g class="range_tree_recur_05"><path d="M 420.0 397.20088726258837 C 466.6666666666667 397.20088726258837 513.3333333333333 436.30301008815877 560.0 436.30301008815877 L 560.0 425.89227364514954 C 513.3333333333333 425.89227364514954 466.6666666666667 386.79015081957914 420.0 386.79015081957914 Z" /><g class="range_tree_recur_05"><path d="M 560.0 436.30301008815877 C 606.6666666666667 436.30301008815877 653.3333333333333 494.76691877818666 700.0 494.76691877818666 L 700.0 484.73304478568025 C 653.3333333333333 484.73304478568025 606.6666666666667 426.26913609565236 560.0 426.26913609565236 Z" /><g class="range_tree_recur_05"><path d="M 700.0 494.76691877818666 C 746.6666666666666 494.76691877818666 793.3333333333334 377.6566494454164 840.0 377.6566494454164 L 840.0 374.51673070318066 C 793.3333333333334 374.51673070318066 746.6666666666666 491.6270000359509 700.0 491.6270000359509 Z" /><g class="range_tree_recur_05"><path d="M 840.0 377.6566494454164 C 886.6666666666666 377.6566494454164 933.3333333333334 148.96795804495923 980.0 148.96795804495923 L 980.0 145.82803930272348 C 933.3333333333334 145.82803930272348 886.6666666666666 374.51673070318066 840.0 374.51673070318066 Z" /><g class="range_tree_recur_05"><path d="M 980.0 148.96795804495923 C 1026.6666666666665 148.96795804495923 1073.3333333333335 268.2035459589679 1120.0 268.2035459589679 L 1120.0 265.06362721673213 C 1073.3333333333335 265.06362721673213 1026.6666666666665 145.82803930272348 980.0 145.82803930272348 Z" /></g></g></g><g class="range_tree_recur_05"><path d="M 700.0 491.6270000359509 C 746.6666666666666 491.6270000359509 793.3333333333334 80.76579381362535 840.0 80.76579381362535 L 840.0 73.87183856335469 C 793.3333333333334 73.87183856335469 746.6666666666666 484.73304478568025 700.0 484.73304478568025 Z" /><g class="range_tree_recur_05"><path d="M 840.0 80.76579381362535 C 886.6666666666666 80.76579381362535 933.3333333333334 184.959916487569 980.0 184.959916487569 L 980.0 178.06596123729832 C 933.3333333333334 178.06596123729832 886.6666666666666 73.87183856335469 840.0 73.87183856335469 Z" /><g class="range_tree_recur_05"><path d="M 980.0 184.959916487569 C 1026.6666666666665 184.959916487569 1073.3333333333335 67.40795138874091 1120.0 67.40795138874091 L 1120.0 60.51399613847025 C 1073.3333333333335 60.51399613847025 1026.6666666666665 178.06596123729832 980.0 178.06596123729832 Z" /></g></g></g></g><g class="range_tree_recur_05"><path d="M 560.0 426.26913609565236 C 606.6666666666667 426.26913609565236 653.3333333333333 290.7252333650831 700.0 290.7252333650831 L 700.0 290.3483709145803 C 653.3333333333333 290.3483709145803 606.6666666666667 425.89227364514954 560.0 425.89227364514954 Z" /><g class="range_tree_recur_05"><path d="M 700.0 290.7252333650831 C 746.6666666666666 290.7252333650831 793.3333333333334 351.1119437345769 840.0 351.1119437345769 L 840.0 350.7350812840741 C 793.3333333333334 350.7350812840741 746.6666666666666 290.3483709145803 700.0 290.3483709145803 Z" /><g class="range_tree_recur_05"><path d="M 840.0 351.1119437345769 C 886.6666666666666 351.1119437345769 933.3333333333334 333.01420175121166 980.0 333.01420175121166 L 980.0 332.63733930070885 C 933.3333333333334 332.63733930070885 886.6666666666666 350.7350812840741 840.0 350.7350812840741 Z" /><g class="range_tree_recur_05"><path d="M 980.0 333.01420175121166 C 1026.6666666666665 333.01420175121166 1073.3333333333335 384.4851697899867 1120.0 384.4851697899867 L 1120.0 384.1083073394839 C 1073.3333333333335 384.1083073394839 1026.6666666666665 332.63733930070885 980.0 332.63733930070885 Z" /></g></g></g></g></g><g class="range_tree_recur_05"><path d="M 420.0 386.79015081957914 C 466.6666666666667 386.79015081957914 513.3333333333333 407.37694183713757 560.0 407.37694183713757 L 560.0 386.3142967305612 C 513.3333333333333 386.3142967305612 466.6666666666667 365.72750571300276 420.0 365.72750571300276 Z" /><g class="range_tree_recur_05"><path d="M 560.0 407.37694183713757 C 606.6666666666667 407.37694183713757 653.3333333333333 466.417860413203 700.0 466.417860413203 L 700.0 461.9840121769812 C 653.3333333333333 461.9840121769812 606.6666666666667 402.94309360091574 560.0 402.94309360091574 Z" /><g class="range_tree_recur_05"><path d="M 700.0 466.417860413203 C 746.6666666666666 466.417860413203 793.3333333333334 473.24153034598567 840.0 473.24153034598567 L 840.0 468.80768210976385 C 793.3333333333334 468.80768210976385 746.6666666666666 461.9840121769812 700.0 461.9840121769812 Z" /><g class="range_tree_recur_05"><path d="M 840.0 473.24153034598567 C 886.6666666666666 473.24153034598567 933.3333333333334 596.5941854228731 980.0 596.5941854228731 L 980.0 592.1603371866513 C 933.3333333333334 592.1603371866513 886.6666666666666 468.80768210976385 840.0 468.80768210976385 Z" /><g class="range_tree_recur_05"><path d="M 980.0 596.5941854228731 C 1026.6666666666665 596.5941854228731 1073.3333333333335 611.7496661294717 1120.0 611.7496661294717 L 1120.0 607.3158178932499 C 1073.3333333333335 607.3158178932499 1026.6666666666665 592.1603371866513 980.0 592.1603371866513 Z" /></g></g></g></g><g class="range_tree_recur_05"><path d="M 560.0 402.94309360091574 C 606.6666666666667 402.94309360091574 653.3333333333333 578.334759286372 700.0 578.334759286372 L 700.0 570.4970038554166 C 653.3333333333333 570.4970038554166 606.6666666666667 395.1053381699603 560.0 395.1053381699603 Z" /><g class="range_tree_recur_05"><path d="M 700.0 578.334759286372 C 746.6666666666666 578.334759286372 793.3333333333334 118.25124086695723 840.0 118.25124086695723 L 840.0 110.41348543600179 C 793.3333333333334 110.41348543600179 746.6666666666666 570.4970038554166 700.0 570.4970038554166 Z" /><g class="range_tree_recur_05"><path d="M 840.0 118.25124086695723 C 886.6666666666666 118.25124086695723 933.3333333333334 83.35467257187702 980.0 83.35467257187702 L 980.0 80.71132820681669 C 933.3333333333334 80.71132820681669 886.6666666666666 115.6078965018969 840.0 115.6078965018969 Z" /><g class="range_tree_recur_05"><path d="M 980.0 83.35467257187702 C 1026.6666666666665 83.35467257187702 1073.3333333333335 202.59026048588566 1120.0 202.59026048588566 L 1120.0 199.94691612082534 C 1073.3333333333335 199.94691612082534 1026.6666666666665 80.71132820681669 980.0 80.71132820681669 Z" /></g></g><g class="range_tree_recur_05"><path d="M 840.0 115.6078965018969 C 886.6666666666666 115.6078965018969 933.3333333333334 248.16196774248965 980.0 248.16196774248965 L 980.0 242.96755667659454 C 933.3333333333334 242.96755667659454 886.6666666666666 110.41348543600179 840.0 110.41348543600179 Z" /><g class="range_tree_recur_05"><path d="M 980.0 248.16196774248965 C 1026.6666666666665 248.16196774248965 1073.3333333333335 428.6087990028318 1120.0 428.6087990028318 L 1120.0 423.4143879369367 C 1073.3333333333335 423.4143879369367 1026.6666666666665 242.96755667659454 980.0 242.96755667659454 Z" /></g></g></g></g><g class="range_tree_recur_05"><path d="M 560.0 395.1053381699603 C 606.6666666666667 395.1053381699603 653.3333333333333 551.520785781322 700.0 551.520785781322 L 700.0 542.7297443419229 C 653.3333333333333 542.7297443419229 606.6666666666667 386.3142967305612 560.0 386.3142967305612 Z" /><g class="range_tree_recur_05"><path d="M 700.0 551.520785781322 C 746.6666666666666 551.520785781322 793.3333333333334 91.43726736190729 840.0 91.43726736190729 L 840.0 88.29259495600127 C 793.3333333333334 88.29259495600127 746.6666666666666 548.376113375416 700.0 548.376113375416 Z" /><g class="range_tree_recur_05"><path d="M 840.0 91.43726736190729 C 886.6666666666666 91.43726736190729 933.3333333333334 195.63139003585093 980.0 195.63139003585093 L 980.0 192.4867176299449 C 933.3333333333334 192.4867176299449 886.6666666666666 88.29259495600127 840.0 88.29259495600127 Z" /><g class="range_tree_recur_05"><path d="M 980.0 195.63139003585093 C 1026.6666666666665 195.63139003585093 1073.3333333333335 78.07942493702285 1120.0 78.07942493702285 L 1120.0 74.93475253111683 C 1073.3333333333335 74.93475253111683 1026.6666666666665 192.4867176299449 980.0 192.4867176299449 Z" /></g></g></g><g class="range_tree_recur_05"><path d="M 700.0 548.376113375416 C 746.6666666666666 548.376113375416 793.3333333333334 307.3733632697258 840.0 307.3733632697258 L 840.0 301.7269942362327 C 793.3333333333334 301.7269942362327 746.6666666666666 542.7297443419229 700.0 542.7297443419229 Z" /><g class="range_tree_recur_05"><path d="M 840.0 307.3733632697258 C 886.6666666666666 307.3733632697258 933.3333333333334 157.07295022322796 980.0 157.07295022322796 L 980.0 151.42658118973486 C 933.3333333333334 151.42658118973486 886.6666666666666 301.7269942362327 840.0 301.7269942362327 Z" /><g class="range_tree_recur_05"><path d="M 980.0 157.07295022322796 C 1026.6666666666665 157.07295022322796 1073.3333333333335 276.3085381372366 1120.0 276.3085381372366 L 1120.0 270.6621691037435 C 1073.3333333333335 270.6621691037435 1026.6666666666665 151.42658118973486 980.0 151.42658118973486 Z" /></g></g></g></g></g></g></g><g class="range_tree_recur_06"><path d="M 140.0 342.1101855591405 C 186.66666666666666 342.1101855591405 233.33333333333334 547.6767704717349 280.0 547.6767704717349 L 280.0 532.9210498009343 C 233.33333333333334 532.9210498009343 186.66666666666666 327.35446488833986 140.0 327.35446488833986 Z" /><g class="range_tree_recur_06"><path d="M 280.0 547.6767704717349 C 326.66666666666663 547.6767704717349 373.33333333333337 547.6767704717349 420.0 547.6767704717349 L 420.0 534.5906440063845 C 373.33333333333337 534.5906440063845 326.66666666666663 534.5906440063845 280.0 534.5906440063845 Z" /><g class="range_tree_recur_06"><path d="M 420.0 547.6767704717349 C 466.6666666666667 547.6767704717349 513.3333333333333 601.0688312386628 560.0 601.0688312386628 L 560.0 596.376623326214 C 513.3333333333333 596.376623326214 466.6666666666667 542.9845625592861 420.0 542.9845625592861 Z" /><g class="range_tree_recur_06"><path d="M 560.0 601.0688312386628 C 606.6666666666667 601.0688312386628 653.3333333333333 327.3076072137337 700.0 327.3076072137337 L 700.0 322.6153993012849 C 653.3333333333333 322.6153993012849 606.6666666666667 596.376623326214 560.0 596.376623326214 Z" /><g class="range_tree_recur_06"><path d="M 700.0 327.3076072137337 C 746.6666666666666 327.3076072137337 793.3333333333334 165.62247239635326 840.0 165.62247239635326 L 840.0 160.93026448390447 C 793.3333333333334 160.93026448390447 746.6666666666666 322.6153993012849 700.0 322.6153993012849 Z" /><g class="range_tree_recur_06"><path d="M 840.0 165.62247239635326 C 886.6666666666666 165.62247239635326 933.3333333333334 351.9377418688964 980.0 351.9377418688964 L 980.0 347.2455339564476 C 933.3333333333334 347.2455339564476 886.6666666666666 160.93026448390447 840.0 160.93026448390447 Z" /><g class="range_tree_recur_06"><path d="M 980.0 351.9377418688964 C 1026.6666666666665 351.9377418688964 1073.3333333333335 403.40870990767144 1120.0 403.40870990767144 L 1120.0 398.71650199522264 C 1073.3333333333335 398.71650199522264 1026.6666666666665 347.2455339564476 980.0 347.2455339564476 Z" /></g></g></g></g></g><g class="range_tree_recur_06"><path d="M 420.0 542.9845625592861 C 466.6666666666667 542.9845625592861 513.3333333333333 542.9845625592861 560.0 542.9845625592861 L 560.0 534.5906440063845 C 513.3333333333333 534.5906440063845 466.6666666666667 534.5906440063845 420.0 534.5906440063845 Z" /><g class="range_tree_recur_06"><path d="M 560.0 542.9845625592861 C 606.6666666666667 542.9845625592861 653.3333333333333 345.5049661814701 700.0 345.5049661814701 L 700.0 337.1110476285685 C 653.3333333333333 337.1110476285685 606.6666666666667 534.5906440063845 560.0 534.5906440063845 Z" /><g class="range_tree_recur_06"><path d="M 700.0 345.5049661814701 C 746.6666666666666 345.5049661814701 793.3333333333334 246.8363647197839 840.0 246.8363647197839 L 840.0 238.5276381263975 C 793.3333333333334 238.5276381263975 746.6666666666666 337.1962395880837 700.0 337.1962395880837 Z" /><g class="range_tree_recur_06"><path d="M 840.0 246.8363647197839 C 886.6666666666666 246.8363647197839 933.3333333333334 280.9703946125228 980.0 280.9703946125228 L 980.0 272.6616680191364 C 933.3333333333334 272.6616680191364 886.6666666666666 238.5276381263975 840.0 238.5276381263975 Z" /><g class="range_tree_recur_06"><path d="M 980.0 280.9703946125228 C 1026.6666666666665 280.9703946125228 1073.3333333333335 332.4413626512978 1120.0 332.4413626512978 L 1120.0 324.13263605791144 C 1073.3333333333335 324.13263605791144 1026.6666666666665 272.6616680191364 980.0 272.6616680191364 Z" /></g></g></g><g class="range_tree_recur_06"><path d="M 700.0 337.1962395880837 C 746.6666666666666 337.1962395880837 793.3333333333334 175.51110477070324 840.0 175.51110477070324 L 840.0 175.42591281118803 C 793.3333333333334 175.42591281118803 746.6666666666666 337.1110476285685 700.0 337.1110476285685 Z" /><g class="range_tree_recur_06"><path d="M 840.0 175.51110477070324 C 886.6666666666666 175.51110477070324 933.3333333333334 361.8263742432464 980.0 361.8263742432464 L 980.0 361.7411822837312 C 933.3333333333334 361.7411822837312 886.6666666666666 175.42591281118803 840.0 175.42591281118803 Z" /><g class="range_tree_recur_06"><path d="M 980.0 361.8263742432464 C 1026.6666666666665 361.8263742432464 1073.3333333333335 297.7232244273182 1120.0 297.7232244273182 L 1120.0 297.638032467803 C 1073.3333333333335 297.638032467803 1026.6666666666665 361.7411822837312 980.0 361.7411822837312 Z" /></g></g></g></g></g></g><g class="range_tree_recur_06"><path d="M 280.0 534.5906440063845 C 326.66666666666663 534.5906440063845 373.33333333333337 298.6054709076416 420.0 298.6054709076416 L 420.0 296.9358767021913 C 373.33333333333337 296.9358767021913 326.66666666666663 532.9210498009343 280.0 532.9210498009343 Z" /><g class="range_tree_recur_06"><path d="M 420.0 298.6054709076416 C 466.6666666666667 298.6054709076416 513.3333333333333 158.7154558848124 560.0 158.7154558848124 L 560.0 157.04586167936213 C 513.3333333333333 157.04586167936213 466.6666666666667 296.9358767021913 420.0 296.9358767021913 Z" /><g class="range_tree_recur_06"><path d="M 560.0 158.7154558848124 C 606.6666666666667 158.7154558848124 653.3333333333333 77.06125717260875 700.0 77.06125717260875 L 700.0 75.39166296715848 C 653.3333333333333 75.39166296715848 606.6666666666667 157.04586167936213 560.0 157.04586167936213 Z" /><g class="range_tree_recur_06"><path d="M 700.0 77.06125717260875 C 746.6666666666666 77.06125717260875 793.3333333333334 192.57236187695526 840.0 192.57236187695526 L 840.0 190.902767671505 C 793.3333333333334 190.902767671505 746.6666666666666 75.39166296715848 700.0 75.39166296715848 Z" /><g class="range_tree_recur_06"><path d="M 840.0 192.57236187695526 C 886.6666666666666 192.57236187695526 933.3333333333334 378.8876313494984 980.0 378.8876313494984 L 980.0 377.21803714404814 C 933.3333333333334 377.21803714404814 886.6666666666666 190.902767671505 840.0 190.902767671505 Z" /><g class="range_tree_recur_06"><path d="M 980.0 378.8876313494984 C 1026.6666666666665 378.8876313494984 1073.3333333333335 314.7844815335702 1120.0 314.7844815335702 L 1120.0 313.11488732811995 C 1073.3333333333335 313.11488732811995 1026.6666666666665 377.21803714404814 980.0 377.21803714404814 Z" /></g></g></g></g></g></g></g><g class="range_tree_recur_07"><path d="M 140.0 282.98774747061543 C 186.66666666666666 282.98774747061543 233.33333333333334 312.79548914521 280.0 312.79548914521 L 280.0 296.37368374387734 C 233.33333333333334 296.37368374387734 186.66666666666666 266.56594206928276 140.0 266.56594206928276 Z" /><g class="range_tree_recur_07"><path d="M 280.0 312.79548914521 C 326.66666666666663 312.79548914521 373.33333333333337 362.7144429960754 420.0 362.7144429960754 L 420.0 346.2926375947427 C 373.33333333333337 346.2926375947427 326.66666666666663 296.37368374387734 280.0 296.37368374387734 Z" /><g class="range_tree_recur_07"><path d="M 420.0 362.7144429960754 C 466.6666666666667 362.7144429960754 513.3333333333333 383.3012340136338 560.0 383.3012340136338 L 560.0 366.8794286123011 C 513.3333333333333 366.8794286123011 466.6666666666667 346.2926375947427 420.0 346.2926375947427 Z" /><g class="range_tree_recur_07"><path d="M 560.0 383.3012340136338 C 606.6666666666667 383.3012340136338 653.3333333333333 539.7166816249955 700.0 539.7166816249955 L 700.0 536.6578218794893 C 653.3333333333333 536.6578218794893 606.6666666666667 380.2423742681276 560.0 380.2423742681276 Z" /><g class="range_tree_recur_07"><path d="M 700.0 539.7166816249955 C 746.6666666666666 539.7166816249955 793.3333333333334 298.71393151930533 840.0 298.71393151930533 L 840.0 295.65507177379914 C 793.3333333333334 295.65507177379914 746.6666666666666 536.6578218794893 700.0 536.6578218794893 Z" /><g class="range_tree_recur_07"><path d="M 840.0 298.71393151930533 C 886.6666666666666 298.71393151930533 933.3333333333334 301.7237167444546 980.0 301.7237167444546 L 980.0 298.6648569989484 C 933.3333333333334 298.6648569989484 886.6666666666666 295.65507177379914 840.0 295.65507177379914 Z" /><g class="range_tree_recur_07"><path d="M 980.0 301.7237167444546 C 1026.6666666666665 301.7237167444546 1073.3333333333335 353.1946847832296 1120.0 353.1946847832296 L 1120.0 350.1358250377234 C 1073.3333333333335 350.1358250377234 1026.6666666666665 298.6648569989484 980.0 298.6648569989484 Z" /></g></g></g></g><g class="range_tree_recur_07"><path d="M 560.0 380.2423742681276 C 606.6666666666667 380.2423742681276 653.3333333333333 439.0914572530892 700.0 439.0914572530892 L 700.0 425.7285115972627 C 653.3333333333333 425.7285115972627 606.6666666666667 366.8794286123011 560.0 366.8794286123011 Z" /><g class="range_tree_recur_07"><path d="M 700.0 439.0914572530892 C 746.6666666666666 439.0914572530892 793.3333333333334 360.17287393449806 840.0 360.17287393449806 L 840.0 356.11652132472955 C 793.3333333333334 356.11652132472955 746.6666666666666 435.03510464332066 700.0 435.03510464332066 Z" /><g class="range_tree_recur_07"><path d="M 840.0 360.17287393449806 C 886.6666666666666 360.17287393449806 933.3333333333334 131.48418253404088 980.0 131.48418253404088 L 980.0 127.98241375596263 C 933.3333333333334 127.98241375596263 886.6666666666666 356.6711051564198 840.0 356.6711051564198 Z" /><g class="range_tree_recur_07"><path d="M 980.0 131.48418253404088 C 1026.6666666666665 131.48418253404088 1073.3333333333335 250.71977044804953 1120.0 250.71977044804953 L 1120.0 247.21800166997127 C 1073.3333333333335 247.21800166997127 1026.6666666666665 127.98241375596263 980.0 127.98241375596263 Z" /></g></g><g class="range_tree_recur_07"><path d="M 840.0 356.6711051564198 C 886.6666666666666 356.6711051564198 933.3333333333334 338.57336317305453 980.0 338.57336317305453 L 980.0 338.0187793413643 C 933.3333333333334 338.0187793413643 886.6666666666666 356.11652132472955 840.0 356.11652132472955 Z" /><g class="range_tree_recur_07"><path d="M 980.0 338.57336317305453 C 1026.6666666666665 338.57336317305453 1073.3333333333335 390.04433121182956 1120.0 390.04433121182956 L 1120.0 389.4897473801393 C 1073.3333333333335 389.4897473801393 1026.6666666666665 338.0187793413643 980.0 338.0187793413643 Z" /></g></g></g><g class="range_tree_recur_07"><path d="M 700.0 435.03510464332066 C 746.6666666666666 435.03510464332066 793.3333333333334 460.2589839545544 840.0 460.2589839545544 L 840.0 450.95239090849645 C 793.3333333333334 450.95239090849645 746.6666666666666 425.7285115972627 700.0 425.7285115972627 Z" /><g class="range_tree_recur_07"><path d="M 840.0 460.2589839545544 C 886.6666666666666 460.2589839545544 933.3333333333334 583.6116390314419 980.0 583.6116390314419 L 980.0 574.3050459853839 C 933.3333333333334 574.3050459853839 886.6666666666666 450.95239090849645 840.0 450.95239090849645 Z" /><g class="range_tree_recur_07"><path d="M 980.0 583.6116390314419 C 1026.6666666666665 583.6116390314419 1073.3333333333335 598.7671197380405 1120.0 598.7671197380405 L 1120.0 589.4605266919825 C 1073.3333333333335 589.4605266919825 1026.6666666666665 574.3050459853839 980.0 574.3050459853839 Z" /></g></g></g></g></g></g></g><g class="range_tree_recur_08"><path d="M 140.0 547.7045788534451 C 186.66666666666666 547.7045788534451 233.33333333333334 213.12454095692374 280.0 213.12454095692374 L 280.0 210.3022829128895 C 233.33333333333334 210.3022829128895 186.66666666666666 544.8823208094109 140.0 544.8823208094109 Z" /><g class="range_tree_recur_08"><path d="M 280.0 213.12454095692374 C 326.66666666666663 213.12454095692374 373.33333333333337 90.70209381286986 420.0 90.70209381286986 L 420.0 87.87983576883562 C 373.33333333333337 87.87983576883562 326.66666666666663 210.3022829128895 280.0 210.3022829128895 Z" /><g class="range_tree_recur_08"><path d="M 420.0 90.70209381286986 C 466.6666666666667 90.70209381286986 513.3333333333333 101.65578347747214 560.0 101.65578347747214 L 560.0 98.8335254334379 C 513.3333333333333 98.8335254334379 466.6666666666667 87.87983576883562 420.0 87.87983576883562 Z" /><g class="range_tree_recur_08"><path d="M 560.0 101.65578347747214 C 606.6666666666667 101.65578347747214 653.3333333333333 176.97265270049684 700.0 176.97265270049684 L 700.0 174.1503946564626 C 653.3333333333333 174.1503946564626 606.6666666666667 98.8335254334379 560.0 98.8335254334379 Z" /><g class="range_tree_recur_08"><path d="M 700.0 176.97265270049684 C 746.6666666666666 176.97265270049684 793.3333333333334 528.5829766269308 840.0 528.5829766269308 L 840.0 525.7607185828965 C 793.3333333333334 525.7607185828965 746.6666666666666 174.1503946564626 700.0 174.1503946564626 Z" /><g class="range_tree_recur_08"><path d="M 840.0 528.5829766269308 C 886.6666666666666 528.5829766269308 933.3333333333334 443.698666569544 980.0 443.698666569544 L 980.0 440.87640852550976 C 933.3333333333334 440.87640852550976 886.6666666666666 525.7607185828965 840.0 525.7607185828965 Z" /><g class="range_tree_recur_08"><path d="M 980.0 443.698666569544 C 1026.6666666666665 443.698666569544 1073.3333333333335 160.86153443553485 1120.0 160.86153443553485 L 1120.0 158.0392763915006 C 1073.3333333333335 158.0392763915006 1026.6666666666665 440.87640852550976 980.0 440.87640852550976 Z" /></g></g></g></g></g></g></g><g class="range_tree_recur_08"><path d="M 140.0 544.8823208094109 C 186.66666666666666 544.8823208094109 233.33333333333334 523.3282848482486 280.0 523.3282848482486 L 280.0 487.51577399089 C 233.33333333333334 487.51577399089 186.66666666666666 509.0698099520523 140.0 509.0698099520523 Z" /><g class="range_tree_recur_08"><path d="M 280.0 523.3282848482486 C 326.66666666666663 523.3282848482486 373.33333333333337 287.3431117495056 420.0 287.3431117495056 L 420.0 251.53060089214705 C 373.33333333333337 251.53060089214705 326.66666666666663 487.51577399089 280.0 487.51577399089 Z" /><g class="range_tree_recur_08"><path d="M 420.0 287.3431117495056 C 466.6666666666667 287.3431117495056 513.3333333333333 147.45309672667645 560.0 147.45309672667645 L 560.0 122.08996369619854 C 513.3333333333333 122.08996369619854 466.6666666666667 261.9799787190277 420.0 261.9799787190277 Z" /><g class="range_tree_recur_08"><path d="M 560.0 147.45309672667645 C 606.6666666666667 147.45309672667645 653.3333333333333 241.02161321905442 700.0 241.02161321905442 L 700.0 240.95227175974287 C 653.3333333333333 240.95227175974287 606.6666666666667 147.3837552673649 560.0 147.3837552673649 Z" /><g class="range_tree_recur_08"><path d="M 700.0 241.02161321905442 C 746.6666666666666 241.02161321905442 793.3333333333334 592.6319371454883 840.0 592.6319371454883 L 840.0 592.5625956861768 C 793.3333333333334 592.5625956861768 746.6666666666666 240.95227175974287 700.0 240.95227175974287 Z" /><g class="range_tree_recur_08"><path d="M 840.0 592.6319371454883 C 886.6666666666666 592.6319371454883 933.3333333333334 507.7476270881016 980.0 507.7476270881016 L 980.0 507.67828562879004 C 933.3333333333334 507.67828562879004 886.6666666666666 592.5625956861768 840.0 592.5625956861768 Z" /><g class="range_tree_recur_08"><path d="M 980.0 507.7476270881016 C 1026.6666666666665 507.7476270881016 1073.3333333333335 522.9031077947002 1120.0 522.9031077947002 L 1120.0 522.8337663353886 C 1073.3333333333335 522.8337663353886 1026.6666666666665 507.67828562879004 980.0 507.67828562879004 Z" /></g></g></g></g><g class="range_tree_recur_08"><path d="M 560.0 147.3837552673649 C 606.6666666666667 147.3837552673649 653.3333333333333 222.7006244903896 700.0 222.7006244903896 L 700.0 197.40683291922323 C 653.3333333333333 197.40683291922323 606.6666666666667 122.08996369619854 560.0 122.08996369619854 Z" /><g class="range_tree_recur_08"><path d="M 700.0 222.7006244903896 C 746.6666666666666 222.7006244903896 793.3333333333334 574.3109484168235 840.0 574.3109484168235 L 840.0 549.0171568456572 C 793.3333333333334 549.0171568456572 746.6666666666666 197.40683291922323 700.0 197.40683291922323 Z" /><g class="range_tree_recur_08"><path d="M 840.0 574.3109484168235 C 886.6666666666666 574.3109484168235 933.3333333333334 489.42663835943677 980.0 489.42663835943677 L 980.0 464.1328467882704 C 933.3333333333334 464.1328467882704 886.6666666666666 549.0171568456572 840.0 549.0171568456572 Z" /><g class="range_tree_recur_08"><path d="M 980.0 489.42663835943677 C 1026.6666666666665 489.42663835943677 1073.3333333333335 489.42663835943677 1120.0 489.42663835943677 L 1120.0 464.1328467882704 C 1073.3333333333335 464.1328467882704 1026.6666666666665 464.1328467882704 980.0 464.1328467882704 Z" /></g></g></g></g></g><g class="range_tree_recur_08"><path d="M 420.0 261.9799787190277 C 466.6666666666667 261.9799787190277 513.3333333333333 526.6262052103411 560.0 526.6262052103411 L 560.0 516.1768273834605 C 513.3333333333333 516.1768273834605 466.6666666666667 251.53060089214705 420.0 251.53060089214705 Z" /><g class="range_tree_recur_08"><path d="M 560.0 526.6262052103411 C 606.6666666666667 526.6262052103411 653.3333333333333 359.0932516066823 700.0 359.0932516066823 L 700.0 350.9652702708263 C 653.3333333333333 350.9652702708263 606.6666666666667 518.4982238744851 560.0 518.4982238744851 Z" /><g class="range_tree_recur_08"><path d="M 700.0 359.0932516066823 C 746.6666666666666 359.0932516066823 793.3333333333334 260.4246501449961 840.0 260.4246501449961 L 840.0 252.2966688091401 C 793.3333333333334 252.2966688091401 746.6666666666666 350.9652702708263 700.0 350.9652702708263 Z" /><g class="range_tree_recur_08"><path d="M 840.0 260.4246501449961 C 886.6666666666666 260.4246501449961 933.3333333333334 223.91012380016036 980.0 223.91012380016036 L 980.0 223.61710016266443 C 933.3333333333334 223.61710016266443 886.6666666666666 260.1316265075002 840.0 260.1316265075002 Z" /><g class="range_tree_recur_08"><path d="M 980.0 223.91012380016036 C 1026.6666666666665 223.91012380016036 1073.3333333333335 106.35815870133229 1120.0 106.35815870133229 L 1120.0 106.06513506383635 C 1073.3333333333335 106.06513506383635 1026.6666666666665 223.61710016266443 980.0 223.61710016266443 Z" /></g></g><g class="range_tree_recur_08"><path d="M 840.0 260.1316265075002 C 886.6666666666666 260.1316265075002 933.3333333333334 294.2656564002391 980.0 294.2656564002391 L 980.0 286.430698701879 C 933.3333333333334 286.430698701879 886.6666666666666 252.2966688091401 840.0 252.2966688091401 Z" /><g class="range_tree_recur_08"><path d="M 980.0 294.2656564002391 C 1026.6666666666665 294.2656564002391 1073.3333333333335 345.7366244390141 1120.0 345.7366244390141 L 1120.0 337.90166674065404 C 1073.3333333333335 337.90166674065404 1026.6666666666665 286.430698701879 980.0 286.430698701879 Z" /></g></g></g></g><g class="range_tree_recur_08"><path d="M 560.0 518.4982238744851 C 606.6666666666667 518.4982238744851 653.3333333333333 561.2750075489748 700.0 561.2750075489748 L 700.0 560.7598944276106 C 653.3333333333333 560.7598944276106 606.6666666666667 517.9831107531209 560.0 517.9831107531209 Z" /><g class="range_tree_recur_08"><path d="M 700.0 561.2750075489748 C 746.6666666666666 561.2750075489748 793.3333333333334 101.19148912956007 840.0 101.19148912956007 L 840.0 100.6763760081958 C 793.3333333333334 100.6763760081958 746.6666666666666 560.7598944276106 700.0 560.7598944276106 Z" /><g class="range_tree_recur_08"><path d="M 840.0 101.19148912956007 C 886.6666666666666 101.19148912956007 933.3333333333334 205.3856118035037 980.0 205.3856118035037 L 980.0 204.87049868213944 C 933.3333333333334 204.87049868213944 886.6666666666666 100.6763760081958 840.0 100.6763760081958 Z" /><g class="range_tree_recur_08"><path d="M 980.0 205.3856118035037 C 1026.6666666666665 205.3856118035037 1073.3333333333335 87.83364670467563 1120.0 87.83364670467563 L 1120.0 87.31853358331136 C 1073.3333333333335 87.31853358331136 1026.6666666666665 204.87049868213944 980.0 204.87049868213944 Z" /></g></g></g></g><g class="range_tree_recur_08"><path d="M 560.0 517.9831107531209 C 606.6666666666667 517.9831107531209 653.3333333333333 423.9041469467338 700.0 423.9041469467338 L 700.0 422.09786357707344 C 653.3333333333333 422.09786357707344 606.6666666666667 516.1768273834605 560.0 516.1768273834605 Z" /><g class="range_tree_recur_08"><path d="M 700.0 423.9041469467338 C 746.6666666666666 423.9041469467338 793.3333333333334 449.1280262579676 840.0 449.1280262579676 L 840.0 447.3217428883072 C 793.3333333333334 447.3217428883072 746.6666666666666 422.09786357707344 700.0 422.09786357707344 Z" /><g class="range_tree_recur_08"><path d="M 840.0 449.1280262579676 C 886.6666666666666 449.1280262579676 933.3333333333334 572.480681334855 980.0 572.480681334855 L 980.0 570.6743979651947 C 933.3333333333334 570.6743979651947 886.6666666666666 447.3217428883072 840.0 447.3217428883072 Z" /><g class="range_tree_recur_08"><path d="M 980.0 572.480681334855 C 1026.6666666666665 572.480681334855 1073.3333333333335 587.6361620414536 1120.0 587.6361620414536 L 1120.0 585.8298786717933 C 1073.3333333333335 585.8298786717933 1026.6666666666665 570.6743979651947 980.0 570.6743979651947 Z" /></g></g></g></g></g></g></g><g class="range_tree_recur_09"><path d="M 140.0 354.9841107556131 C 186.66666666666666 354.9841107556131 233.33333333333334 560.5506956682075 280.0 560.5506956682075 L 280.0 556.8199605925474 C 233.33333333333334 556.8199605925474 186.66666666666666 351.253375679953 140.0 351.253375679953 Z" /><g class="range_tree_recur_09"><path d="M 280.0 560.5506956682075 C 326.66666666666663 560.5506956682075 373.33333333333337 560.5506956682075 420.0 560.5506956682075 L 420.0 556.8199605925474 C 373.33333333333337 556.8199605925474 326.66666666666663 556.8199605925474 280.0 556.8199605925474 Z" /><g class="range_tree_recur_09"><path d="M 420.0 560.5506956682075 C 466.6666666666667 560.5506956682075 513.3333333333333 613.9427564351354 560.0 613.9427564351354 L 560.0 610.2120213594753 C 513.3333333333333 610.2120213594753 466.6666666666667 556.8199605925474 420.0 556.8199605925474 Z" /><g class="range_tree_recur_09"><path d="M 560.0 613.9427564351354 C 606.6666666666667 613.9427564351354 653.3333333333333 298.57317468733527 700.0 298.57317468733527 L 700.0 294.8424396116752 C 653.3333333333333 294.8424396116752 606.6666666666667 610.2120213594753 560.0 610.2120213594753 Z" /><g class="range_tree_recur_09"><path d="M 700.0 298.57317468733527 C 746.6666666666666 298.57317468733527 793.3333333333334 136.8880398699548 840.0 136.8880398699548 L 840.0 134.04467613785528 C 793.3333333333334 134.04467613785528 746.6666666666666 295.72981095523573 700.0 295.72981095523573 Z" /><g class="range_tree_recur_09"><path d="M 840.0 136.8880398699548 C 886.6666666666666 136.8880398699548 933.3333333333334 101.9914715748746 980.0 101.9914715748746 L 980.0 99.14810784277506 C 933.3333333333334 99.14810784277506 886.6666666666666 134.04467613785528 840.0 134.04467613785528 Z" /><g class="range_tree_recur_09"><path d="M 980.0 101.9914715748746 C 1026.6666666666665 101.9914715748746 1073.3333333333335 221.22705948888324 1120.0 221.22705948888324 L 1120.0 218.3836957567837 C 1073.3333333333335 218.3836957567837 1026.6666666666665 99.14810784277506 980.0 99.14810784277506 Z" /></g></g></g><g class="range_tree_recur_09"><path d="M 700.0 295.72981095523573 C 746.6666666666666 295.72981095523573 793.3333333333334 356.11652132472955 840.0 356.11652132472955 L 840.0 355.22914998116903 C 793.3333333333334 355.22914998116903 746.6666666666666 294.8424396116752 700.0 294.8424396116752 Z" /><g class="range_tree_recur_09"><path d="M 840.0 356.11652132472955 C 886.6666666666666 356.11652132472955 933.3333333333334 338.0187793413643 980.0 338.0187793413643 L 980.0 337.13140799780376 C 933.3333333333334 337.13140799780376 886.6666666666666 355.22914998116903 840.0 355.22914998116903 Z" /><g class="range_tree_recur_09"><path d="M 980.0 338.0187793413643 C 1026.6666666666665 338.0187793413643 1073.3333333333335 389.4897473801393 1120.0 389.4897473801393 L 1120.0 388.6023760365788 C 1073.3333333333335 388.6023760365788 1026.6666666666665 337.13140799780376 980.0 337.13140799780376 Z" /></g></g></g></g></g></g></g></g></svg>