<?xml version="1.0" encoding="utf-8" ?>
<svg baseProfile="full" height="680" version="1.1" width="1400" xmlns="http://www.w3.org/2000/svg" xmlns:ev="http://www.w3.org/2001/xml-events" xmlns:xlink="http://www.w3.org/1999/xlink"><defs><style type="text/css"><![CDATA[.range_tree_00{opacity:1;stroke:#4ce5e6;fill:#4ce5e6;stroke-width:1.5;fill-opacity:0.6;}
.range_tree_00:hover{opacity:1;}]]></style></defs><rect fill="#07273B" height="680" width="1400" x="0" y="0" /><text fill="#FFD700" font-family="Fira Code" font-size="16px" font-weight="bold" stroke="none" text-anchor="middle" x="630.0" y="20.0">Visualizing a simple tree</text><g><text fill="#4ce5e6" font-family="Fira Code" font-size="14px" font-weight="bold" stroke="none" text-anchor="middle" x="140.0" y="665.0">Seed</text><text fill="#6aff98" font-family="Fira Code" font-size="14px" font-weight="bold" stroke="none" text-anchor="middle" x="280.0" y="665.0">Soil</text><text fill="#b2ff5a" font-family="Fira Code" font-size="14px" font-weight="bold" stroke="none" text-anchor="middle" x="420.0" y="665.0">Fertilizer</text><text fill="#fbcd50" font-family="Fira Code" font-size="14px" font-weight="bold" stroke="none" text-anchor="middle" x="560.0" y="665.0">Water</text><text fill="#ff807f" font-family="Fira Code" font-size="14px" font-weight="bold" stroke="none" text-anchor="middle" x="700.0" y="665.0">Light</text><text fill="#fb50cd" font-family="Fira Code" font-size="14px" font-weight="bold" stroke="none" text-anchor="middle" x="840.0" y="665.0">Temperature</text><text fill="#b35aff" font-family="Fira Code" font-size="14px" font-weight="bold" stroke="none" text-anchor="middle" x="980.0" y="665.0">Humidity</text><text fill="#6a98ff" font-family="Fira Code" font-size="14px" font-weight="bold" stroke="none" text-anchor="middle" x="1120.0" y="665.0">Location</text></g><g id="grid" stroke="#5988a6" stroke-width="2"><line x1="140.0" x2="140.0" y1="40" y2="650" /><line x1="280.0" x2="280.0" y1="40" y2="650" /><line x1="420.0" x2="420.0" y1="40" y2="650" /><line x1="560.0" x2="560.0" y1="40" y2="650" /><line x1="700.0" x2="700.0" y1="40" y2="650" /><line x1="840.0" x2="840.0" y1="40" y2="650" /><line x1="980.0" x2="980.0" y1="40" y2="650" /><line x1="1120.0" x2="1120.0" y1="40" y2="650" /></g><g id="range_trees"><g class="range_tree_00"><path d="M 140.0 66.5247741118626 C 186.66666666666666 66.5247741118626 233.33333333333334 266.4997921306539 280.0 266.4997921306539 C 326.66666666666663 266.4997921306539 373.33333333333337 62.744693780619286 420.0 62.744693780619286 C 466.6666666666667 62.744693780619286 513.3333333333333 73.81591131514233 560.0 73.81591131514233 C 606.6666666666667 73.81591131514233 653.3333333333333 149.94089465130367 700.0 149.94089465130367 C 746.6666666666666 149.94089465130367 793.3333333333334 505.3238297871617 840.0 505.3238297871617 C 886.6666666666666 505.3238297871617 933.3333333333334 630.0000000670688 980.0 630.0000000670688 C 1026.6666666666665 630.0000000670688 1073.3333333333335 514.9651504819471 1120.0 514.9651504819471 L 1120.0 512.2204567683966 C 1073.3333333333335 512.2204567683966 1026.6666666666665 627.2553063535182 980.0 627.2553063535182 C 933.3333333333334 627.2553063535182 886.6666666666666 502.57913607361115 840.0 502.57913607361115 C 793.3333333333334 502.57913607361115 746.6666666666666 147.1962009377532 700.0 147.1962009377532 C 653.3333333333333 147.1962009377532 606.6666666666667 71.0712176015918 560.0 71.0712176015918 C 513.3333333333333 71.0712176015918 466.6666666666667 60.000000067068754 420.0 60.000000067068754 C 373.33333333333337 60.000000067068754 326.66666666666663 263.75509841710334 280.0 263.75509841710334 C 233.33333333333334 263.75509841710334 186.66666666666666 63.780080398312066 140.0 63.780080398312066 Z" /></g></g></svg>