<?xml version="1.0" encoding="utf-8" ?>
<svg baseProfile="full" height="680" version="1.1" width="1400" xmlns="http://www.w3.org/2000/svg" xmlns:ev="http://www.w3.org/2001/xml-events" xmlns:xlink="http://www.w3.org/1999/xlink"><defs><style type="text/css"><![CDATA[.range_tree_00{opacity:1;stroke:#93ff6e;fill:#93ff6e;stroke-width:1.5;fill-opacity:0.6;}
.range_tree_00:hover{opacity:1;}]]></style></defs><rect fill="#07273B" height="680" width="1400" x="0" y="0" /><text fill="#FFD700" font-family="Fira Code" font-size="16px" font-weight="bold" stroke="none" text-anchor="middle" x="630.0" y="20.0">Visualizing a complex tree</text><g><text fill="#4ce5e6" font-family="Fira Code" font-size="14px" font-weight="bold" stroke="none" text-anchor="middle" x="140.0" y="665.0">Seed</text><text fill="#6aff98" font-family="Fira Code" font-size="14px" font-weight="bold" stroke="none" text-anchor="middle" x="280.0" y="665.0">Soil</text><text fill="#b2ff5a" font-family="Fira Code" font-size="14px" font-weight="bold" stroke="none" text-anchor="middle" x="420.0" y="665.0">Fertilizer</text><text fill="#fbcd50" font-family="Fira Code" font-size="14px" font-weight="bold" stroke="none" text-anchor="middle" x="560.0" y="665.0">Water</text><text fill="#ff807f" font-family="Fira Code" font-size="14px" font-weight="bold" stroke="none" text-anchor="middle" x="700.0" y="665.0">Light</text><text fill="#fb50cd" font-family="Fira Code" font-size="14px" font-weight="bold" stroke="none" text-anchor="middle" x="840.0" y="665.0">Temperature</text><text fill="#b35aff" font-family="Fira Code" font-size="14px" font-weight="bold" stroke="none" text-anchor="middle" x="980.0" y="665.0">Humidity</text><text fill="#6a98ff" font-family="Fira Code" font-size="14px" font-weight="bold" stroke="none" text-anchor="middle" x="1120.0" y="665.0">Location</text></g><g id="grid" stroke="#5988a6" stroke-width="2"><line x1="140.0" x2="140.0" y1="40" y2="650" /><line x1="280.0" x2="280.0" y1="40" y2="650" /><line x1="420.0" x2="420.0" y1="40" y2="650" /><line x1="560.0" x2="560.0" y1="40" y2="650" /><line x1="700.0" x2="700.0" y1="40" y2="650" /><line x1="840.0" x2="840.0" y1="40" y2="650" /><line x1="980.0" x2="980.0" y1="40" y2="650" /><line x1="1120.0" x2="1120.0" y1="40" y2="650" /></g><g id="range_trees"><g class="range_tree_00"><path d="M 140.0 217.36395082552917 C 186.66666666666666 217.36395082552917 233.33333333333334 180.76764007215388 280.0 180.76764007215388 C 326.66666666666663 180.76764007215388 373.33333333333337 525.2011130063329 420.0 525.2011130063329 C 466.6666666666667 525.2011130063329 513.3333333333333 332.61217337683775 560.0 332.61217337683775 C 606.6666666666667 332.61217337683775 653.3333333333333 594.2020363302436 700.0 594.2020363302436 C 746.6666666666666 594.2020363302436 793.3333333333334 62.834021168528125 840.0 62.834021168528125 C 886.6666666666666 62.834021168528125 933.3333333333334 239.46314663509838 980.0 239.46314663509838 C 1026.6666666666665 239.46314663509838 1073.3333333333335 419.90997789544053 1120.0 419.90997789544053 L 1120.0 417.07595679326914 C 1073.3333333333335 417.07595679326914 1026.6666666666665 236.629125532927 980.0 236.629125532927 C 933.3333333333334 236.629125532927 886.6666666666666 60.00000006635673 840.0 60.00000006635673 C 793.3333333333334 60.00000006635673 746.6666666666666 591.3680152280722 700.0 591.3680152280722 C 746.6666666666666 591.3680152280722 793.3333333333334 131.28449680865742 840.0 131.28449680865742 C 886.6666666666666 131.28449680865742 933.3333333333334 96.38792851357721 980.0 96.38792851357721 C 1026.6666666666665 96.38792851357721 1073.3333333333335 215.62351642758586 1120.0 215.62351642758586 L 1120.0 202.59026048588566 C 1073.3333333333335 202.59026048588566 1026.6666666666665 83.35467257187702 980.0 83.35467257187702 C 933.3333333333334 83.35467257187702 886.6666666666666 118.25124086695723 840.0 118.25124086695723 C 793.3333333333334 118.25124086695723 746.6666666666666 578.334759286372 700.0 578.334759286372 C 653.3333333333333 578.334759286372 606.6666666666667 316.74489633296616 560.0 316.74489633296616 C 606.6666666666667 316.74489633296616 653.3333333333333 553.7120406597387 700.0 553.7120406597387 C 746.6666666666666 553.7120406597387 793.3333333333334 93.62852224032395 840.0 93.62852224032395 C 886.6666666666666 93.62852224032395 933.3333333333334 197.82264491426758 980.0 197.82264491426758 C 1026.6666666666665 197.82264491426758 1073.3333333333335 80.27067981543951 1120.0 80.27067981543951 L 1120.0 78.07942493702285 C 1073.3333333333335 78.07942493702285 1026.6666666666665 195.63139003585093 980.0 195.63139003585093 C 933.3333333333334 195.63139003585093 886.6666666666666 91.43726736190729 840.0 91.43726736190729 C 793.3333333333334 91.43726736190729 746.6666666666666 551.520785781322 700.0 551.520785781322 C 653.3333333333333 551.520785781322 606.6666666666667 314.5536414545495 560.0 314.5536414545495 C 606.6666666666667 314.5536414545495 653.3333333333333 461.9840121769812 700.0 461.9840121769812 C 746.6666666666666 461.9840121769812 793.3333333333334 468.80768210976385 840.0 468.80768210976385 C 886.6666666666666 468.80768210976385 933.3333333333334 592.1603371866513 980.0 592.1603371866513 C 1026.6666666666665 592.1603371866513 1073.3333333333335 607.3158178932499 1120.0 607.3158178932499 L 1120.0 600.1452232792508 C 1073.3333333333335 600.1452232792508 1026.6666666666665 584.9897425726522 980.0 584.9897425726522 C 933.3333333333334 584.9897425726522 886.6666666666666 461.6370874957647 840.0 461.6370874957647 C 793.3333333333334 461.6370874957647 746.6666666666666 454.81341756298207 700.0 454.81341756298207 C 653.3333333333333 454.81341756298207 606.6666666666667 307.3830468405504 560.0 307.3830468405504 C 513.3333333333333 307.3830468405504 466.6666666666667 499.9719864700455 420.0 499.9719864700455 C 373.33333333333337 499.9719864700455 326.66666666666663 155.5385135358665 280.0 155.5385135358665 C 326.66666666666663 155.5385135358665 373.33333333333337 314.11608953378163 420.0 314.11608953378163 C 466.6666666666667 314.11608953378163 513.3333333333333 334.70288055134006 560.0 334.70288055134006 C 606.6666666666667 334.70288055134006 653.3333333333333 596.2927435047459 700.0 596.2927435047459 C 746.6666666666666 596.2927435047459 793.3333333333334 64.92472834303044 840.0 64.92472834303044 C 886.6666666666666 64.92472834303044 933.3333333333334 169.11885101697408 980.0 169.11885101697408 C 1026.6666666666665 169.11885101697408 1073.3333333333335 288.3544389309827 1120.0 288.3544389309827 L 1120.0 287.68882396048866 C 1073.3333333333335 287.68882396048866 1026.6666666666665 168.45323604648001 980.0 168.45323604648001 C 933.3333333333334 168.45323604648001 886.6666666666666 64.25911337253638 840.0 64.25911337253638 C 793.3333333333334 64.25911337253638 746.6666666666666 595.6271285342518 700.0 595.6271285342518 C 653.3333333333333 595.6271285342518 606.6666666666667 334.037265580846 560.0 334.037265580846 C 513.3333333333333 334.037265580846 466.6666666666667 313.45047456328757 420.0 313.45047456328757 C 466.6666666666667 313.45047456328757 513.3333333333333 173.5604595404584 560.0 173.5604595404584 C 606.6666666666667 173.5604595404584 653.3333333333333 91.90626082825474 700.0 91.90626082825474 C 746.6666666666666 91.90626082825474 793.3333333333334 207.41736553260125 840.0 207.41736553260125 C 886.6666666666666 207.41736553260125 933.3333333333334 393.7326350051444 980.0 393.7326350051444 C 1026.6666666666665 393.7326350051444 1073.3333333333335 454.87220631097443 1120.0 454.87220631097443 L 1120.0 440.6353501731064 C 1073.3333333333335 440.6353501731064 1026.6666666666665 379.4957788672764 980.0 379.4957788672764 C 1026.6666666666665 379.4957788672764 1073.3333333333335 315.3926290513482 1120.0 315.3926290513482 L 1120.0 314.7844815335702 C 1073.3333333333335 314.7844815335702 1026.6666666666665 378.8876313494984 980.0 378.8876313494984 C 933.3333333333334 378.8876313494984 886.6666666666666 192.57236187695526 840.0 192.57236187695526 C 793.3333333333334 192.57236187695526 746.6666666666666 77.06125717260875 700.0 77.06125717260875 C 653.3333333333333 77.06125717260875 606.6666666666667 158.7154558848124 560.0 158.7154558848124 C 513.3333333333333 158.7154558848124 466.6666666666667 298.6054709076416 420.0 298.6054709076416 C 373.33333333333337 298.6054709076416 326.66666666666663 140.02789490972646 280.0 140.02789490972646 C 326.66666666666663 140.02789490972646 373.33333333333337 323.2245815859642 420.0 323.2245815859642 C 466.6666666666667 323.2245815859642 513.3333333333333 343.8113726035226 560.0 343.8113726035226 C 606.6666666666667 343.8113726035226 653.3333333333333 605.4012355569284 700.0 605.4012355569284 C 746.6666666666666 605.4012355569284 793.3333333333334 605.4012355569284 840.0 605.4012355569284 C 886.6666666666666 605.4012355569284 933.3333333333334 520.5169254995417 980.0 520.5169254995417 C 1026.6666666666665 520.5169254995417 1073.3333333333335 535.6724062061403 1120.0 535.6724062061403 L 1120.0 528.8681474758778 C 1073.3333333333335 528.8681474758778 1026.6666666666665 513.7126667692792 980.0 513.7126667692792 C 933.3333333333334 513.7126667692792 886.6666666666666 598.5969768266659 840.0 598.5969768266659 C 793.3333333333334 598.5969768266659 746.6666666666666 598.5969768266659 700.0 598.5969768266659 C 746.6666666666666 598.5969768266659 793.3333333333334 67.22896166495048 840.0 67.22896166495048 C 886.6666666666666 67.22896166495048 933.3333333333334 171.4230843388941 980.0 171.4230843388941 C 1026.6666666666665 171.4230843388941 1073.3333333333335 290.65867225290276 1120.0 290.65867225290276 L 1120.0 288.3544389309827 C 1073.3333333333335 288.3544389309827 1026.6666666666665 169.11885101697408 980.0 169.11885101697408 C 933.3333333333334 169.11885101697408 886.6666666666666 64.92472834303044 840.0 64.92472834303044 C 793.3333333333334 64.92472834303044 746.6666666666666 596.2927435047459 700.0 596.2927435047459 C 653.3333333333333 596.2927435047459 606.6666666666667 334.70288055134006 560.0 334.70288055134006 C 513.3333333333333 334.70288055134006 466.6666666666667 314.11608953378163 420.0 314.11608953378163 C 373.33333333333337 314.11608953378163 326.66666666666663 130.9194028575439 280.0 130.9194028575439 C 326.66666666666663 130.9194028575439 373.33333333333337 499.9719864700455 420.0 499.9719864700455 C 466.6666666666667 499.9719864700455 513.3333333333333 307.3830468405504 560.0 307.3830468405504 C 606.6666666666667 307.3830468405504 653.3333333333333 454.81341756298207 700.0 454.81341756298207 C 746.6666666666666 454.81341756298207 793.3333333333334 461.6370874957647 840.0 461.6370874957647 C 886.6666666666666 461.6370874957647 933.3333333333334 584.9897425726522 980.0 584.9897425726522 C 1026.6666666666665 584.9897425726522 1073.3333333333335 600.1452232792508 1120.0 600.1452232792508 L 1120.0 598.7671197380405 C 1073.3333333333335 598.7671197380405 1026.6666666666665 583.6116390314419 980.0 583.6116390314419 C 933.3333333333334 583.6116390314419 886.6666666666666 460.2589839545544 840.0 460.2589839545544 C 793.3333333333334 460.2589839545544 746.6666666666666 453.4353140217718 700.0 453.4353140217718 C 746.6666666666666 453.4353140217718 793.3333333333334 374.51673070318066 840.0 374.51673070318066 C 886.6666666666666 374.51673070318066 933.3333333333334 145.82803930272348 980.0 145.82803930272348 C 1026.6666666666665 145.82803930272348 1073.3333333333335 265.06362721673213 1120.0 265.06362721673213 L 1120.0 250.71977044804953 C 1073.3333333333335 250.71977044804953 1026.6666666666665 131.48418253404088 980.0 131.48418253404088 C 933.3333333333334 131.48418253404088 886.6666666666666 360.17287393449806 840.0 360.17287393449806 C 793.3333333333334 360.17287393449806 746.6666666666666 439.0914572530892 700.0 439.0914572530892 C 653.3333333333333 439.0914572530892 606.6666666666667 291.6610865306575 560.0 291.6610865306575 C 606.6666666666667 291.6610865306575 653.3333333333333 630.0000000663567 700.0 630.0000000663567 C 746.6666666666666 630.0000000663567 793.3333333333334 630.0000000663567 840.0 630.0000000663567 C 886.6666666666666 630.0000000663567 933.3333333333334 545.11569000897 980.0 545.11569000897 C 1026.6666666666665 545.11569000897 1073.3333333333335 560.2711707155686 1120.0 560.2711707155686 L 1120.0 558.176020294195 C 1073.3333333333335 558.176020294195 1026.6666666666665 543.0205395875964 980.0 543.0205395875964 C 933.3333333333334 543.0205395875964 886.6666666666666 627.9048496449832 840.0 627.9048496449832 C 793.3333333333334 627.9048496449832 746.6666666666666 627.9048496449832 700.0 627.9048496449832 C 653.3333333333333 627.9048496449832 606.6666666666667 289.56593610928394 560.0 289.56593610928394 C 606.6666666666667 289.56593610928394 653.3333333333333 289.56593610928394 700.0 289.56593610928394 C 746.6666666666666 289.56593610928394 793.3333333333334 349.95264647877775 840.0 349.95264647877775 C 886.6666666666666 349.95264647877775 933.3333333333334 331.8549044954125 980.0 331.8549044954125 C 1026.6666666666665 331.8549044954125 1073.3333333333335 383.3258725341875 1120.0 383.3258725341875 L 1120.0 378.2043047051411 C 1073.3333333333335 378.2043047051411 1026.6666666666665 326.7333366663661 980.0 326.7333366663661 C 933.3333333333334 326.7333366663661 886.6666666666666 344.83107864973135 840.0 344.83107864973135 C 886.6666666666666 344.83107864973135 933.3333333333334 167.5242168281693 980.0 167.5242168281693 C 1026.6666666666665 167.5242168281693 1073.3333333333335 286.75980474217795 1120.0 286.75980474217795 L 1120.0 284.18173496495 C 1073.3333333333335 284.18173496495 1026.6666666666665 164.94614705094136 980.0 164.94614705094136 C 933.3333333333334 164.94614705094136 886.6666666666666 342.2530088725034 840.0 342.2530088725034 C 886.6666666666666 342.2530088725034 933.3333333333334 223.61710016266443 980.0 223.61710016266443 C 1026.6666666666665 223.61710016266443 1073.3333333333335 106.06513506383635 1120.0 106.06513506383635 L 1120.0 94.04730595531873 C 1073.3333333333335 94.04730595531873 1026.6666666666665 211.5992710541468 980.0 211.5992710541468 C 933.3333333333334 211.5992710541468 886.6666666666666 330.2351797639858 840.0 330.2351797639858 C 886.6666666666666 330.2351797639858 933.3333333333334 413.5843210865278 980.0 413.5843210865278 C 1026.6666666666665 413.5843210865278 1073.3333333333335 130.74718895251863 1120.0 130.74718895251863 L 1120.0 123.68155078380369 C 1073.3333333333335 123.68155078380369 1026.6666666666665 406.51868291781284 980.0 406.51868291781284 C 933.3333333333334 406.51868291781284 886.6666666666666 323.16954159527086 840.0 323.16954159527086 C 793.3333333333334 323.16954159527086 746.6666666666666 262.78283122577704 700.0 262.78283122577704 C 653.3333333333333 262.78283122577704 606.6666666666667 262.78283122577704 560.0 262.78283122577704 C 606.6666666666667 262.78283122577704 653.3333333333333 74.82421628083102 700.0 74.82421628083102 C 746.6666666666666 74.82421628083102 793.3333333333334 190.33532098517753 840.0 190.33532098517753 C 886.6666666666666 190.33532098517753 933.3333333333334 376.6505904577207 980.0 376.6505904577207 C 1026.6666666666665 376.6505904577207 1073.3333333333335 312.5474406417925 1120.0 312.5474406417925 L 1120.0 309.4974042184185 C 1073.3333333333335 309.4974042184185 1026.6666666666665 373.6005540343467 980.0 373.6005540343467 C 933.3333333333334 373.6005540343467 886.6666666666666 187.28528456180356 840.0 187.28528456180356 C 793.3333333333334 187.28528456180356 746.6666666666666 71.77417985745706 700.0 71.77417985745706 C 653.3333333333333 71.77417985745706 606.6666666666667 259.7327948024031 560.0 259.7327948024031 C 606.6666666666667 259.7327948024031 653.3333333333333 103.56444533332251 700.0 103.56444533332251 C 746.6666666666666 103.56444533332251 793.3333333333334 219.07555003766902 840.0 219.07555003766902 C 886.6666666666666 219.07555003766902 933.3333333333334 253.20957993040793 980.0 253.20957993040793 C 1026.6666666666665 253.20957993040793 1073.3333333333335 433.6564111907501 1120.0 433.6564111907501 L 1120.0 432.7710402372759 C 1073.3333333333335 432.7710402372759 1026.6666666666665 252.32420897693373 980.0 252.32420897693373 C 933.3333333333334 252.32420897693373 886.6666666666666 218.19017908419482 840.0 218.19017908419482 C 793.3333333333334 218.19017908419482 746.6666666666666 102.67907437984832 700.0 102.67907437984832 C 653.3333333333333 102.67907437984832 606.6666666666667 258.8474238489289 560.0 258.8474238489289 C 513.3333333333333 258.8474238489289 466.6666666666667 451.436363478424 420.0 451.436363478424 C 373.33333333333337 451.436363478424 326.66666666666663 82.3837798659224 280.0 82.3837798659224 C 233.33333333333334 82.3837798659224 186.66666666666666 118.9800906192977 140.0 118.9800906192977 Z" /></g></g></svg>