<?xml version="1.0" encoding="utf-8" ?>
<svg baseProfile="full" height="680" version="1.1" width="1400" xmlns="http://www.w3.org/2000/svg" xmlns:ev="http://www.w3.org/2001/xml-events" xmlns:xlink="http://www.w3.org/1999/xlink"><defs><style type="text/css"><![CDATA[.range_tree_recur_00{opacity:0.2;stroke:#4ce5e6;fill:#4ce5e6;stroke-width:1.5;fill-opacity:0.6;}
.range_tree_recur_00:hover{opacity:1;}]]></style><style type="text/css"><![CDATA[.range_tree_recur_01{opacity:0.2;stroke:#ff807f;fill:#ff807f;stroke-width:1.5;fill-opacity:0.6;}
.range_tree_recur_01:hover{opacity:1;}]]></style></defs><rect fill="#07273B" height="680" width="1400" x="0" y="0" /><text fill="#FFD700" font-family="Fira Code" font-size="16px" font-weight="bold" stroke="none" text-anchor="middle" x="630.0" y="20.0">Visualizing all the trees</text><g><text fill="#4ce5e6" font-family="Fira Code" font-size="14px" font-weight="bold" stroke="none" text-anchor="middle" x="140.0" y="665.0">Seed</text><text fill="#6aff98" font-family="Fira Code" font-size="14px" font-weight="bold" stroke="none" text-anchor="middle" x="280.0" y="665.0">Soil</text><text fill="#b2ff5a" font-family="Fira Code" font-size="14px" font-weight="bold" stroke="none" text-anchor="middle" x="420.0" y="665.0">Fertilizer</text><text fill="#fbcd50" font-family="Fira Code" font-size="14px" font-weight="bold" stroke="none" text-anchor="middle" x="560.0" y="665.0">Water</text><text fill="#ff807f" font-family="Fira Code" font-size="14px" font-weight="bold" stroke="none" text-anchor="middle" x="700.0" y="665.0">Light</text><text fill="#fb50cd" font-family="Fira Code" font-size="14px" font-weight="bold" stroke="none" text-anchor="middle" x="840.0" y="665.0">Temperature</text><text fill="#b35aff" font-family="Fira Code" font-size="14px" font-weight="bold" stroke="none" text-anchor="middle" x="980.0" y="665.0">Humidity</text><text fill="#6a98ff" font-family="Fira Code" font-size="14px" font-weight="bold" stroke="none" text-anchor="middle" x="1120.0" y="665.0">Location</text></g><g id="grid" stroke="#5988a6" stroke-width="2"><line x1="140.0" x2="140.0" y1="40" y2="650" /><line x1="280.0" x2="280.0" y1="40" y2="650" /><line x1="420.0" x2="420.0" y1="40" y2="650" /><line x1="560.0" x2="560.0" y1="40" y2="650" /><line x1="700.0" x2="700.0" y1="40" y2="650" /><line x1="840.0" x2="840.0" y1="40" y2="650" /><line x1="980.0" x2="980.0" y1="40" y2="650" /><line x1="1120.0" x2="1120.0" y1="40" y2="650" /></g><g id="range_trees"><g class="range_tree_recur_00"><path d="M 140.0 276.3888888888889 C 186.66666666666666 276.3888888888889 233.33333333333334 255.27777777777783 280.0 255.27777777777783 L 280.0 107.5 C 233.33333333333334 107.5 186.66666666666666 128.6111111111111 140.0 128.6111111111111 Z" /><g class="range_tree_recur_00"><path d="M 280.0 255.27777777777783 C 326.66666666666663 255.27777777777783 373.33333333333337 255.27777777777783 420.0 255.27777777777783 L 420.0 107.5 C 373.33333333333337 107.5 326.66666666666663 107.5 280.0 107.5 Z" /><g class="range_tree_recur_00"><path d="M 420.0 255.27777777777783 C 466.6666666666667 255.27777777777783 513.3333333333333 255.27777777777783 560.0 255.27777777777783 L 560.0 107.5 C 513.3333333333333 107.5 466.6666666666667 107.5 420.0 107.5 Z" /><g class="range_tree_recur_00"><path d="M 560.0 255.27777777777783 C 606.6666666666667 255.27777777777783 653.3333333333333 329.16666666666663 700.0 329.16666666666663 L 700.0 181.3888888888889 C 653.3333333333333 181.3888888888889 606.6666666666667 107.5 560.0 107.5 Z" /><g class="range_tree_recur_00"><path d="M 700.0 329.16666666666663 C 746.6666666666666 329.16666666666663 793.3333333333334 286.94444444444446 840.0 286.94444444444446 L 840.0 255.27777777777783 C 793.3333333333334 255.27777777777783 746.6666666666666 297.5 700.0 297.5 Z" /><g class="range_tree_recur_00"><path d="M 840.0 286.94444444444446 C 886.6666666666666 286.94444444444446 933.3333333333334 286.94444444444446 980.0 286.94444444444446 L 980.0 255.27777777777783 C 933.3333333333334 255.27777777777783 886.6666666666666 255.27777777777783 840.0 255.27777777777783 Z" /><g class="range_tree_recur_00"><path d="M 980.0 286.94444444444446 C 1026.6666666666665 286.94444444444446 1073.3333333333335 244.72222222222229 1120.0 244.72222222222229 L 1120.0 213.05555555555554 C 1073.3333333333335 213.05555555555554 1026.6666666666665 255.27777777777783 980.0 255.27777777777783 Z" /></g></g></g><g class="range_tree_recur_00"><path d="M 700.0 297.5 C 746.6666666666666 297.5 793.3333333333334 635.2777777777778 840.0 635.2777777777778 L 840.0 519.1666666666666 C 793.3333333333334 519.1666666666666 746.6666666666666 181.3888888888889 700.0 181.3888888888889 Z" /><g class="range_tree_recur_00"><path d="M 840.0 635.2777777777778 C 886.6666666666666 635.2777777777778 933.3333333333334 624.7222222222222 980.0 624.7222222222222 L 980.0 508.6111111111111 C 933.3333333333334 508.6111111111111 886.6666666666666 519.1666666666666 840.0 519.1666666666666 Z" /><g class="range_tree_recur_00"><path d="M 980.0 624.7222222222222 C 1026.6666666666665 624.7222222222222 1073.3333333333335 624.7222222222222 1120.0 624.7222222222222 L 1120.0 519.1666666666666 C 1073.3333333333335 519.1666666666666 1026.6666666666665 519.1666666666666 980.0 519.1666666666666 Z" /></g><g class="range_tree_recur_00"><path d="M 980.0 519.1666666666666 C 1026.6666666666665 519.1666666666666 1073.3333333333335 476.94444444444446 1120.0 476.94444444444446 L 1120.0 466.3888888888889 C 1073.3333333333335 466.3888888888889 1026.6666666666665 508.6111111111111 980.0 508.6111111111111 Z" /></g></g></g></g></g></g></g><g class="range_tree_recur_01"><path d="M 140.0 529.7222222222223 C 186.66666666666666 529.7222222222223 233.33333333333334 508.6111111111111 280.0 508.6111111111111 L 280.0 371.3888888888889 C 233.33333333333334 371.3888888888889 186.66666666666666 392.5 140.0 392.5 Z" /><g class="range_tree_recur_01"><path d="M 280.0 508.6111111111111 C 326.66666666666663 508.6111111111111 373.33333333333337 508.6111111111111 420.0 508.6111111111111 L 420.0 371.3888888888889 C 373.33333333333337 371.3888888888889 326.66666666666663 371.3888888888889 280.0 371.3888888888889 Z" /><g class="range_tree_recur_01"><path d="M 420.0 508.6111111111111 C 466.6666666666667 508.6111111111111 513.3333333333333 550.8333333333334 560.0 550.8333333333334 L 560.0 508.6111111111111 C 513.3333333333333 508.6111111111111 466.6666666666667 466.3888888888889 420.0 466.3888888888889 Z" /><g class="range_tree_recur_01"><path d="M 560.0 550.8333333333334 C 606.6666666666667 550.8333333333334 653.3333333333333 624.7222222222222 700.0 624.7222222222222 L 700.0 582.5 C 653.3333333333333 582.5 606.6666666666667 508.6111111111111 560.0 508.6111111111111 Z" /><g class="range_tree_recur_01"><path d="M 700.0 624.7222222222222 C 746.6666666666666 624.7222222222222 793.3333333333334 244.72222222222229 840.0 244.72222222222229 L 840.0 202.5 C 793.3333333333334 202.5 746.6666666666666 582.5 700.0 582.5 Z" /><g class="range_tree_recur_01"><path d="M 840.0 244.72222222222229 C 886.6666666666666 244.72222222222229 933.3333333333334 244.72222222222229 980.0 244.72222222222229 L 980.0 202.5 C 933.3333333333334 202.5 886.6666666666666 202.5 840.0 202.5 Z" /><g class="range_tree_recur_01"><path d="M 980.0 244.72222222222229 C 1026.6666666666665 244.72222222222229 1073.3333333333335 202.5 1120.0 202.5 L 1120.0 160.27777777777783 C 1073.3333333333335 160.27777777777783 1026.6666666666665 202.5 980.0 202.5 Z" /></g></g></g></g></g><g class="range_tree_recur_01"><path d="M 420.0 466.3888888888889 C 466.6666666666667 466.3888888888889 513.3333333333333 466.3888888888889 560.0 466.3888888888889 L 560.0 371.3888888888889 C 513.3333333333333 371.3888888888889 466.6666666666667 371.3888888888889 420.0 371.3888888888889 Z" /><g class="range_tree_recur_01"><path d="M 560.0 466.3888888888889 C 606.6666666666667 466.3888888888889 653.3333333333333 540.2777777777778 700.0 540.2777777777778 L 700.0 445.2777777777778 C 653.3333333333333 445.2777777777778 606.6666666666667 371.3888888888889 560.0 371.3888888888889 Z" /><g class="range_tree_recur_01"><path d="M 700.0 540.2777777777778 C 746.6666666666666 540.2777777777778 793.3333333333334 160.27777777777783 840.0 160.27777777777783 L 840.0 65.27777777777783 C 793.3333333333334 65.27777777777783 746.6666666666666 445.2777777777778 700.0 445.2777777777778 Z" /><g class="range_tree_recur_01"><path d="M 840.0 160.27777777777783 C 886.6666666666666 160.27777777777783 933.3333333333334 160.27777777777783 980.0 160.27777777777783 L 980.0 65.27777777777783 C 933.3333333333334 65.27777777777783 886.6666666666666 65.27777777777783 840.0 65.27777777777783 Z" /><g class="range_tree_recur_01"><path d="M 980.0 160.27777777777783 C 1026.6666666666665 160.27777777777783 1073.3333333333335 118.05555555555554 1120.0 118.05555555555554 L 1120.0 86.38888888888891 C 1073.3333333333335 86.38888888888891 1026.6666666666665 128.6111111111111 980.0 128.6111111111111 Z" /></g><g class="range_tree_recur_01"><path d="M 980.0 128.6111111111111 C 1026.6666666666665 128.6111111111111 1073.3333333333335 519.1666666666666 1120.0 519.1666666666666 L 1120.0 476.94444444444446 C 1073.3333333333335 476.94444444444446 1026.6666666666665 86.38888888888891 980.0 86.38888888888891 Z" /></g><g class="range_tree_recur_01"><path d="M 980.0 86.38888888888891 C 1026.6666666666665 86.38888888888891 1073.3333333333335 86.38888888888891 1120.0 86.38888888888891 L 1120.0 65.27777777777783 C 1073.3333333333335 65.27777777777783 1026.6666666666665 65.27777777777783 980.0 65.27777777777783 Z" /></g></g></g></g></g></g></g></g></svg>