<?xml version="1.0" encoding="UTF-8" standalone="no"?>
<!-- Created with Inkscape (http://www.inkscape.org/) -->

<svg
   width="54.239582mm"
   height="31.749998mm"
   viewBox="0 0 54.239582 31.749998"
   version="1.1"
   id="svg5"
   inkscape:version="1.2.2 (732a01da63, 2022-12-09)"
   sodipodi:docname="ranges.svg"
   xmlns:inkscape="http://www.inkscape.org/namespaces/inkscape"
   xmlns:sodipodi="http://sodipodi.sourceforge.net/DTD/sodipodi-0.dtd"
   xmlns="http://www.w3.org/2000/svg"
   xmlns:svg="http://www.w3.org/2000/svg">
  <sodipodi:namedview
     id="namedview7"
     pagecolor="#ffffff"
     bordercolor="#999999"
     borderopacity="1"
     inkscape:showpageshadow="0"
     inkscape:pageopacity="0"
     inkscape:pagecheckerboard="0"
     inkscape:deskcolor="#d1d1d1"
     inkscape:document-units="mm"
     showgrid="true"
     inkscape:zoom="7.9999999"
     inkscape:cx="101.125"
     inkscape:cy="32.375"
     inkscape:window-width="3840"
     inkscape:window-height="2066"
     inkscape:window-x="-11"
     inkscape:window-y="-11"
     inkscape:window-maximized="1"
     inkscape:current-layer="layer1">
    <inkscape:grid
       type="xygrid"
       id="grid132"
       originx="-60.854166"
       originy="-55.5625" />
  </sodipodi:namedview>
  <defs
     id="defs2">
    <rect
       x="140"
       y="275"
       width="45"
       height="40"
       id="rect1850" />
  </defs>
  <g
     inkscape:label="Calque 1"
     inkscape:groupmode="layer"
     id="layer1"
     transform="translate(-60.854168,-55.5625)"
     style="display:inline">
    <rect
       style="display:none;fill:#ffffff;fill-rule:evenodd;stroke:none;stroke-width:0.588165;stroke-miterlimit:1.5;stroke-dasharray:none"
       id="rect5006"
       width="54.239582"
       height="31.749998"
       x="60.854168"
       y="55.5625"
       inkscape:label="Background" />
    <g
       id="g5283"
       inkscape:label="Axis"
       sodipodi:insensitive="true">
      <g
         id="g5132"
         inkscape:label="text"
         style="display:inline">
        <text
           xml:space="preserve"
           style="font-style:normal;font-variant:normal;font-weight:normal;font-stretch:normal;font-size:2.82222px;font-family:'Fira Code';-inkscape-font-specification:'Fira Code';text-align:center;letter-spacing:-0.0211667px;word-spacing:-0.0132292px;text-anchor:middle;fill:#000000;fill-rule:evenodd;stroke:none;stroke-width:0.450001;stroke-miterlimit:1.5;stroke-dasharray:none"
           x="66.145836"
           y="74.083336"
           id="text1706"><tspan
             sodipodi:role="line"
             id="tspan1704"
             style="font-style:normal;font-variant:normal;font-weight:normal;font-stretch:normal;font-size:2.82222px;font-family:'Fira Code';-inkscape-font-specification:'Fira Code';fill:#000000;stroke:none;stroke-width:0.45"
             x="66.135254"
             y="74.083336">2</tspan></text>
        <text
           xml:space="preserve"
           style="font-style:normal;font-variant:normal;font-weight:normal;font-stretch:normal;font-size:2.82222px;font-family:'Fira Code';-inkscape-font-specification:'Fira Code';text-align:center;letter-spacing:-0.0211667px;word-spacing:-0.0132292px;text-anchor:middle;fill:#000000;fill-rule:evenodd;stroke:none;stroke-width:0.450001;stroke-miterlimit:1.5;stroke-dasharray:none"
           x="68.791664"
           y="74.083336"
           id="text1760"><tspan
             sodipodi:role="line"
             id="tspan1758"
             style="font-style:normal;font-variant:normal;font-weight:normal;font-stretch:normal;font-size:2.82222px;font-family:'Fira Code';-inkscape-font-specification:'Fira Code';fill:#000000;stroke:none;stroke-width:0.45"
             x="68.781082"
             y="74.083336">3</tspan></text>
        <text
           xml:space="preserve"
           style="font-style:normal;font-variant:normal;font-weight:normal;font-stretch:normal;font-size:2.82222px;font-family:'Fira Code';-inkscape-font-specification:'Fira Code';text-align:center;letter-spacing:-0.0211667px;word-spacing:-0.0132292px;text-anchor:middle;fill:#000000;fill-rule:evenodd;stroke:none;stroke-width:0.450001;stroke-miterlimit:1.5;stroke-dasharray:none"
           x="71.4375"
           y="74.083336"
           id="text1764"><tspan
             sodipodi:role="line"
             id="tspan1762"
             style="font-style:normal;font-variant:normal;font-weight:normal;font-stretch:normal;font-size:2.82222px;font-family:'Fira Code';-inkscape-font-specification:'Fira Code';fill:#000000;stroke:none;stroke-width:0.45"
             x="71.426918"
             y="74.083336">4</tspan></text>
        <text
           xml:space="preserve"
           style="font-style:normal;font-variant:normal;font-weight:normal;font-stretch:normal;font-size:2.82222px;font-family:'Fira Code';-inkscape-font-specification:'Fira Code';text-align:center;letter-spacing:-0.0211667px;word-spacing:-0.0132292px;text-anchor:middle;fill:#000000;fill-rule:evenodd;stroke:none;stroke-width:0.450001;stroke-miterlimit:1.5;stroke-dasharray:none"
           x="74.083336"
           y="74.083336"
           id="text1768"><tspan
             sodipodi:role="line"
             id="tspan1766"
             style="font-style:normal;font-variant:normal;font-weight:normal;font-stretch:normal;font-size:2.82222px;font-family:'Fira Code';-inkscape-font-specification:'Fira Code';fill:#000000;stroke:none;stroke-width:0.45"
             x="74.072754"
             y="74.083336">5</tspan></text>
        <text
           xml:space="preserve"
           style="font-style:normal;font-variant:normal;font-weight:normal;font-stretch:normal;font-size:2.82222px;font-family:'Fira Code';-inkscape-font-specification:'Fira Code';text-align:center;letter-spacing:-0.0211667px;word-spacing:-0.0132292px;text-anchor:middle;fill:#000000;fill-rule:evenodd;stroke:none;stroke-width:0.450001;stroke-miterlimit:1.5;stroke-dasharray:none"
           x="76.729164"
           y="74.083336"
           id="text1772"><tspan
             sodipodi:role="line"
             id="tspan1770"
             style="font-style:normal;font-variant:normal;font-weight:normal;font-stretch:normal;font-size:2.82222px;font-family:'Fira Code';-inkscape-font-specification:'Fira Code';fill:#000000;stroke:none;stroke-width:0.45"
             x="76.718582"
             y="74.083336">6</tspan></text>
        <text
           xml:space="preserve"
           style="font-style:normal;font-variant:normal;font-weight:normal;font-stretch:normal;font-size:2.82222px;font-family:'Fira Code';-inkscape-font-specification:'Fira Code';text-align:center;letter-spacing:-0.0211667px;word-spacing:-0.0132292px;text-anchor:middle;fill:#000000;fill-rule:evenodd;stroke:none;stroke-width:0.450001;stroke-miterlimit:1.5;stroke-dasharray:none"
           x="79.375"
           y="74.083336"
           id="text1776"><tspan
             sodipodi:role="line"
             id="tspan1774"
             style="font-style:normal;font-variant:normal;font-weight:normal;font-stretch:normal;font-size:2.82222px;font-family:'Fira Code';-inkscape-font-specification:'Fira Code';fill:#000000;stroke:none;stroke-width:0.45"
             x="79.364418"
             y="74.083336">7</tspan></text>
        <text
           xml:space="preserve"
           style="font-style:normal;font-variant:normal;font-weight:normal;font-stretch:normal;font-size:2.82222px;font-family:'Fira Code';-inkscape-font-specification:'Fira Code';text-align:center;letter-spacing:-0.0211667px;word-spacing:-0.0132292px;text-anchor:middle;fill:#000000;fill-rule:evenodd;stroke:none;stroke-width:0.450001;stroke-miterlimit:1.5;stroke-dasharray:none"
           x="82.020836"
           y="74.083336"
           id="text1780"><tspan
             sodipodi:role="line"
             id="tspan1778"
             style="font-style:normal;font-variant:normal;font-weight:normal;font-stretch:normal;font-size:2.82222px;font-family:'Fira Code';-inkscape-font-specification:'Fira Code';fill:#000000;stroke:none;stroke-width:0.45"
             x="82.010254"
             y="74.083336">8</tspan></text>
        <text
           xml:space="preserve"
           style="font-style:normal;font-variant:normal;font-weight:normal;font-stretch:normal;font-size:2.82222px;font-family:'Fira Code';-inkscape-font-specification:'Fira Code';text-align:center;letter-spacing:-0.0211667px;word-spacing:-0.0132292px;text-anchor:middle;fill:#000000;fill-rule:evenodd;stroke:none;stroke-width:0.450001;stroke-miterlimit:1.5;stroke-dasharray:none"
           x="84.666664"
           y="74.083336"
           id="text1784"><tspan
             sodipodi:role="line"
             id="tspan1782"
             style="font-style:normal;font-variant:normal;font-weight:normal;font-stretch:normal;font-size:2.82222px;font-family:'Fira Code';-inkscape-font-specification:'Fira Code';fill:#000000;stroke:none;stroke-width:0.45"
             x="84.656082"
             y="74.083336">9</tspan></text>
        <text
           xml:space="preserve"
           style="font-style:normal;font-variant:normal;font-weight:normal;font-stretch:normal;font-size:2.82222px;font-family:'Fira Code';-inkscape-font-specification:'Fira Code';text-align:center;letter-spacing:-0.661458px;word-spacing:-0.0132292px;text-anchor:middle;fill:#000000;fill-rule:evenodd;stroke:none;stroke-width:0.450001;stroke-miterlimit:1.5;stroke-dasharray:none"
           x="87.3125"
           y="74.083336"
           id="text1788"><tspan
             sodipodi:role="line"
             id="tspan1786"
             style="font-style:normal;font-variant:normal;font-weight:normal;font-stretch:normal;font-size:2.82222px;font-family:'Fira Code';-inkscape-font-specification:'Fira Code';fill:#000000;stroke:none;stroke-width:0.45"
             x="86.981773"
             y="74.083336">10</tspan></text>
        <text
           xml:space="preserve"
           style="font-style:normal;font-variant:normal;font-weight:normal;font-stretch:normal;font-size:2.82222px;font-family:'Fira Code';-inkscape-font-specification:'Fira Code';text-align:center;letter-spacing:-0.0211667px;word-spacing:-0.0132292px;text-anchor:middle;fill:#000000;fill-rule:evenodd;stroke:none;stroke-width:0.450001;stroke-miterlimit:1.5;stroke-dasharray:none"
           x="63.5"
           y="74.083336"
           id="text1846"><tspan
             sodipodi:role="line"
             id="tspan1844"
             style="font-style:normal;font-variant:normal;font-weight:normal;font-stretch:normal;font-size:2.82222px;font-family:'Fira Code';-inkscape-font-specification:'Fira Code';fill:#000000;stroke:none;stroke-width:0.45"
             x="63.489418"
             y="74.083336">1</tspan></text>
        <text
           xml:space="preserve"
           style="font-style:normal;font-variant:normal;font-weight:normal;font-stretch:normal;font-size:2.82223px;font-family:'Fira Code';-inkscape-font-specification:'Fira Code';text-align:center;letter-spacing:-0.661458px;text-anchor:middle;fill:#000000;fill-rule:evenodd;stroke:none;stroke-width:0.450001;stroke-miterlimit:1.5;stroke-dasharray:none"
           x="89.958336"
           y="74.083336"
           id="text3314"><tspan
             sodipodi:role="line"
             id="tspan3312"
             style="fill:#000000;stroke:none;stroke-width:0.45"
             x="89.627609"
             y="74.083336">11</tspan></text>
      </g>
      <g
         id="g5218"
         inkscape:label="axis">
        <path
           style="fill:none;fill-rule:evenodd;stroke:#000000;stroke-width:0.45;stroke-miterlimit:1.5;stroke-dasharray:none"
           d="M 62.177083,70.114583 H 91.28125"
           id="path238"
           sodipodi:nodetypes="cc" />
        <path
           style="fill:none;fill-rule:evenodd;stroke:#000000;stroke-width:0.450001;stroke-miterlimit:1.5;stroke-dasharray:none"
           d="m 66.145832,68.791666 v 2.645833"
           id="path1630" />
        <path
           style="fill:none;fill-rule:evenodd;stroke:#000000;stroke-width:0.450001;stroke-miterlimit:1.5;stroke-dasharray:none"
           d="m 71.437499,68.791666 v 2.645833"
           id="path1634" />
        <path
           style="fill:none;fill-rule:evenodd;stroke:#000000;stroke-width:0.450001;stroke-miterlimit:1.5;stroke-dasharray:none"
           d="m 74.083332,68.791666 v 2.645833"
           id="path1636" />
        <path
           style="fill:none;fill-rule:evenodd;stroke:#000000;stroke-width:0.450001;stroke-miterlimit:1.5;stroke-dasharray:none"
           d="m 76.729166,68.791666 v 2.645833"
           id="path1638" />
        <path
           style="fill:none;fill-rule:evenodd;stroke:#000000;stroke-width:0.450001;stroke-miterlimit:1.5;stroke-dasharray:none"
           d="m 84.666666,68.791666 v 2.645833"
           id="path1644" />
        <path
           style="fill:none;fill-rule:evenodd;stroke:#000000;stroke-width:0.450001;stroke-miterlimit:1.5;stroke-dasharray:none"
           d="m 87.312499,68.791666 v 2.645833"
           id="path1646" />
        <g
           id="g5203"
           inkscape:label="splitting points">
          <path
             style="fill:none;fill-rule:evenodd;stroke:#3d8d45;stroke-width:0.450001;stroke-miterlimit:1.5;stroke-dasharray:none"
             d="m 63.499999,68.791666 v 2.645833"
             id="path1628" />
          <path
             style="fill:none;fill-rule:evenodd;stroke:#3d8d45;stroke-width:0.450001;stroke-miterlimit:1.5;stroke-dasharray:none"
             d="m 68.791666,68.791666 v 2.645833"
             id="path1632" />
          <path
             style="fill:none;fill-rule:evenodd;stroke:#f44747;stroke-width:0.450001;stroke-miterlimit:1.5;stroke-dasharray:none"
             d="m 79.374999,68.791666 v 2.645833"
             id="path1640" />
          <path
             style="fill:none;fill-rule:evenodd;stroke:#f44747;stroke-width:0.450001;stroke-miterlimit:1.5;stroke-dasharray:none"
             d="m 82.020832,68.791666 v 2.645833"
             id="path1642" />
          <path
             style="fill:none;fill-rule:evenodd;stroke:#3d8d45;stroke-width:0.450001;stroke-miterlimit:1.5;stroke-dasharray:none"
             d="m 89.958332,68.791666 v 2.645833"
             id="path3310" />
        </g>
      </g>
    </g>
    <g
       id="g5348"
       inkscape:label="Ranges">
      <g
         id="g5230"
         inkscape:label="s_beg"
         style="stroke:#179fff">
        <path
           style="fill:none;fill-rule:evenodd;stroke:#179fff;stroke-width:0.450001;stroke-miterlimit:1.5;stroke-dasharray:none"
           d="m 71.4375,64.822917 15.874999,-10e-7"
           id="path4918"
           sodipodi:nodetypes="cc" />
        <path
           style="fill:none;fill-rule:evenodd;stroke:#179fff;stroke-width:0.450001;stroke-miterlimit:1.5;stroke-dasharray:none"
           d="M 72.760417,63.5 H 71.4375 v 2.645833 h 1.322917"
           id="path4920" />
        <path
           style="fill:none;fill-rule:evenodd;stroke:#179fff;stroke-width:0.450001;stroke-miterlimit:1.5;stroke-dasharray:none"
           d="m 88.635416,63.499999 h -1.322917 v 2.645833 h 1.322917"
           id="path4922" />
      </g>
      <g
         id="g5225"
         inkscape:label="s_end"
         style="stroke:#179fff">
        <path
           style="fill:none;fill-rule:evenodd;stroke:#179fff;stroke-width:0.450001;stroke-miterlimit:1.5;stroke-dasharray:none"
           d="M 87.312499,59.531249 71.4375,59.53125"
           id="path4924"
           sodipodi:nodetypes="cc" />
        <path
           style="fill:none;fill-rule:evenodd;stroke:#179fff;stroke-width:0.450001;stroke-miterlimit:1.5;stroke-dasharray:none"
           d="M 72.760417,58.208333 H 71.4375 v 2.645833 h 1.322917"
           id="path4926" />
        <path
           style="fill:none;fill-rule:evenodd;stroke:#16a3b6;stroke-width:0.450001;stroke-miterlimit:1.5;stroke-dasharray:none"
           d="m 80.697916,58.208333 h -1.322917 v 2.645833 h 1.322917"
           id="path4928" />
        <path
           style="fill:none;fill-rule:evenodd;stroke:#16a3b6;stroke-width:0.450001;stroke-miterlimit:1.5;stroke-dasharray:none"
           d="m 83.343749,58.208333 h -1.322917 v 2.645833 h 1.322917"
           id="path4930" />
        <path
           style="fill:none;fill-rule:evenodd;stroke:#179fff;stroke-width:0.450001;stroke-miterlimit:1.5;stroke-dasharray:none"
           d="m 88.635416,58.208333 h -1.322917 v 2.645833 h 1.322917"
           id="path4932" />
      </g>
      <g
         id="g5235"
         inkscape:label="c_beg"
         style="stroke:#b267e6">
        <path
           style="fill:none;fill-rule:evenodd;stroke:#b267e6;stroke-width:0.450001;stroke-miterlimit:1.5;stroke-dasharray:none"
           d="m 71.4375,78.052083 13.229166,-10e-7"
           id="path4934"
           sodipodi:nodetypes="cc" />
        <path
           style="fill:none;fill-rule:evenodd;stroke:#b267e6;stroke-width:0.450001;stroke-miterlimit:1.5;stroke-dasharray:none"
           d="m 83.343749,76.729166 h 1.322917 v 2.645833 h -1.322917"
           id="path4936" />
        <path
           style="fill:none;fill-rule:evenodd;stroke:#b267e6;stroke-width:0.450001;stroke-miterlimit:1.5;stroke-dasharray:none"
           d="M 72.760417,76.729167 H 71.4375 V 79.375 h 1.322917"
           id="path4938" />
      </g>
      <g
         id="g5244"
         inkscape:label="c_end"
         style="stroke:#b267e6">
        <path
           style="fill:none;fill-rule:evenodd;stroke:#b267e6;stroke-width:0.450001;stroke-miterlimit:1.5;stroke-dasharray:none"
           d="m 71.4375,83.34375 5.291666,-10e-7"
           id="path4940"
           sodipodi:nodetypes="cc" />
        <path
           style="fill:none;fill-rule:evenodd;stroke:#b267e6;stroke-width:0.450001;stroke-miterlimit:1.5;stroke-dasharray:none"
           d="m 82.020832,83.343749 h 2.645834"
           id="path4942" />
        <path
           style="fill:none;fill-rule:evenodd;stroke:#b267e6;stroke-width:0.450001;stroke-miterlimit:1.5;stroke-dasharray:none"
           d="m 83.872917,82.020833 0.793749,-10e-7 10e-7,2.645835 h -0.79375"
           id="path4944"
           sodipodi:nodetypes="cccc" />
        <path
           style="fill:none;fill-rule:evenodd;stroke:#df769b;stroke-width:0.450001;stroke-miterlimit:1.5;stroke-dasharray:none"
           d="m 82.814583,82.020833 -0.793751,-10e-7 v 2.645834 l 0.793751,10e-7"
           id="path4946"
           sodipodi:nodetypes="cccc" />
        <path
           style="fill:none;fill-rule:evenodd;stroke:#b267e6;stroke-width:0.450001;stroke-miterlimit:1.5;stroke-dasharray:none"
           d="m 75.406249,82.020832 h 1.322917 v 2.645834 h -1.322917"
           id="path4948" />
        <path
           style="fill:none;fill-rule:evenodd;stroke:#b267e6;stroke-width:0.450001;stroke-miterlimit:1.5;stroke-dasharray:none"
           d="M 72.760417,82.020833 H 71.4375 v 2.645834 h 1.322917"
           id="path4950" />
        <path
           style="fill:none;fill-rule:evenodd;stroke:#df769b;stroke-width:0.450001;stroke-miterlimit:1.5;stroke-dasharray:none"
           d="m 79.375,81.75625 v 3.175"
           id="path4952"
           sodipodi:nodetypes="cc" />
      </g>
    </g>
    <g
       id="g467"
       inkscape:label="text_path">
      <g
         aria-label="open range, before splitting"
         id="text343"
         style="font-size:1.41111px;stroke-width:0.264583">
        <path
           d="m 90.129383,64.574162 q 0.161374,0 0.243869,0.107823 0.0825,0.107823 0.0825,0.288735 0,0.116507 -0.03763,0.206239 -0.03763,0.08973 -0.110718,0.141111 -0.07309,0.05065 -0.179464,0.05065 -0.161373,0 -0.244592,-0.108547 -0.08322,-0.108547 -0.08322,-0.288011 0,-0.117231 0.03763,-0.206963 0.03763,-0.09046 0.110718,-0.140387 0.07381,-0.05065 0.180911,-0.05065 z m 0,0.09914 q -0.09842,0 -0.149071,0.07309 -0.04993,0.07309 -0.04993,0.225778 0,0.151242 0.04921,0.22433 0.04993,0.07237 0.148347,0.07237 0.09842,0 0.147624,-0.07309 0.04993,-0.07309 0.04993,-0.225054 0,-0.151966 -0.04921,-0.224331 -0.04921,-0.07309 -0.146901,-0.07309 z"
           style="font-family:'Fira Code';-inkscape-font-specification:'Fira Code'"
           id="path357" />
        <path
           d="m 91.048415,64.574162 q 0.10131,0 0.161373,0.04921 0.06079,0.04921 0.08756,0.13894 0.02678,0.08901 0.02678,0.20841 0,0.11506 -0.03256,0.205515 -0.03184,0.08973 -0.09697,0.141111 -0.06513,0.05138 -0.164267,0.05138 -0.125191,0 -0.201174,-0.08828 v 0.363271 l -0.121573,0.0152 v -1.068825 h 0.103482 l 0.01013,0.106376 q 0.04197,-0.05862 0.09986,-0.09046 0.05789,-0.03184 0.127362,-0.03184 z m -0.02895,0.09769 q -0.06296,0 -0.111442,0.03835 -0.04848,0.03763 -0.07888,0.08394 v 0.377743 q 0.02967,0.04414 0.07453,0.07019 0.04559,0.02533 0.09986,0.02533 0.0948,0 0.142558,-0.07237 0.04776,-0.07236 0.04776,-0.225054 0,-0.298142 -0.174399,-0.298142 z"
           style="font-family:'Fira Code';-inkscape-font-specification:'Fira Code'"
           id="path359" />
        <path
           d="m 91.671475,65.014139 q 0.0051,0.132427 0.06947,0.193213 0.06513,0.06006 0.153413,0.06006 0.05862,0 0.105652,-0.01737 0.04704,-0.01737 0.09769,-0.05138 l 0.05717,0.08033 q -0.05283,0.04197 -0.121572,0.06585 -0.06875,0.02388 -0.140388,0.02388 -0.111441,0 -0.189595,-0.04993 -0.07743,-0.04993 -0.118678,-0.13894 -0.04052,-0.08973 -0.04052,-0.207687 0,-0.115783 0.04052,-0.205515 0.04125,-0.08973 0.115784,-0.141111 0.07526,-0.05138 0.176569,-0.05138 0.144006,0 0.226501,0.09986 0.08322,0.09986 0.08322,0.273538 0,0.01954 -0.0014,0.03691 -7.23e-4,0.01737 -0.0014,0.02967 z m 0.206962,-0.340114 q -0.08467,0 -0.141834,0.06006 -0.05717,0.06006 -0.06441,0.185978 h 0.397282 q -0.0022,-0.122297 -0.05355,-0.183807 -0.05138,-0.06223 -0.137493,-0.06223 z"
           style="font-family:'Fira Code';-inkscape-font-specification:'Fira Code'"
           id="path361" />
        <path
           d="m 92.444329,65.352081 v -0.761999 h 0.103482 l 0.0094,0.105652 q 0.04631,-0.05862 0.115784,-0.08973 0.06947,-0.03184 0.136045,-0.03184 0.112165,0 0.16282,0.05934 0.05138,0.05934 0.05138,0.164991 v 0.553589 h -0.121572 v -0.463857 q 0,-0.07815 -0.0087,-0.125914 -0.0087,-0.04776 -0.03691,-0.07019 -0.0275,-0.02243 -0.08467,-0.02243 -0.04487,0 -0.08467,0.01954 -0.03908,0.01954 -0.07019,0.04921 -0.03039,0.02895 -0.05066,0.05862 v 0.555036 z"
           style="font-family:'Fira Code';-inkscape-font-specification:'Fira Code'"
           id="path363" />
        <path
           d="m 94.188318,65.352081 v -0.09335 h 0.118678 v -0.575299 h -0.118678 v -0.09335 h 0.211304 l 0.02243,0.180188 q 0.04414,-0.09407 0.1071,-0.145453 0.06296,-0.05138 0.166439,-0.05138 0.03184,0 0.05644,0.0051 0.02533,0.0043 0.05138,0.01158 l -0.01737,0.257618 h -0.09986 v -0.162097 q -0.0029,0 -0.0065,0 -0.175122,0 -0.251105,0.250382 v 0.322746 h 0.15486 v 0.09335 z"
           style="font-family:'Fira Code';-inkscape-font-specification:'Fira Code'"
           id="path365" />
        <path
           d="m 95.595087,65.185643 q 0,0.04631 0.0152,0.0673 0.0152,0.02099 0.04704,0.03039 l -0.02967,0.08539 q -0.04921,-0.0065 -0.08611,-0.03112 -0.03691,-0.02533 -0.05355,-0.07598 -0.04125,0.05283 -0.103481,0.08032 -0.06151,0.02678 -0.135322,0.02678 -0.114336,0 -0.180188,-0.0644 -0.06585,-0.06441 -0.06585,-0.170781 0,-0.117954 0.0919,-0.180911 0.0919,-0.06296 0.265578,-0.06296 h 0.112165 v -0.06368 q 0,-0.0825 -0.04848,-0.116508 -0.04776,-0.03474 -0.133151,-0.03474 -0.03763,0 -0.08828,0.0094 -0.05066,0.0087 -0.109994,0.02967 l -0.03184,-0.0919 q 0.06947,-0.02605 0.13098,-0.03691 0.06223,-0.01085 0.117954,-0.01085 0.141835,0 0.213476,0.06658 0.07164,0.06658 0.07164,0.179464 z m -0.314786,0.09046 q 0.05644,0 0.107099,-0.02822 0.05138,-0.02895 0.08539,-0.0796 v -0.196108 h -0.109994 q -0.125914,0 -0.178017,0.04342 -0.05138,0.04342 -0.05138,0.116507 0,0.144005 0.146901,0.144005 z"
           style="font-family:'Fira Code';-inkscape-font-specification:'Fira Code'"
           id="path367" />
        <path
           d="m 95.917834,65.352081 v -0.761999 h 0.103481 l 0.0094,0.105652 q 0.04631,-0.05862 0.115783,-0.08973 0.06947,-0.03184 0.136045,-0.03184 0.112166,0 0.162821,0.05934 0.05138,0.05934 0.05138,0.164991 v 0.553589 h -0.121573 v -0.463857 q 0,-0.07815 -0.0087,-0.125914 -0.0087,-0.04776 -0.03691,-0.07019 -0.0275,-0.02243 -0.08467,-0.02243 -0.04487,0 -0.08467,0.01954 -0.03908,0.01954 -0.07019,0.04921 -0.03039,0.02895 -0.05066,0.05862 v 0.555036 z"
           style="font-family:'Fira Code';-inkscape-font-specification:'Fira Code'"
           id="path369" />
        <path
           d="m 97.405651,64.509034 0.03763,0.114336 q -0.04921,0.0152 -0.104205,0.01881 -0.05427,0.0036 -0.118678,0.0036 0.132427,0.06079 0.132427,0.191766 0,0.112889 -0.07598,0.185977 -0.07526,0.07309 -0.210581,0.07309 -0.03835,0 -0.0644,-0.0036 -0.02533,-0.0036 -0.04921,-0.01086 -0.01737,0.0123 -0.02895,0.03256 -0.01085,0.01954 -0.01085,0.04125 0,0.0275 0.02171,0.04559 0.02171,0.01809 0.08033,0.01809 h 0.137492 q 0.07671,0 0.137493,0.0275 0.06079,0.0275 0.09624,0.07453 0.03546,0.04631 0.03546,0.104929 0,0.112165 -0.09552,0.172228 -0.0948,0.06006 -0.268473,0.06006 -0.121573,0 -0.191766,-0.02533 -0.07019,-0.0246 -0.100587,-0.07598 -0.02967,-0.05066 -0.02967,-0.128086 h 0.109994 q 0,0.04414 0.01737,0.07309 0.01737,0.02895 0.06296,0.04269 0.04559,0.01447 0.13098,0.01447 0.125915,0 0.183806,-0.03184 0.05789,-0.03112 0.05789,-0.09335 0,-0.05427 -0.04921,-0.08177 -0.04921,-0.0275 -0.12302,-0.0275 h -0.136045 q -0.09914,0 -0.145453,-0.04342 -0.04631,-0.04342 -0.04631,-0.09986 0,-0.07815 0.08394,-0.13315 -0.128085,-0.06802 -0.128085,-0.210581 0,-0.07743 0.03835,-0.13677 0.03835,-0.06006 0.1071,-0.09407 0.06875,-0.03401 0.158478,-0.03401 0.09624,0 0.156308,-0.008 0.06006,-0.008 0.102758,-0.02243 0.04342,-0.01447 0.08828,-0.03401 z M 97.0583,64.662446 q -0.0919,0 -0.136045,0.04993 -0.04342,0.04993 -0.04342,0.125915 0,0.07743 0.04414,0.127361 0.04487,0.04993 0.138216,0.04993 0.08033,0 0.12302,-0.04704 0.0427,-0.04704 0.0427,-0.13098 0,-0.175123 -0.16861,-0.175123 z"
           style="font-family:'Fira Code';-inkscape-font-specification:'Fira Code'"
           id="path371" />
        <path
           d="m 97.750107,65.014139 q 0.0051,0.132427 0.06947,0.193213 0.06513,0.06006 0.153413,0.06006 0.05862,0 0.105652,-0.01737 0.04704,-0.01737 0.09769,-0.05138 l 0.05717,0.08033 q -0.05283,0.04197 -0.121572,0.06585 -0.06875,0.02388 -0.140388,0.02388 -0.111441,0 -0.189595,-0.04993 -0.07743,-0.04993 -0.118678,-0.13894 -0.04052,-0.08973 -0.04052,-0.207687 0,-0.115783 0.04052,-0.205515 0.04125,-0.08973 0.115783,-0.141111 0.07526,-0.05138 0.17657,-0.05138 0.144006,0 0.226501,0.09986 0.08322,0.09986 0.08322,0.273538 0,0.01954 -0.0014,0.03691 -7.23e-4,0.01737 -0.0014,0.02967 z m 0.206962,-0.340114 q -0.08467,0 -0.141834,0.06006 -0.05717,0.06006 -0.06441,0.185978 h 0.397282 q -0.0022,-0.122297 -0.05355,-0.183807 -0.05138,-0.06223 -0.137493,-0.06223 z"
           style="font-family:'Fira Code';-inkscape-font-specification:'Fira Code'"
           id="path373" />
        <path
           d="m 98.811696,65.114002 q 0.04993,0 0.08322,0.03401 0.03401,0.03401 0.03401,0.08177 0,0.02605 -0.0065,0.05283 -0.0058,0.02678 -0.02171,0.06079 l -0.11723,0.268472 h -0.109995 l 0.06947,-0.28584 q -0.04704,-0.03401 -0.04704,-0.09624 0,-0.04776 0.03329,-0.08177 0.03329,-0.03401 0.0825,-0.03401 z"
           style="font-family:'Fira Code';-inkscape-font-specification:'Fira Code'"
           id="path375" />
        <path
           d="m 100.38129,64.689221 q 0.0412,-0.055 0.0962,-0.08467 0.0557,-0.03039 0.12085,-0.03039 0.10203,0 0.16499,0.04921 0.063,0.04921 0.0919,0.13894 0.0289,0.08901 0.0289,0.20841 0,0.11506 -0.0347,0.205515 -0.034,0.08973 -0.10132,0.141111 -0.0673,0.05138 -0.16571,0.05138 -0.13243,0 -0.20769,-0.09552 l -0.009,0.07888 h -0.10638 v -1.068825 l 0.12158,-0.0152 z m 0.17222,0.581088 q 0.0955,0 0.1469,-0.07381 0.0514,-0.07381 0.0514,-0.226501 0,-0.298142 -0.17946,-0.298142 -0.0637,0 -0.11217,0.03835 -0.0485,0.03763 -0.0789,0.08394 v 0.377743 q 0.0297,0.04559 0.0745,0.07237 0.0456,0.02605 0.0977,0.02605 z"
           style="font-family:'Fira Code';-inkscape-font-specification:'Fira Code'"
           id="path377" />
        <path
           d="m 101.22361,65.014139 q 0.005,0.132427 0.0695,0.193213 0.0651,0.06006 0.15341,0.06006 0.0586,0 0.10566,-0.01737 0.047,-0.01737 0.0977,-0.05138 l 0.0572,0.08033 q -0.0528,0.04197 -0.12158,0.06585 -0.0687,0.02388 -0.14038,0.02388 -0.11145,0 -0.1896,-0.04993 -0.0774,-0.04993 -0.11868,-0.13894 -0.0405,-0.08973 -0.0405,-0.207687 0,-0.115783 0.0405,-0.205515 0.0413,-0.08973 0.11579,-0.141111 0.0753,-0.05138 0.17657,-0.05138 0.144,0 0.2265,0.09986 0.0832,0.09986 0.0832,0.273538 0,0.01954 -0.001,0.03691 -7.2e-4,0.01737 -0.001,0.02967 z m 0.20696,-0.340114 q -0.0847,0 -0.14183,0.06006 -0.0572,0.06006 -0.0644,0.185978 h 0.39729 q -0.002,-0.122297 -0.0535,-0.183807 -0.0514,-0.06223 -0.1375,-0.06223 z"
           style="font-family:'Fira Code';-inkscape-font-specification:'Fira Code'"
           id="path379" />
        <path
           d="m 102.44657,64.268059 q 0.0615,0 0.11145,0.01086 0.0499,0.01086 0.0948,0.03039 l -0.0391,0.09046 q -0.0369,-0.01592 -0.0789,-0.02388 -0.0412,-0.008 -0.0847,-0.008 -0.15992,0 -0.15992,0.126639 v 0.15486 h 0.25834 l -0.013,0.09552 h -0.24531 v 0.607139 h -0.12158 v -0.607139 h -0.18163 v -0.09552 h 0.18163 v -0.151966 q 0,-0.07092 0.0362,-0.122296 0.0369,-0.05138 0.0999,-0.07888 0.063,-0.02822 0.14183,-0.02822 z"
           style="font-family:'Fira Code';-inkscape-font-specification:'Fira Code'"
           id="path381" />
        <path
           d="m 103.15502,64.574162 q 0.16138,0 0.24387,0.107823 0.0825,0.107823 0.0825,0.288735 0,0.116507 -0.0376,0.206239 -0.0376,0.08973 -0.11072,0.141111 -0.0731,0.05065 -0.17946,0.05065 -0.16138,0 -0.2446,-0.108547 -0.0832,-0.108547 -0.0832,-0.288011 0,-0.117231 0.0376,-0.206963 0.0376,-0.09046 0.11072,-0.140387 0.0738,-0.05065 0.18091,-0.05065 z m 0,0.09914 q -0.0984,0 -0.14907,0.07309 -0.0499,0.07309 -0.0499,0.225778 0,0.151242 0.0492,0.22433 0.0499,0.07237 0.14835,0.07237 0.0984,0 0.14762,-0.07309 0.0499,-0.07309 0.0499,-0.225054 0,-0.151966 -0.0492,-0.224331 -0.0492,-0.07309 -0.1469,-0.07309 z"
           style="font-family:'Fira Code';-inkscape-font-specification:'Fira Code'"
           id="path383" />
        <path
           d="m 103.74045,65.352081 v -0.09335 h 0.11868 v -0.575299 h -0.11868 v -0.09335 h 0.21131 l 0.0224,0.180188 q 0.0441,-0.09407 0.1071,-0.145453 0.063,-0.05138 0.16644,-0.05138 0.0318,0 0.0564,0.0051 0.0253,0.0043 0.0514,0.01158 l -0.0174,0.257618 h -0.0999 v -0.162097 q -0.003,0 -0.007,0 -0.17512,0 -0.25111,0.250382 v 0.322746 h 0.15486 v 0.09335 z"
           style="font-family:'Fira Code';-inkscape-font-specification:'Fira Code'"
           id="path385" />
        <path
           d="m 104.69711,65.014139 q 0.005,0.132427 0.0695,0.193213 0.0651,0.06006 0.15342,0.06006 0.0586,0 0.10565,-0.01737 0.047,-0.01737 0.0977,-0.05138 l 0.0572,0.08033 q -0.0528,0.04197 -0.12157,0.06585 -0.0688,0.02388 -0.14039,0.02388 -0.11144,0 -0.18959,-0.04993 -0.0774,-0.04993 -0.11868,-0.13894 -0.0405,-0.08973 -0.0405,-0.207687 0,-0.115783 0.0405,-0.205515 0.0412,-0.08973 0.11578,-0.141111 0.0753,-0.05138 0.17657,-0.05138 0.14401,0 0.2265,0.09986 0.0832,0.09986 0.0832,0.273538 0,0.01954 -0.001,0.03691 -7.2e-4,0.01737 -0.001,0.02967 z m 0.20697,-0.340114 q -0.0847,0 -0.14184,0.06006 -0.0572,0.06006 -0.0644,0.185978 h 0.39728 q -0.002,-0.122297 -0.0536,-0.183807 -0.0514,-0.06223 -0.13749,-0.06223 z"
           style="font-family:'Fira Code';-inkscape-font-specification:'Fira Code'"
           id="path387" />
        <path
           d="m 106.59741,65.268138 q 0.0883,0 0.13894,-0.03256 0.0507,-0.03256 0.0507,-0.08828 0,-0.03401 -0.013,-0.05934 -0.0123,-0.02533 -0.0514,-0.04559 -0.0391,-0.02099 -0.12012,-0.04125 -0.0789,-0.01954 -0.1375,-0.04487 -0.0579,-0.02605 -0.0905,-0.0673 -0.0318,-0.04125 -0.0318,-0.1071 0,-0.09624 0.0803,-0.151966 0.0803,-0.05572 0.20914,-0.05572 0.0919,0 0.15992,0.0246 0.0688,0.0246 0.11651,0.05934 l -0.0536,0.08249 q -0.0427,-0.02967 -0.0955,-0.04848 -0.0521,-0.01954 -0.12592,-0.01954 -0.0897,0 -0.12736,0.02822 -0.0376,0.0275 -0.0376,0.07164 0,0.03401 0.0181,0.05644 0.0188,0.02171 0.063,0.03908 0.0441,0.01737 0.12157,0.03835 0.0745,0.02026 0.13026,0.04776 0.0557,0.0275 0.0861,0.07237 0.0311,0.04414 0.0311,0.115059 0,0.08105 -0.0463,0.131704 -0.0463,0.04993 -0.12013,0.07309 -0.0731,0.02243 -0.15486,0.02243 -0.10348,0 -0.17657,-0.02967 -0.0724,-0.03039 -0.12157,-0.07309 l 0.0695,-0.08032 q 0.0449,0.03691 0.10276,0.06006 0.0586,0.02243 0.12591,0.02243 z"
           style="font-family:'Fira Code';-inkscape-font-specification:'Fira Code'"
           id="path389" />
        <path
           d="m 107.54756,64.574162 q 0.10131,0 0.16137,0.04921 0.0608,0.04921 0.0876,0.13894 0.0268,0.08901 0.0268,0.20841 0,0.11506 -0.0326,0.205515 -0.0318,0.08973 -0.097,0.141111 -0.0651,0.05138 -0.16426,0.05138 -0.12519,0 -0.20118,-0.08828 v 0.363271 l -0.12157,0.0152 v -1.068825 h 0.10348 l 0.0101,0.106376 q 0.042,-0.05862 0.0999,-0.09046 0.0579,-0.03184 0.12736,-0.03184 z m -0.029,0.09769 q -0.063,0 -0.11144,0.03835 -0.0485,0.03763 -0.0789,0.08394 v 0.377743 q 0.0297,0.04414 0.0745,0.07019 0.0456,0.02533 0.0999,0.02533 0.0948,0 0.14256,-0.07237 0.0478,-0.07236 0.0478,-0.225054 0,-0.298142 -0.1744,-0.298142 z"
           style="font-family:'Fira Code';-inkscape-font-specification:'Fira Code'"
           id="path391" />
        <path
           d="m 108.37179,64.283256 v 0.880677 q 0,0.05644 0.0347,0.08033 0.0355,0.02316 0.0912,0.02316 0.034,0 0.0651,-0.0072 0.0318,-0.0072 0.063,-0.01954 l 0.0326,0.08901 q -0.0311,0.0152 -0.0774,0.02678 -0.0456,0.0123 -0.10348,0.0123 -0.10131,0 -0.16427,-0.05572 -0.063,-0.05644 -0.063,-0.155584 v -0.777919 h -0.23374 v -0.09625 z"
           style="font-family:'Fira Code';-inkscape-font-specification:'Fira Code'"
           id="path393" />
        <path
           d="m 109.23221,64.233324 q 0.0405,0 0.0644,0.0246 0.0246,0.0246 0.0246,0.06006 0,0.03691 -0.0246,0.06223 -0.0239,0.0246 -0.0644,0.0246 -0.0383,0 -0.063,-0.0246 -0.0246,-0.02533 -0.0246,-0.06223 0,-0.03546 0.0246,-0.06006 0.0246,-0.0246 0.063,-0.0246 z m 0.097,0.356758 v 0.665754 h 0.21492 v 0.09624 h -0.57168 v -0.09624 h 0.23519 v -0.569509 h -0.22795 v -0.09625 z"
           style="font-family:'Fira Code';-inkscape-font-specification:'Fira Code'"
           id="path395" />
        <path
           d="m 110.41682,65.313728 q -0.0391,0.02605 -0.0948,0.04052 -0.0557,0.01447 -0.10927,0.01447 -0.12302,0 -0.1896,-0.0644 -0.0666,-0.06441 -0.0666,-0.165715 v -0.45445 h -0.17512 v -0.09407 h 0.17512 V 64.41713 l 0.12157,-0.01447 v 0.187424 h 0.26341 l -0.0145,0.09407 h -0.24894 v 0.453002 q 0,0.06368 0.0333,0.09697 0.034,0.03329 0.11216,0.03329 0.0427,0 0.0789,-0.01013 0.0362,-0.01013 0.0673,-0.02605 z"
           style="font-family:'Fira Code';-inkscape-font-specification:'Fira Code'"
           id="path397" />
        <path
           d="m 111.28519,65.313728 q -0.0391,0.02605 -0.0948,0.04052 -0.0557,0.01447 -0.10927,0.01447 -0.12302,0 -0.1896,-0.0644 -0.0666,-0.06441 -0.0666,-0.165715 v -0.45445 h -0.17512 v -0.09407 h 0.17512 V 64.41713 l 0.12158,-0.01447 v 0.187424 h 0.2634 l -0.0145,0.09407 h -0.24893 v 0.453002 q 0,0.06368 0.0333,0.09697 0.034,0.03329 0.11216,0.03329 0.0427,0 0.0789,-0.01013 0.0362,-0.01013 0.0673,-0.02605 z"
           style="font-family:'Fira Code';-inkscape-font-specification:'Fira Code'"
           id="path399" />
        <path
           d="m 111.83734,64.233324 q 0.0405,0 0.0644,0.0246 0.0246,0.0246 0.0246,0.06006 0,0.03691 -0.0246,0.06223 -0.0239,0.0246 -0.0644,0.0246 -0.0384,0 -0.063,-0.0246 -0.0246,-0.02533 -0.0246,-0.06223 0,-0.03546 0.0246,-0.06006 0.0246,-0.0246 0.063,-0.0246 z m 0.097,0.356758 v 0.665754 h 0.21493 v 0.09624 h -0.57168 v -0.09624 h 0.23518 v -0.569509 h -0.22795 v -0.09625 z"
           style="font-family:'Fira Code';-inkscape-font-specification:'Fira Code'"
           id="path401" />
        <path
           d="m 112.41698,65.352081 v -0.761999 h 0.10348 l 0.009,0.105652 q 0.0463,-0.05862 0.11578,-0.08973 0.0695,-0.03184 0.13604,-0.03184 0.11217,0 0.16283,0.05934 0.0514,0.05934 0.0514,0.164991 v 0.553589 h -0.12157 v -0.463857 q 0,-0.07815 -0.009,-0.125914 -0.009,-0.04776 -0.0369,-0.07019 -0.0275,-0.02243 -0.0847,-0.02243 -0.0449,0 -0.0847,0.01954 -0.0391,0.01954 -0.0702,0.04921 -0.0304,0.02895 -0.0507,0.05862 v 0.555036 z"
           style="font-family:'Fira Code';-inkscape-font-specification:'Fira Code'"
           id="path403" />
        <path
           d="m 113.90479,64.509034 0.0376,0.114336 q -0.0492,0.0152 -0.1042,0.01881 -0.0543,0.0036 -0.11868,0.0036 0.13243,0.06079 0.13243,0.191766 0,0.112889 -0.076,0.185977 -0.0753,0.07309 -0.21059,0.07309 -0.0383,0 -0.0644,-0.0036 -0.0253,-0.0036 -0.0492,-0.01086 -0.0174,0.0123 -0.0289,0.03256 -0.0109,0.01954 -0.0109,0.04125 0,0.0275 0.0217,0.04559 0.0217,0.01809 0.0803,0.01809 h 0.13749 q 0.0767,0 0.13749,0.0275 0.0608,0.0275 0.0962,0.07453 0.0354,0.04631 0.0354,0.104929 0,0.112165 -0.0955,0.172228 -0.0948,0.06006 -0.26847,0.06006 -0.12157,0 -0.19177,-0.02533 -0.0702,-0.0246 -0.10058,-0.07598 -0.0297,-0.05066 -0.0297,-0.128086 h 0.10999 q 0,0.04414 0.0174,0.07309 0.0174,0.02895 0.063,0.04269 0.0456,0.01447 0.13098,0.01447 0.12591,0 0.1838,-0.03184 0.0579,-0.03112 0.0579,-0.09335 0,-0.05427 -0.0492,-0.08177 -0.0492,-0.0275 -0.12302,-0.0275 h -0.13605 q -0.0991,0 -0.14545,-0.04342 -0.0463,-0.04342 -0.0463,-0.09986 0,-0.07815 0.0839,-0.13315 -0.12809,-0.06802 -0.12809,-0.210581 0,-0.07743 0.0384,-0.13677 0.0383,-0.06006 0.1071,-0.09407 0.0687,-0.03401 0.15847,-0.03401 0.0962,0 0.15631,-0.008 0.0601,-0.008 0.10276,-0.02243 0.0434,-0.01447 0.0883,-0.03401 z m -0.34735,0.153412 q -0.0919,0 -0.13604,0.04993 -0.0434,0.04993 -0.0434,0.125915 0,0.07743 0.0441,0.127361 0.0449,0.04993 0.13822,0.04993 0.0803,0 0.12302,-0.04704 0.0427,-0.04704 0.0427,-0.13098 0,-0.175123 -0.16861,-0.175123 z"
           style="font-family:'Fira Code';-inkscape-font-specification:'Fira Code'"
           id="path405" />
      </g>
      <g
         aria-label="open range, after splitting"
         id="text397"
         style="font-size:1.41111px;stroke-width:0.264583">
        <path
           d="m 90.129383,59.282498 q 0.161374,0 0.243869,0.107823 0.0825,0.107823 0.0825,0.288735 0,0.116507 -0.03763,0.206239 -0.03763,0.08973 -0.110718,0.141111 -0.07309,0.05065 -0.179464,0.05065 -0.161373,0 -0.244592,-0.108547 -0.08322,-0.108547 -0.08322,-0.288011 0,-0.117231 0.03763,-0.206963 0.03763,-0.09046 0.110718,-0.140387 0.07381,-0.05066 0.180911,-0.05066 z m 0,0.09914 q -0.09842,0 -0.149071,0.07309 -0.04993,0.07309 -0.04993,0.225778 0,0.151242 0.04921,0.22433 0.04993,0.07236 0.148347,0.07236 0.09842,0 0.147624,-0.07309 0.04993,-0.07309 0.04993,-0.225054 0,-0.151966 -0.04921,-0.224331 -0.04921,-0.07309 -0.146901,-0.07309 z"
           style="font-family:'Fira Code';-inkscape-font-specification:'Fira Code'"
           id="path408" />
        <path
           d="m 91.048415,59.282498 q 0.10131,0 0.161373,0.04921 0.06079,0.04921 0.08756,0.138941 0.02678,0.08901 0.02678,0.20841 0,0.115059 -0.03256,0.205515 -0.03184,0.08973 -0.09697,0.141111 -0.06513,0.05138 -0.164267,0.05138 -0.125191,0 -0.201174,-0.08828 v 0.363271 l -0.121573,0.0152 v -1.068825 h 0.103482 l 0.01013,0.106376 q 0.04197,-0.05862 0.09986,-0.09046 0.05789,-0.03184 0.127362,-0.03184 z m -0.02895,0.09769 q -0.06296,0 -0.111442,0.03835 -0.04848,0.03763 -0.07888,0.08394 v 0.377743 q 0.02967,0.04414 0.07453,0.07019 0.04559,0.02533 0.09986,0.02533 0.0948,0 0.142558,-0.07237 0.04776,-0.07236 0.04776,-0.225054 0,-0.298142 -0.174399,-0.298142 z"
           style="font-family:'Fira Code';-inkscape-font-specification:'Fira Code'"
           id="path410" />
        <path
           d="m 91.671475,59.722474 q 0.0051,0.132428 0.06947,0.193214 0.06513,0.06006 0.153413,0.06006 0.05862,0 0.105652,-0.01737 0.04704,-0.01737 0.09769,-0.05138 l 0.05717,0.08033 q -0.05283,0.04197 -0.121572,0.06585 -0.06875,0.02388 -0.140388,0.02388 -0.111441,0 -0.189595,-0.04993 -0.07743,-0.04993 -0.118678,-0.13894 -0.04052,-0.08973 -0.04052,-0.207686 0,-0.115783 0.04052,-0.205516 0.04125,-0.08973 0.115784,-0.141111 0.07526,-0.05138 0.176569,-0.05138 0.144006,0 0.226501,0.09986 0.08322,0.09986 0.08322,0.273538 0,0.01954 -0.0014,0.03691 -7.23e-4,0.01737 -0.0014,0.02967 z m 0.206962,-0.340113 q -0.08467,0 -0.141834,0.06006 -0.05717,0.06006 -0.06441,0.185977 h 0.397282 q -0.0022,-0.122296 -0.05355,-0.183806 -0.05138,-0.06223 -0.137493,-0.06223 z"
           style="font-family:'Fira Code';-inkscape-font-specification:'Fira Code'"
           id="path412" />
        <path
           d="m 92.444329,60.060417 v -0.761999 h 0.103482 l 0.0094,0.105652 q 0.04631,-0.05861 0.115784,-0.08973 0.06947,-0.03184 0.136045,-0.03184 0.112165,0 0.16282,0.05934 0.05138,0.05934 0.05138,0.164991 v 0.553589 H 92.901674 V 59.59656 q 0,-0.07815 -0.0087,-0.125914 -0.0087,-0.04776 -0.03691,-0.07019 -0.0275,-0.02243 -0.08467,-0.02243 -0.04487,0 -0.08467,0.01954 -0.03908,0.01954 -0.07019,0.04921 -0.03039,0.02895 -0.05066,0.05862 v 0.555036 z"
           style="font-family:'Fira Code';-inkscape-font-specification:'Fira Code'"
           id="path414" />
        <path
           d="m 94.188318,60.060417 v -0.09335 h 0.118678 v -0.575299 h -0.118678 v -0.09335 h 0.211304 l 0.02243,0.180188 q 0.04414,-0.09407 0.1071,-0.145453 0.06296,-0.05138 0.166439,-0.05138 0.03184,0 0.05644,0.0051 0.02533,0.0043 0.05138,0.01158 l -0.01737,0.257618 h -0.09986 v -0.162097 q -0.0029,0 -0.0065,0 -0.175122,0 -0.251105,0.250382 v 0.322746 h 0.15486 v 0.09335 z"
           style="font-family:'Fira Code';-inkscape-font-specification:'Fira Code'"
           id="path416" />
        <path
           d="m 95.595087,59.893979 q 0,0.04631 0.0152,0.0673 0.0152,0.02099 0.04704,0.03039 l -0.02967,0.08539 q -0.04921,-0.0065 -0.08611,-0.03112 -0.03691,-0.02533 -0.05355,-0.07598 -0.04125,0.05283 -0.103481,0.08033 -0.06151,0.02678 -0.135322,0.02678 -0.114336,0 -0.180188,-0.0644 -0.06585,-0.06441 -0.06585,-0.170781 0,-0.117954 0.0919,-0.180912 0.0919,-0.06296 0.265578,-0.06296 h 0.112165 v -0.06368 q 0,-0.0825 -0.04848,-0.116507 -0.04776,-0.03474 -0.133151,-0.03474 -0.03763,0 -0.08828,0.0094 -0.05066,0.0087 -0.109994,0.02967 l -0.03184,-0.0919 q 0.06947,-0.02605 0.13098,-0.03691 0.06223,-0.01085 0.117954,-0.01085 0.141835,0 0.213476,0.06658 0.07164,0.06658 0.07164,0.179464 z m -0.314786,0.09045 q 0.05644,0 0.107099,-0.02822 0.05138,-0.02895 0.08539,-0.0796 v -0.196108 h -0.109994 q -0.125914,0 -0.178017,0.04342 -0.05138,0.04342 -0.05138,0.116507 0,0.144005 0.146901,0.144005 z"
           style="font-family:'Fira Code';-inkscape-font-specification:'Fira Code'"
           id="path418" />
        <path
           d="m 95.917834,60.060417 v -0.761999 h 0.103481 l 0.0094,0.105652 q 0.04631,-0.05861 0.115783,-0.08973 0.06947,-0.03184 0.136045,-0.03184 0.112166,0 0.162821,0.05934 0.05138,0.05934 0.05138,0.164991 v 0.553589 H 96.375178 V 59.59656 q 0,-0.07815 -0.0087,-0.125914 -0.0087,-0.04776 -0.03691,-0.07019 -0.0275,-0.02243 -0.08467,-0.02243 -0.04487,0 -0.08467,0.01954 -0.03908,0.01954 -0.07019,0.04921 -0.03039,0.02895 -0.05066,0.05862 v 0.555036 z"
           style="font-family:'Fira Code';-inkscape-font-specification:'Fira Code'"
           id="path420" />
        <path
           d="m 97.405651,59.217369 0.03763,0.114336 q -0.04921,0.0152 -0.104205,0.01882 -0.05427,0.0036 -0.118678,0.0036 0.132427,0.06079 0.132427,0.191766 0,0.112889 -0.07598,0.185977 -0.07526,0.07309 -0.210581,0.07309 -0.03835,0 -0.0644,-0.0036 -0.02533,-0.0036 -0.04921,-0.01085 -0.01737,0.0123 -0.02895,0.03256 -0.01085,0.01954 -0.01085,0.04125 0,0.0275 0.02171,0.04559 0.02171,0.01809 0.08033,0.01809 h 0.137492 q 0.07671,0 0.137493,0.0275 0.06079,0.0275 0.09624,0.07454 0.03546,0.04631 0.03546,0.104929 0,0.112165 -0.09552,0.172228 -0.0948,0.06006 -0.268473,0.06006 -0.121573,0 -0.191766,-0.02533 -0.07019,-0.0246 -0.100587,-0.07598 -0.02967,-0.05066 -0.02967,-0.128086 h 0.109994 q 0,0.04414 0.01737,0.07309 0.01737,0.02895 0.06296,0.0427 0.04559,0.01447 0.13098,0.01447 0.125915,0 0.183806,-0.03184 0.05789,-0.03112 0.05789,-0.09335 0,-0.05427 -0.04921,-0.08177 -0.04921,-0.0275 -0.12302,-0.0275 h -0.136045 q -0.09914,0 -0.145453,-0.04342 -0.04631,-0.04342 -0.04631,-0.09986 0,-0.07815 0.08394,-0.133151 -0.128085,-0.06802 -0.128085,-0.210581 0,-0.07743 0.03835,-0.136769 0.03835,-0.06006 0.1071,-0.09407 0.06875,-0.03401 0.158478,-0.03401 0.09624,0 0.156308,-0.008 0.06006,-0.008 0.102758,-0.02243 0.04342,-0.01447 0.08828,-0.03401 z M 97.0583,59.370782 q -0.0919,0 -0.136045,0.04993 -0.04342,0.04993 -0.04342,0.125914 0,0.07743 0.04414,0.127362 0.04487,0.04993 0.138216,0.04993 0.08033,0 0.12302,-0.04704 0.0427,-0.04704 0.0427,-0.13098 0,-0.175123 -0.16861,-0.175123 z"
           style="font-family:'Fira Code';-inkscape-font-specification:'Fira Code'"
           id="path422" />
        <path
           d="m 97.750107,59.722474 q 0.0051,0.132428 0.06947,0.193214 0.06513,0.06006 0.153413,0.06006 0.05862,0 0.105652,-0.01737 0.04704,-0.01737 0.09769,-0.05138 l 0.05717,0.08033 q -0.05283,0.04197 -0.121572,0.06585 -0.06875,0.02388 -0.140388,0.02388 -0.111441,0 -0.189595,-0.04993 -0.07743,-0.04993 -0.118678,-0.13894 -0.04052,-0.08973 -0.04052,-0.207686 0,-0.115783 0.04052,-0.205516 0.04125,-0.08973 0.115783,-0.141111 0.07526,-0.05138 0.17657,-0.05138 0.144006,0 0.226501,0.09986 0.08322,0.09986 0.08322,0.273538 0,0.01954 -0.0014,0.03691 -7.23e-4,0.01737 -0.0014,0.02967 z m 0.206962,-0.340113 q -0.08467,0 -0.141834,0.06006 -0.05717,0.06006 -0.06441,0.185977 h 0.397282 q -0.0022,-0.122296 -0.05355,-0.183806 -0.05138,-0.06223 -0.137493,-0.06223 z"
           style="font-family:'Fira Code';-inkscape-font-specification:'Fira Code'"
           id="path424" />
        <path
           d="m 98.811696,59.822338 q 0.04993,0 0.08322,0.03401 0.03401,0.03401 0.03401,0.08177 0,0.02605 -0.0065,0.05283 -0.0058,0.02678 -0.02171,0.06079 l -0.11723,0.268473 h -0.109995 l 0.06947,-0.28584 q -0.04704,-0.03401 -0.04704,-0.09624 0,-0.04776 0.03329,-0.08177 0.03329,-0.03401 0.0825,-0.03401 z"
           style="font-family:'Fira Code';-inkscape-font-specification:'Fira Code'"
           id="path426" />
        <path
           d="m 100.80534,59.893979 q 0,0.04631 0.0152,0.0673 0.0152,0.02099 0.047,0.03039 l -0.0297,0.08539 q -0.0492,-0.0065 -0.0861,-0.03112 -0.0369,-0.02533 -0.0536,-0.07598 -0.0412,0.05283 -0.10348,0.08033 -0.0615,0.02678 -0.13532,0.02678 -0.11434,0 -0.18019,-0.0644 -0.0659,-0.06441 -0.0659,-0.170781 0,-0.117954 0.0919,-0.180912 0.0919,-0.06296 0.26558,-0.06296 h 0.11217 v -0.06368 q 0,-0.0825 -0.0485,-0.116507 -0.0478,-0.03474 -0.13315,-0.03474 -0.0376,0 -0.0883,0.0094 -0.0507,0.0087 -0.11,0.02967 l -0.0318,-0.0919 q 0.0695,-0.02605 0.13098,-0.03691 0.0622,-0.01085 0.11796,-0.01085 0.14183,0 0.21347,0.06658 0.0716,0.06658 0.0716,0.179464 z m -0.31478,0.09045 q 0.0564,0 0.1071,-0.02822 0.0514,-0.02895 0.0854,-0.0796 v -0.196108 h -0.11 q -0.12591,0 -0.17801,0.04342 -0.0514,0.04342 -0.0514,0.116507 0,0.144005 0.1469,0.144005 z"
           style="font-family:'Fira Code';-inkscape-font-specification:'Fira Code'"
           id="path428" />
        <path
           d="m 101.5782,58.976395 q 0.0615,0 0.11144,0.01086 0.0499,0.01085 0.0948,0.03039 l -0.0391,0.09046 q -0.0369,-0.01592 -0.0789,-0.02388 -0.0413,-0.008 -0.0847,-0.008 -0.15993,0 -0.15993,0.126638 v 0.154861 h 0.25834 l -0.013,0.09552 h -0.24532 v 0.607139 h -0.12157 v -0.607139 h -0.18164 v -0.09552 h 0.18164 v -0.151966 q 0,-0.07092 0.0362,-0.122296 0.0369,-0.05138 0.0999,-0.07888 0.063,-0.02822 0.14184,-0.02822 z"
           style="font-family:'Fira Code';-inkscape-font-specification:'Fira Code'"
           id="path430" />
        <path
           d="m 102.60143,60.022064 q -0.0391,0.02605 -0.0948,0.04052 -0.0557,0.01447 -0.10927,0.01447 -0.12302,0 -0.1896,-0.0644 -0.0666,-0.06441 -0.0666,-0.165715 v -0.45445 h -0.17513 v -0.09407 h 0.17513 v -0.172952 l 0.12157,-0.01447 v 0.187425 h 0.26341 l -0.0145,0.09407 h -0.24893 v 0.453002 q 0,0.06368 0.0333,0.09697 0.034,0.03329 0.11216,0.03329 0.0427,0 0.0789,-0.01013 0.0362,-0.01013 0.0673,-0.02605 z"
           style="font-family:'Fira Code';-inkscape-font-specification:'Fira Code'"
           id="path432" />
        <path
           d="m 102.96036,59.722474 q 0.005,0.132428 0.0695,0.193214 0.0651,0.06006 0.15342,0.06006 0.0586,0 0.10565,-0.01737 0.047,-0.01737 0.0977,-0.05138 l 0.0572,0.08033 q -0.0528,0.04197 -0.12157,0.06585 -0.0688,0.02388 -0.14039,0.02388 -0.11144,0 -0.1896,-0.04993 -0.0774,-0.04993 -0.11867,-0.13894 -0.0405,-0.08973 -0.0405,-0.207686 0,-0.115783 0.0405,-0.205516 0.0412,-0.08973 0.11578,-0.141111 0.0753,-0.05138 0.17657,-0.05138 0.144,0 0.2265,0.09986 0.0832,0.09986 0.0832,0.273538 0,0.01954 -0.001,0.03691 -7.2e-4,0.01737 -0.001,0.02967 z m 0.20697,-0.340113 q -0.0847,0 -0.14184,0.06006 -0.0572,0.06006 -0.0644,0.185977 h 0.39728 q -0.002,-0.122296 -0.0535,-0.183806 -0.0514,-0.06223 -0.13749,-0.06223 z"
           style="font-family:'Fira Code';-inkscape-font-specification:'Fira Code'"
           id="path434" />
        <path
           d="m 103.74045,60.060417 v -0.09335 h 0.11868 v -0.575299 h -0.11868 v -0.09335 h 0.21131 l 0.0224,0.180188 q 0.0441,-0.09407 0.1071,-0.145453 0.063,-0.05138 0.16644,-0.05138 0.0318,0 0.0564,0.0051 0.0253,0.0043 0.0514,0.01158 l -0.0174,0.257618 h -0.0999 v -0.162097 q -0.003,0 -0.007,0 -0.17512,0 -0.25111,0.250382 v 0.322746 h 0.15486 v 0.09335 z"
           style="font-family:'Fira Code';-inkscape-font-specification:'Fira Code'"
           id="path436" />
        <path
           d="m 105.72903,59.976474 q 0.0883,0 0.13894,-0.03256 0.0507,-0.03256 0.0507,-0.08828 0,-0.03401 -0.013,-0.05934 -0.0123,-0.02533 -0.0514,-0.04559 -0.0391,-0.02099 -0.12013,-0.04125 -0.0789,-0.01954 -0.13749,-0.04487 -0.0579,-0.02605 -0.0905,-0.0673 -0.0318,-0.04125 -0.0318,-0.1071 0,-0.09624 0.0803,-0.151966 0.0803,-0.05572 0.20913,-0.05572 0.0919,0 0.15993,0.0246 0.0687,0.0246 0.1165,0.05934 l -0.0536,0.0825 q -0.0427,-0.02967 -0.0955,-0.04848 -0.0521,-0.01954 -0.12591,-0.01954 -0.0897,0 -0.12736,0.02822 -0.0376,0.0275 -0.0376,0.07164 0,0.03401 0.0181,0.05644 0.0188,0.02171 0.063,0.03908 0.0442,0.01737 0.12158,0.03835 0.0745,0.02026 0.13025,0.04776 0.0557,0.0275 0.0861,0.07236 0.0311,0.04414 0.0311,0.11506 0,0.08105 -0.0463,0.131704 -0.0463,0.04993 -0.12013,0.07309 -0.0731,0.02243 -0.15486,0.02243 -0.10348,0 -0.17657,-0.02967 -0.0724,-0.03039 -0.12157,-0.07309 l 0.0695,-0.08032 q 0.0449,0.03691 0.10276,0.06006 0.0586,0.02243 0.12591,0.02243 z"
           style="font-family:'Fira Code';-inkscape-font-specification:'Fira Code'"
           id="path438" />
        <path
           d="m 106.67918,59.282498 q 0.10131,0 0.16138,0.04921 0.0608,0.04921 0.0876,0.138941 0.0268,0.08901 0.0268,0.20841 0,0.115059 -0.0326,0.205515 -0.0318,0.08973 -0.097,0.141111 -0.0651,0.05138 -0.16427,0.05138 -0.12519,0 -0.20117,-0.08828 v 0.363271 l -0.12158,0.0152 v -1.068825 h 0.10349 l 0.0101,0.106376 q 0.042,-0.05862 0.0999,-0.09046 0.0579,-0.03184 0.12736,-0.03184 z m -0.0289,0.09769 q -0.063,0 -0.11145,0.03835 -0.0485,0.03763 -0.0789,0.08394 v 0.377743 q 0.0297,0.04414 0.0745,0.07019 0.0456,0.02533 0.0999,0.02533 0.0948,0 0.14255,-0.07237 0.0478,-0.07236 0.0478,-0.225054 0,-0.298142 -0.1744,-0.298142 z"
           style="font-family:'Fira Code';-inkscape-font-specification:'Fira Code'"
           id="path440" />
        <path
           d="m 107.50342,58.991592 v 0.880677 q 0,0.05644 0.0347,0.08032 0.0355,0.02316 0.0912,0.02316 0.034,0 0.0651,-0.0072 0.0318,-0.0072 0.063,-0.01954 l 0.0326,0.08901 q -0.0311,0.0152 -0.0774,0.02678 -0.0456,0.0123 -0.10348,0.0123 -0.10131,0 -0.16427,-0.05572 -0.063,-0.05644 -0.063,-0.155584 v -0.777919 h -0.23373 v -0.09625 z"
           style="font-family:'Fira Code';-inkscape-font-specification:'Fira Code'"
           id="path442" />
        <path
           d="m 108.36383,58.94166 q 0.0405,0 0.0644,0.0246 0.0246,0.0246 0.0246,0.06006 0,0.03691 -0.0246,0.06223 -0.0239,0.0246 -0.0644,0.0246 -0.0383,0 -0.0629,-0.0246 -0.0246,-0.02533 -0.0246,-0.06223 0,-0.03546 0.0246,-0.06006 0.0246,-0.0246 0.0629,-0.0246 z m 0.097,0.356758 v 0.665754 h 0.21492 v 0.09625 h -0.57168 v -0.09625 h 0.23519 v -0.569509 h -0.22795 v -0.09625 z"
           style="font-family:'Fira Code';-inkscape-font-specification:'Fira Code'"
           id="path444" />
        <path
           d="m 109.54844,60.022064 q -0.0391,0.02605 -0.0948,0.04052 -0.0557,0.01447 -0.10927,0.01447 -0.12302,0 -0.18959,-0.0644 -0.0666,-0.06441 -0.0666,-0.165715 v -0.45445 h -0.17512 v -0.09407 h 0.17512 v -0.172952 l 0.12158,-0.01447 v 0.187425 h 0.2634 l -0.0145,0.09407 h -0.24893 v 0.453002 q 0,0.06368 0.0333,0.09697 0.034,0.03329 0.11217,0.03329 0.0427,0 0.0789,-0.01013 0.0362,-0.01013 0.0673,-0.02605 z"
           style="font-family:'Fira Code';-inkscape-font-specification:'Fira Code'"
           id="path446" />
        <path
           d="m 110.41682,60.022064 q -0.0391,0.02605 -0.0948,0.04052 -0.0557,0.01447 -0.10927,0.01447 -0.12302,0 -0.1896,-0.0644 -0.0666,-0.06441 -0.0666,-0.165715 v -0.45445 h -0.17512 v -0.09407 h 0.17512 v -0.172952 l 0.12157,-0.01447 v 0.187425 h 0.26341 l -0.0145,0.09407 h -0.24894 v 0.453002 q 0,0.06368 0.0333,0.09697 0.034,0.03329 0.11216,0.03329 0.0427,0 0.0789,-0.01013 0.0362,-0.01013 0.0673,-0.02605 z"
           style="font-family:'Fira Code';-inkscape-font-specification:'Fira Code'"
           id="path448" />
        <path
           d="m 110.96896,58.94166 q 0.0405,0 0.0644,0.0246 0.0246,0.0246 0.0246,0.06006 0,0.03691 -0.0246,0.06223 -0.0239,0.0246 -0.0644,0.0246 -0.0383,0 -0.063,-0.0246 -0.0246,-0.02533 -0.0246,-0.06223 0,-0.03546 0.0246,-0.06006 0.0246,-0.0246 0.063,-0.0246 z m 0.097,0.356758 v 0.665754 h 0.21492 v 0.09625 h -0.57168 v -0.09625 h 0.23519 v -0.569509 h -0.22795 v -0.09625 z"
           style="font-family:'Fira Code';-inkscape-font-specification:'Fira Code'"
           id="path450" />
        <path
           d="m 111.5486,60.060417 v -0.761999 h 0.10348 l 0.009,0.105652 q 0.0463,-0.05861 0.11578,-0.08973 0.0695,-0.03184 0.13605,-0.03184 0.11216,0 0.16282,0.05934 0.0514,0.05934 0.0514,0.164991 v 0.553589 h -0.12157 V 59.59656 q 0,-0.07815 -0.009,-0.125914 -0.009,-0.04776 -0.0369,-0.07019 -0.0275,-0.02243 -0.0847,-0.02243 -0.0449,0 -0.0847,0.01954 -0.0391,0.01954 -0.0702,0.04921 -0.0304,0.02895 -0.0507,0.05862 v 0.555036 z"
           style="font-family:'Fira Code';-inkscape-font-specification:'Fira Code'"
           id="path452" />
        <path
           d="m 113.03642,59.217369 0.0376,0.114336 q -0.0492,0.0152 -0.10421,0.01882 -0.0543,0.0036 -0.11867,0.0036 0.13242,0.06079 0.13242,0.191766 0,0.112889 -0.076,0.185977 -0.0753,0.07309 -0.21058,0.07309 -0.0383,0 -0.0644,-0.0036 -0.0253,-0.0036 -0.0492,-0.01085 -0.0174,0.0123 -0.029,0.03256 -0.0108,0.01954 -0.0108,0.04125 0,0.0275 0.0217,0.04559 0.0217,0.01809 0.0803,0.01809 h 0.13749 q 0.0767,0 0.1375,0.0275 0.0608,0.0275 0.0962,0.07454 0.0355,0.04631 0.0355,0.104929 0,0.112165 -0.0955,0.172228 -0.0948,0.06006 -0.26848,0.06006 -0.12157,0 -0.19176,-0.02533 -0.0702,-0.0246 -0.10059,-0.07598 -0.0297,-0.05066 -0.0297,-0.128086 h 0.11 q 0,0.04414 0.0174,0.07309 0.0174,0.02895 0.063,0.0427 0.0456,0.01447 0.13098,0.01447 0.12592,0 0.18381,-0.03184 0.0579,-0.03112 0.0579,-0.09335 0,-0.05427 -0.0492,-0.08177 -0.0492,-0.0275 -0.12302,-0.0275 h -0.13604 q -0.0991,0 -0.14546,-0.04342 -0.0463,-0.04342 -0.0463,-0.09986 0,-0.07815 0.0839,-0.133151 -0.12808,-0.06802 -0.12808,-0.210581 0,-0.07743 0.0383,-0.136769 0.0383,-0.06006 0.1071,-0.09407 0.0687,-0.03401 0.15848,-0.03401 0.0962,0 0.15631,-0.008 0.0601,-0.008 0.10275,-0.02243 0.0434,-0.01447 0.0883,-0.03401 z m -0.34735,0.153413 q -0.0919,0 -0.13605,0.04993 -0.0434,0.04993 -0.0434,0.125914 0,0.07743 0.0441,0.127362 0.0449,0.04993 0.13821,0.04993 0.0803,0 0.12302,-0.04704 0.0427,-0.04704 0.0427,-0.13098 0,-0.175123 -0.16861,-0.175123 z"
           style="font-family:'Fira Code';-inkscape-font-specification:'Fira Code'"
           id="path454" />
      </g>
      <g
         aria-label="closed range, before splitting"
         id="text401"
         style="font-size:1.41111px;stroke-width:0.264583">
        <path
           d="m 86.744074,78.492968 q 0.05717,0 0.106376,-0.01809 0.04993,-0.01882 0.0919,-0.04848 l 0.05934,0.0796 q -0.04993,0.04269 -0.120125,0.0673 -0.07019,0.0246 -0.137493,0.0246 -0.113612,0 -0.193937,-0.04848 -0.0796,-0.04921 -0.121573,-0.137493 -0.04197,-0.08901 -0.04197,-0.20841 0,-0.114336 0.04197,-0.204792 0.04197,-0.09046 0.122297,-0.142558 0.08032,-0.05283 0.19466,-0.05283 0.145453,0 0.254724,0.08828 l -0.05934,0.08105 q -0.09914,-0.06802 -0.196832,-0.06802 -0.09842,0 -0.162097,0.07453 -0.06368,0.07381 -0.06368,0.224331 0,0.152689 0.06368,0.221435 0.06368,0.06802 0.162097,0.06802 z"
           style="font-family:'Fira Code';-inkscape-font-specification:'Fira Code'"
           id="path457" />
        <path
           d="m 87.564689,77.512428 v 0.880677 q 0,0.05644 0.03473,0.08032 0.03546,0.02316 0.09118,0.02316 0.03401,0 0.06513,-0.0072 0.03184,-0.0072 0.06296,-0.01954 l 0.03256,0.08901 q -0.03112,0.0152 -0.07743,0.02678 -0.04559,0.0123 -0.103481,0.0123 -0.101311,0 -0.164268,-0.05572 -0.06296,-0.05644 -0.06296,-0.155584 v -0.777919 h -0.233738 v -0.09624 z"
           style="font-family:'Fira Code';-inkscape-font-specification:'Fira Code'"
           id="path459" />
        <path
           d="m 88.426553,77.803333 q 0.161373,0 0.243868,0.107824 0.0825,0.107823 0.0825,0.288735 0,0.116507 -0.03763,0.206239 -0.03763,0.08973 -0.110718,0.141111 -0.07309,0.05066 -0.179465,0.05066 -0.161373,0 -0.244592,-0.108547 -0.08322,-0.108547 -0.08322,-0.288011 0,-0.117231 0.03763,-0.206963 0.03763,-0.09046 0.110718,-0.140387 0.07381,-0.05066 0.180912,-0.05066 z m 0,0.09914 q -0.09842,0 -0.149071,0.07309 -0.04993,0.07309 -0.04993,0.225778 0,0.151242 0.04921,0.22433 0.04993,0.07237 0.148347,0.07237 0.09842,0 0.147624,-0.07309 0.04993,-0.07309 0.04993,-0.225053 0,-0.151966 -0.04921,-0.224331 -0.04921,-0.07309 -0.1469,-0.07309 z"
           style="font-family:'Fira Code';-inkscape-font-specification:'Fira Code'"
           id="path461" />
        <path
           d="m 89.263812,78.49731 q 0.08828,0 0.13894,-0.03256 0.05065,-0.03256 0.05065,-0.08828 0,-0.03401 -0.01302,-0.05934 -0.0123,-0.02533 -0.05138,-0.04559 -0.03908,-0.02098 -0.120126,-0.04125 -0.07888,-0.01954 -0.137492,-0.04487 -0.05789,-0.02605 -0.09046,-0.0673 -0.03184,-0.04125 -0.03184,-0.107099 0,-0.09624 0.08032,-0.151966 0.08033,-0.05572 0.209134,-0.05572 0.0919,0 0.159926,0.0246 0.06875,0.0246 0.116507,0.05934 l -0.05355,0.0825 q -0.04269,-0.02967 -0.09552,-0.04848 -0.0521,-0.01954 -0.125915,-0.01954 -0.08973,0 -0.127362,0.02822 -0.03763,0.0275 -0.03763,0.07164 0,0.03401 0.01809,0.05645 0.01882,0.02171 0.06296,0.03908 0.04414,0.01737 0.121573,0.03835 0.07453,0.02026 0.130256,0.04776 0.05572,0.0275 0.08611,0.07236 0.03112,0.04414 0.03112,0.11506 0,0.08105 -0.04631,0.131704 -0.04631,0.04993 -0.120125,0.07309 -0.07309,0.02243 -0.15486,0.02243 -0.103481,0 -0.17657,-0.02967 -0.07236,-0.03039 -0.121572,-0.07309 l 0.06947,-0.08032 q 0.04487,0.03691 0.102757,0.06006 0.05862,0.02243 0.125915,0.02243 z"
           style="font-family:'Fira Code';-inkscape-font-specification:'Fira Code'"
           id="path463" />
        <path
           d="m 89.968644,78.24331 q 0.0051,0.132428 0.06947,0.193214 0.06513,0.06006 0.153413,0.06006 0.05862,0 0.105652,-0.01737 0.04704,-0.01737 0.09769,-0.05138 l 0.05717,0.08033 q -0.05283,0.04197 -0.121573,0.06585 -0.06875,0.02388 -0.140387,0.02388 -0.111442,0 -0.189596,-0.04993 -0.07743,-0.04993 -0.118678,-0.13894 -0.04052,-0.08973 -0.04052,-0.207686 0,-0.115784 0.04052,-0.205516 0.04125,-0.08973 0.115784,-0.141111 0.07526,-0.05138 0.176569,-0.05138 0.144006,0 0.226502,0.09986 0.08322,0.09986 0.08322,0.273538 0,0.01954 -0.0014,0.03691 -7.24e-4,0.01737 -0.0014,0.02967 z m 0.206963,-0.340113 q -0.08467,0 -0.141835,0.06006 -0.05717,0.06006 -0.0644,0.185977 h 0.397281 q -0.0022,-0.122296 -0.05355,-0.183806 -0.05138,-0.06223 -0.137492,-0.06223 z"
           style="font-family:'Fira Code';-inkscape-font-specification:'Fira Code'"
           id="path465" />
        <path
           d="m 91.197395,77.497231 0.121573,0.0152 v 1.068825 h -0.106376 l -0.01158,-0.100587 q -0.04269,0.06079 -0.09842,0.08901 -0.055,0.02822 -0.117955,0.02822 -0.09914,0 -0.163544,-0.04993 -0.0644,-0.04993 -0.09552,-0.13894 -0.03112,-0.08973 -0.03112,-0.207686 0,-0.114336 0.03546,-0.204068 0.03546,-0.09046 0.102034,-0.141835 0.0673,-0.0521 0.161373,-0.0521 0.126638,0 0.204068,0.08973 z m -0.172227,0.403795 q -0.09552,0 -0.1469,0.07453 -0.05138,0.07454 -0.05138,0.225778 0,0.298142 0.183082,0.298142 0.06441,0 0.110718,-0.03618 0.04631,-0.03691 0.07671,-0.08394 v -0.380638 q -0.03112,-0.04631 -0.07526,-0.07164 -0.04414,-0.02605 -0.09697,-0.02605 z"
           style="font-family:'Fira Code';-inkscape-font-specification:'Fira Code'"
           id="path467" />
        <path
           d="m 92.485487,78.581253 v -0.09335 h 0.118678 v -0.575299 h -0.118678 v -0.09335 h 0.211305 l 0.02243,0.180188 q 0.04414,-0.09407 0.1071,-0.145453 0.06296,-0.05138 0.166438,-0.05138 0.03184,0 0.05644,0.0051 0.02533,0.0043 0.05138,0.01158 l -0.01737,0.257618 h -0.09986 v -0.162097 q -0.0029,0 -0.0065,0 -0.175122,0 -0.251105,0.250382 v 0.322746 h 0.15486 v 0.09335 z"
           style="font-family:'Fira Code';-inkscape-font-specification:'Fira Code'"
           id="path469" />
        <path
           d="m 93.892256,78.414814 q 0,0.04631 0.0152,0.0673 0.0152,0.02099 0.04704,0.03039 l -0.02967,0.08539 q -0.04921,-0.0065 -0.08611,-0.03112 -0.03691,-0.02533 -0.05355,-0.07598 -0.04125,0.05283 -0.103481,0.08033 -0.06151,0.02678 -0.135322,0.02678 -0.114336,0 -0.180188,-0.06441 -0.06585,-0.0644 -0.06585,-0.17078 0,-0.117954 0.0919,-0.180912 0.0919,-0.06296 0.265579,-0.06296 h 0.112165 v -0.06368 q 0,-0.08249 -0.04848,-0.116507 -0.04776,-0.03473 -0.133151,-0.03473 -0.03763,0 -0.08828,0.0094 -0.05066,0.0087 -0.109995,0.02967 l -0.03184,-0.0919 q 0.06947,-0.02605 0.13098,-0.03691 0.06223,-0.01086 0.117954,-0.01086 0.141835,0 0.213476,0.06658 0.07164,0.06657 0.07164,0.179464 z m -0.314786,0.09046 q 0.05644,0 0.107099,-0.02822 0.05138,-0.02895 0.08539,-0.0796 v -0.196108 h -0.109995 q -0.125914,0 -0.178017,0.04342 -0.05138,0.04342 -0.05138,0.116507 0,0.144005 0.1469,0.144005 z"
           style="font-family:'Fira Code';-inkscape-font-specification:'Fira Code'"
           id="path471" />
        <path
           d="m 94.215002,78.581253 v -0.761999 h 0.103482 l 0.0094,0.105652 q 0.04631,-0.05861 0.115784,-0.08973 0.06947,-0.03184 0.136045,-0.03184 0.112165,0 0.162821,0.05934 0.05138,0.05934 0.05138,0.164992 v 0.553589 h -0.121572 v -0.463857 q 0,-0.07815 -0.0087,-0.125915 -0.0087,-0.04776 -0.03691,-0.07019 -0.0275,-0.02243 -0.08467,-0.02243 -0.04487,0 -0.08467,0.01954 -0.03908,0.01954 -0.07019,0.04921 -0.03039,0.02895 -0.05066,0.05862 v 0.555037 z"
           style="font-family:'Fira Code';-inkscape-font-specification:'Fira Code'"
           id="path473" />
        <path
           d="m 95.702819,77.738205 0.03763,0.114336 q -0.04921,0.0152 -0.104205,0.01882 -0.05427,0.0036 -0.118678,0.0036 0.132427,0.06079 0.132427,0.191767 0,0.112888 -0.07598,0.185977 -0.07526,0.07309 -0.210581,0.07309 -0.03835,0 -0.0644,-0.0036 -0.02533,-0.0036 -0.04921,-0.01085 -0.01737,0.0123 -0.02895,0.03256 -0.01086,0.01954 -0.01086,0.04125 0,0.0275 0.02171,0.04559 0.02171,0.01809 0.08032,0.01809 h 0.137493 q 0.07671,0 0.137493,0.0275 0.06079,0.0275 0.09624,0.07454 0.03546,0.04631 0.03546,0.104929 0,0.112165 -0.09552,0.172227 -0.0948,0.06006 -0.268472,0.06006 -0.121573,0 -0.191767,-0.02533 -0.07019,-0.0246 -0.100587,-0.07598 -0.02967,-0.05066 -0.02967,-0.128086 h 0.109994 q 0,0.04414 0.01737,0.07309 0.01737,0.02895 0.06296,0.0427 0.04559,0.01447 0.13098,0.01447 0.125914,0 0.183806,-0.03184 0.05789,-0.03112 0.05789,-0.09335 0,-0.05427 -0.04921,-0.08177 -0.04921,-0.0275 -0.12302,-0.0275 h -0.136046 q -0.09914,0 -0.145452,-0.04342 -0.04631,-0.04342 -0.04631,-0.09986 0,-0.07815 0.08394,-0.133151 -0.128085,-0.06802 -0.128085,-0.210581 0,-0.07743 0.03835,-0.136769 0.03835,-0.06006 0.1071,-0.09407 0.06875,-0.03401 0.158478,-0.03401 0.09624,0 0.156308,-0.008 0.06006,-0.008 0.102758,-0.02243 0.04342,-0.01447 0.08828,-0.03401 z m -0.34735,0.153413 q -0.0919,0 -0.136045,0.04993 -0.04342,0.04993 -0.04342,0.125914 0,0.07743 0.04414,0.127362 0.04487,0.04993 0.138217,0.04993 0.08032,0 0.12302,-0.04704 0.04269,-0.04704 0.04269,-0.13098 0,-0.175123 -0.16861,-0.175123 z"
           style="font-family:'Fira Code';-inkscape-font-specification:'Fira Code'"
           id="path475" />
        <path
           d="m 96.047276,78.24331 q 0.0051,0.132428 0.06947,0.193214 0.06513,0.06006 0.153413,0.06006 0.05862,0 0.105653,-0.01737 0.04704,-0.01737 0.09769,-0.05138 l 0.05717,0.08033 q -0.05283,0.04197 -0.121573,0.06585 -0.06875,0.02388 -0.140387,0.02388 -0.111442,0 -0.189595,-0.04993 -0.07743,-0.04993 -0.118678,-0.13894 -0.04052,-0.08973 -0.04052,-0.207686 0,-0.115784 0.04052,-0.205516 0.04125,-0.08973 0.115783,-0.141111 0.07526,-0.05138 0.17657,-0.05138 0.144005,0 0.226501,0.09986 0.08322,0.09986 0.08322,0.273538 0,0.01954 -0.0014,0.03691 -7.24e-4,0.01737 -0.0014,0.02967 z m 0.206963,-0.340113 q -0.08467,0 -0.141835,0.06006 -0.05717,0.06006 -0.0644,0.185977 h 0.397282 q -0.0022,-0.122296 -0.05355,-0.183806 -0.05138,-0.06223 -0.137493,-0.06223 z"
           style="font-family:'Fira Code';-inkscape-font-specification:'Fira Code'"
           id="path477" />
        <path
           d="m 97.108866,78.343173 q 0.04993,0 0.08322,0.03401 0.03401,0.03401 0.03401,0.08177 0,0.02605 -0.0065,0.05283 -0.0058,0.02678 -0.02171,0.06079 l -0.117231,0.268473 h -0.109994 l 0.06947,-0.28584 q -0.04704,-0.03401 -0.04704,-0.09624 0,-0.04776 0.03329,-0.08177 0.03329,-0.03401 0.0825,-0.03401 z"
           style="font-family:'Fira Code';-inkscape-font-specification:'Fira Code'"
           id="path479" />
        <path
           d="m 98.678456,77.918393 q 0.04125,-0.055 0.09624,-0.08467 0.05572,-0.03039 0.120849,-0.03039 0.102034,0 0.164991,0.04921 0.06296,0.04921 0.0919,0.13894 0.02895,0.08901 0.02895,0.208411 0,0.115059 -0.03473,0.205515 -0.03401,0.08973 -0.101311,0.141111 -0.0673,0.05138 -0.165715,0.05138 -0.132427,0 -0.207686,-0.09552 l -0.0087,0.07888 h -0.106376 v -1.068825 l 0.121573,-0.0152 z m 0.172228,0.581088 q 0.09552,0 0.1469,-0.07381 0.05138,-0.07381 0.05138,-0.226501 0,-0.298142 -0.179465,-0.298142 -0.06368,0 -0.112165,0.03835 -0.04848,0.03763 -0.07888,0.08394 v 0.377743 q 0.02967,0.04559 0.07453,0.07236 0.04559,0.02605 0.09769,0.02605 z"
           style="font-family:'Fira Code';-inkscape-font-specification:'Fira Code'"
           id="path481" />
        <path
           d="m 99.52078,78.24331 q 0.0051,0.132428 0.06947,0.193214 0.06513,0.06006 0.153413,0.06006 0.05862,0 0.105653,-0.01737 0.04704,-0.01737 0.09769,-0.05138 l 0.05717,0.08033 q -0.05283,0.04197 -0.121577,0.06585 -0.06875,0.02388 -0.140387,0.02388 -0.111441,0 -0.189595,-0.04993 -0.07743,-0.04993 -0.118678,-0.13894 -0.04052,-0.08973 -0.04052,-0.207686 0,-0.115784 0.04052,-0.205516 0.04125,-0.08973 0.115783,-0.141111 0.07526,-0.05138 0.17657,-0.05138 0.144005,0 0.226501,0.09986 0.08322,0.09986 0.08322,0.273538 0,0.01954 -0.001,0.03691 -7.2e-4,0.01737 -0.001,0.02967 z m 0.206963,-0.340113 q -0.08467,0 -0.141835,0.06006 -0.05717,0.06006 -0.0644,0.185977 h 0.397282 q -0.0022,-0.122296 -0.05355,-0.183806 -0.05138,-0.06223 -0.137493,-0.06223 z"
           style="font-family:'Fira Code';-inkscape-font-specification:'Fira Code'"
           id="path483" />
        <path
           d="m 100.74374,77.497231 q 0.0615,0 0.11144,0.01086 0.0499,0.01085 0.0948,0.03039 l -0.0391,0.09046 q -0.0369,-0.01592 -0.0789,-0.02388 -0.0413,-0.008 -0.0847,-0.008 -0.15992,0 -0.15992,0.126638 v 0.154861 h 0.25834 l -0.013,0.09552 h -0.24531 v 0.607139 h -0.12158 v -0.607139 h -0.18163 v -0.09552 h 0.18163 v -0.151966 q 0,-0.07092 0.0362,-0.122296 0.0369,-0.05138 0.0999,-0.07888 0.063,-0.02822 0.14183,-0.02822 z"
           style="font-family:'Fira Code';-inkscape-font-specification:'Fira Code'"
           id="path485" />
        <path
           d="m 101.45219,77.803333 q 0.16138,0 0.24387,0.107824 0.0825,0.107823 0.0825,0.288735 0,0.116507 -0.0376,0.206239 -0.0376,0.08973 -0.11072,0.141111 -0.0731,0.05066 -0.17946,0.05066 -0.16138,0 -0.2446,-0.108547 -0.0832,-0.108547 -0.0832,-0.288011 0,-0.117231 0.0376,-0.206963 0.0376,-0.09046 0.11072,-0.140387 0.0738,-0.05066 0.18091,-0.05066 z m 0,0.09914 q -0.0984,0 -0.14907,0.07309 -0.0499,0.07309 -0.0499,0.225778 0,0.151242 0.0492,0.22433 0.0499,0.07237 0.14835,0.07237 0.0984,0 0.14762,-0.07309 0.0499,-0.07309 0.0499,-0.225053 0,-0.151966 -0.0492,-0.224331 -0.0492,-0.07309 -0.1469,-0.07309 z"
           style="font-family:'Fira Code';-inkscape-font-specification:'Fira Code'"
           id="path487" />
        <path
           d="m 102.03762,78.581253 v -0.09335 h 0.11868 v -0.575299 h -0.11868 v -0.09335 h 0.21131 l 0.0224,0.180188 q 0.0441,-0.09407 0.1071,-0.145453 0.063,-0.05138 0.16644,-0.05138 0.0318,0 0.0564,0.0051 0.0253,0.0043 0.0514,0.01158 l -0.0174,0.257618 h -0.0999 v -0.162097 q -0.003,0 -0.007,0 -0.17512,0 -0.25111,0.250382 v 0.322746 h 0.15486 v 0.09335 z"
           style="font-family:'Fira Code';-inkscape-font-specification:'Fira Code'"
           id="path489" />
        <path
           d="m 102.99428,78.24331 q 0.005,0.132428 0.0695,0.193214 0.0651,0.06006 0.15342,0.06006 0.0586,0 0.10565,-0.01737 0.047,-0.01737 0.0977,-0.05138 l 0.0572,0.08033 q -0.0528,0.04197 -0.12157,0.06585 -0.0687,0.02388 -0.14039,0.02388 -0.11144,0 -0.1896,-0.04993 -0.0774,-0.04993 -0.11867,-0.13894 -0.0405,-0.08973 -0.0405,-0.207686 0,-0.115784 0.0405,-0.205516 0.0412,-0.08973 0.11578,-0.141111 0.0753,-0.05138 0.17657,-0.05138 0.144,0 0.2265,0.09986 0.0832,0.09986 0.0832,0.273538 0,0.01954 -0.001,0.03691 -7.2e-4,0.01737 -0.001,0.02967 z m 0.20697,-0.340113 q -0.0847,0 -0.14184,0.06006 -0.0572,0.06006 -0.0644,0.185977 h 0.39728 q -0.002,-0.122296 -0.0536,-0.183806 -0.0514,-0.06223 -0.13749,-0.06223 z"
           style="font-family:'Fira Code';-inkscape-font-specification:'Fira Code'"
           id="path491" />
        <path
           d="m 104.89458,78.49731 q 0.0883,0 0.13894,-0.03256 0.0507,-0.03256 0.0507,-0.08828 0,-0.03401 -0.013,-0.05934 -0.0123,-0.02533 -0.0514,-0.04559 -0.0391,-0.02098 -0.12012,-0.04125 -0.0789,-0.01954 -0.1375,-0.04487 -0.0579,-0.02605 -0.0905,-0.0673 -0.0318,-0.04125 -0.0318,-0.107099 0,-0.09624 0.0803,-0.151966 0.0803,-0.05572 0.20914,-0.05572 0.0919,0 0.15992,0.0246 0.0687,0.0246 0.11651,0.05934 l -0.0536,0.0825 q -0.0427,-0.02967 -0.0955,-0.04848 -0.0521,-0.01954 -0.12592,-0.01954 -0.0897,0 -0.12736,0.02822 -0.0376,0.0275 -0.0376,0.07164 0,0.03401 0.0181,0.05645 0.0188,0.02171 0.063,0.03908 0.0441,0.01737 0.12157,0.03835 0.0745,0.02026 0.13026,0.04776 0.0557,0.0275 0.0861,0.07236 0.0311,0.04414 0.0311,0.11506 0,0.08105 -0.0463,0.131704 -0.0463,0.04993 -0.12013,0.07309 -0.0731,0.02243 -0.15486,0.02243 -0.10348,0 -0.17657,-0.02967 -0.0724,-0.03039 -0.12157,-0.07309 l 0.0695,-0.08032 q 0.0449,0.03691 0.10276,0.06006 0.0586,0.02243 0.12591,0.02243 z"
           style="font-family:'Fira Code';-inkscape-font-specification:'Fira Code'"
           id="path493" />
        <path
           d="m 105.84473,77.803333 q 0.10131,0 0.16137,0.04921 0.0608,0.04921 0.0876,0.13894 0.0268,0.08901 0.0268,0.208411 0,0.115059 -0.0326,0.205515 -0.0318,0.08973 -0.097,0.141111 -0.0651,0.05138 -0.16427,0.05138 -0.12519,0 -0.20118,-0.08828 v 0.36327 l -0.12157,0.0152 v -1.068825 h 0.10348 l 0.0101,0.106376 q 0.042,-0.05862 0.0999,-0.09046 0.0579,-0.03184 0.12736,-0.03184 z m -0.0289,0.09769 q -0.063,0 -0.11144,0.03835 -0.0485,0.03763 -0.0789,0.08394 v 0.377743 q 0.0297,0.04414 0.0745,0.07019 0.0456,0.02533 0.0999,0.02533 0.0948,0 0.14256,-0.07236 0.0478,-0.07237 0.0478,-0.225054 0,-0.298142 -0.1744,-0.298142 z"
           style="font-family:'Fira Code';-inkscape-font-specification:'Fira Code'"
           id="path495" />
        <path
           d="m 106.66896,77.512428 v 0.880677 q 0,0.05644 0.0347,0.08032 0.0355,0.02316 0.0912,0.02316 0.034,0 0.0651,-0.0072 0.0319,-0.0072 0.063,-0.01954 l 0.0326,0.08901 q -0.0311,0.0152 -0.0774,0.02678 -0.0456,0.0123 -0.10349,0.0123 -0.10131,0 -0.16426,-0.05572 -0.063,-0.05644 -0.063,-0.155584 v -0.777919 h -0.23374 v -0.09624 z"
           style="font-family:'Fira Code';-inkscape-font-specification:'Fira Code'"
           id="path497" />
        <path
           d="m 107.52938,77.462496 q 0.0405,0 0.0644,0.0246 0.0246,0.0246 0.0246,0.06006 0,0.03691 -0.0246,0.06223 -0.0239,0.0246 -0.0644,0.0246 -0.0384,0 -0.063,-0.0246 -0.0246,-0.02533 -0.0246,-0.06223 0,-0.03546 0.0246,-0.06006 0.0246,-0.0246 0.063,-0.0246 z m 0.097,0.356758 v 0.665754 h 0.21492 v 0.09625 h -0.57168 v -0.09625 h 0.23518 v -0.569509 h -0.22794 v -0.09624 z"
           style="font-family:'Fira Code';-inkscape-font-specification:'Fira Code'"
           id="path499" />
        <path
           d="m 108.71399,78.5429 q -0.0391,0.02605 -0.0948,0.04052 -0.0557,0.01447 -0.10927,0.01447 -0.12302,0 -0.1896,-0.06441 -0.0666,-0.0644 -0.0666,-0.165715 v -0.454449 h -0.17512 v -0.09407 h 0.17512 v -0.172952 l 0.12157,-0.01447 v 0.187425 h 0.26341 l -0.0145,0.09407 h -0.24893 v 0.453002 q 0,0.06368 0.0333,0.09697 0.034,0.03329 0.11216,0.03329 0.0427,0 0.0789,-0.01013 0.0362,-0.01013 0.0673,-0.02605 z"
           style="font-family:'Fira Code';-inkscape-font-specification:'Fira Code'"
           id="path501" />
        <path
           d="m 109.58236,78.5429 q -0.0391,0.02605 -0.0948,0.04052 -0.0557,0.01447 -0.10928,0.01447 -0.12302,0 -0.18959,-0.06441 -0.0666,-0.0644 -0.0666,-0.165715 V 77.913328 H 108.947 v -0.09407 h 0.17512 v -0.172952 l 0.12158,-0.01447 v 0.187425 h 0.2634 l -0.0145,0.09407 h -0.24893 v 0.453002 q 0,0.06368 0.0333,0.09697 0.034,0.03329 0.11217,0.03329 0.0427,0 0.0789,-0.01013 0.0362,-0.01013 0.0673,-0.02605 z"
           style="font-family:'Fira Code';-inkscape-font-specification:'Fira Code'"
           id="path503" />
        <path
           d="m 110.13451,77.462496 q 0.0405,0 0.0644,0.0246 0.0246,0.0246 0.0246,0.06006 0,0.03691 -0.0246,0.06223 -0.0239,0.0246 -0.0644,0.0246 -0.0384,0 -0.063,-0.0246 -0.0246,-0.02533 -0.0246,-0.06223 0,-0.03546 0.0246,-0.06006 0.0246,-0.0246 0.063,-0.0246 z m 0.097,0.356758 v 0.665754 h 0.21493 v 0.09625 h -0.57168 v -0.09625 h 0.23518 v -0.569509 h -0.22795 v -0.09624 z"
           style="font-family:'Fira Code';-inkscape-font-specification:'Fira Code'"
           id="path505" />
        <path
           d="m 110.71415,78.581253 v -0.761999 h 0.10348 l 0.009,0.105652 q 0.0463,-0.05861 0.11578,-0.08973 0.0695,-0.03184 0.13605,-0.03184 0.11216,0 0.16282,0.05934 0.0514,0.05934 0.0514,0.164992 v 0.553589 h -0.12157 v -0.463857 q 0,-0.07815 -0.009,-0.125915 -0.009,-0.04776 -0.0369,-0.07019 -0.0275,-0.02243 -0.0847,-0.02243 -0.0449,0 -0.0847,0.01954 -0.0391,0.01954 -0.0702,0.04921 -0.0304,0.02895 -0.0507,0.05862 v 0.555037 z"
           style="font-family:'Fira Code';-inkscape-font-specification:'Fira Code'"
           id="path507" />
        <path
           d="m 112.20196,77.738205 0.0376,0.114336 q -0.0492,0.0152 -0.1042,0.01882 -0.0543,0.0036 -0.11868,0.0036 0.13243,0.06079 0.13243,0.191767 0,0.112888 -0.076,0.185977 -0.0753,0.07309 -0.21059,0.07309 -0.0384,0 -0.0644,-0.0036 -0.0253,-0.0036 -0.0492,-0.01085 -0.0174,0.0123 -0.0289,0.03256 -0.0109,0.01954 -0.0109,0.04125 0,0.0275 0.0217,0.04559 0.0217,0.01809 0.0803,0.01809 h 0.13749 q 0.0767,0 0.13749,0.0275 0.0608,0.0275 0.0962,0.07454 0.0355,0.04631 0.0355,0.104929 0,0.112165 -0.0955,0.172227 -0.0948,0.06006 -0.26847,0.06006 -0.12157,0 -0.19177,-0.02533 -0.0702,-0.0246 -0.10058,-0.07598 -0.0297,-0.05066 -0.0297,-0.128086 h 0.10999 q 0,0.04414 0.0174,0.07309 0.0174,0.02895 0.063,0.0427 0.0456,0.01447 0.13098,0.01447 0.12591,0 0.1838,-0.03184 0.0579,-0.03112 0.0579,-0.09335 0,-0.05427 -0.0492,-0.08177 -0.0492,-0.0275 -0.12302,-0.0275 h -0.13605 q -0.0991,0 -0.14545,-0.04342 -0.0463,-0.04342 -0.0463,-0.09986 0,-0.07815 0.0839,-0.133151 -0.12809,-0.06802 -0.12809,-0.210581 0,-0.07743 0.0384,-0.136769 0.0384,-0.06006 0.1071,-0.09407 0.0687,-0.03401 0.15847,-0.03401 0.0963,0 0.15631,-0.008 0.0601,-0.008 0.10276,-0.02243 0.0434,-0.01447 0.0883,-0.03401 z m -0.34735,0.153413 q -0.0919,0 -0.13604,0.04993 -0.0434,0.04993 -0.0434,0.125914 0,0.07743 0.0441,0.127362 0.0449,0.04993 0.13822,0.04993 0.0803,0 0.12302,-0.04704 0.0427,-0.04704 0.0427,-0.13098 0,-0.175123 -0.16861,-0.175123 z"
           style="font-family:'Fira Code';-inkscape-font-specification:'Fira Code'"
           id="path509" />
      </g>
      <g
         aria-label="closed range, after splitting"
         id="text405"
         style="font-size:1.41111px;stroke-width:0.264583">
        <path
           d="m 86.744074,83.784632 q 0.05717,0 0.106376,-0.01809 0.04993,-0.01882 0.0919,-0.04848 l 0.05934,0.0796 q -0.04993,0.04269 -0.120125,0.0673 -0.07019,0.0246 -0.137493,0.0246 -0.113612,0 -0.193937,-0.04848 -0.0796,-0.04921 -0.121573,-0.137493 -0.04197,-0.08901 -0.04197,-0.20841 0,-0.114336 0.04197,-0.204792 0.04197,-0.09046 0.122297,-0.142558 0.08032,-0.05283 0.19466,-0.05283 0.145453,0 0.254724,0.08828 l -0.05934,0.08105 q -0.09914,-0.06802 -0.196832,-0.06802 -0.09842,0 -0.162097,0.07454 -0.06368,0.07381 -0.06368,0.22433 0,0.152689 0.06368,0.221436 0.06368,0.06802 0.162097,0.06802 z"
           style="font-family:'Fira Code';-inkscape-font-specification:'Fira Code'"
           id="path512" />
        <path
           d="m 87.564689,82.804092 v 0.880677 q 0,0.05644 0.03473,0.08033 0.03546,0.02316 0.09118,0.02316 0.03401,0 0.06513,-0.0072 0.03184,-0.0072 0.06296,-0.01954 l 0.03256,0.08901 q -0.03112,0.0152 -0.07743,0.02678 -0.04559,0.0123 -0.103481,0.0123 -0.101311,0 -0.164268,-0.05572 -0.06296,-0.05644 -0.06296,-0.155584 v -0.777919 h -0.233738 v -0.09624 z"
           style="font-family:'Fira Code';-inkscape-font-specification:'Fira Code'"
           id="path514" />
        <path
           d="m 88.426553,83.094998 q 0.161373,0 0.243868,0.107823 0.0825,0.107823 0.0825,0.288735 0,0.116507 -0.03763,0.206239 -0.03763,0.08973 -0.110718,0.141111 -0.07309,0.05066 -0.179465,0.05066 -0.161373,0 -0.244592,-0.108547 -0.08322,-0.108547 -0.08322,-0.288011 0,-0.117231 0.03763,-0.206963 0.03763,-0.09046 0.110718,-0.140387 0.07381,-0.05065 0.180912,-0.05065 z m 0,0.09914 q -0.09842,0 -0.149071,0.07309 -0.04993,0.07309 -0.04993,0.225778 0,0.151242 0.04921,0.22433 0.04993,0.07237 0.148347,0.07237 0.09842,0 0.147624,-0.07309 0.04993,-0.07309 0.04993,-0.225054 0,-0.151966 -0.04921,-0.224331 -0.04921,-0.07309 -0.1469,-0.07309 z"
           style="font-family:'Fira Code';-inkscape-font-specification:'Fira Code'"
           id="path516" />
        <path
           d="m 89.263812,83.788974 q 0.08828,0 0.13894,-0.03256 0.05065,-0.03256 0.05065,-0.08828 0,-0.03401 -0.01302,-0.05934 -0.0123,-0.02533 -0.05138,-0.04559 -0.03908,-0.02099 -0.120126,-0.04125 -0.07888,-0.01954 -0.137492,-0.04487 -0.05789,-0.02605 -0.09046,-0.0673 -0.03184,-0.04125 -0.03184,-0.1071 0,-0.09624 0.08032,-0.151966 0.08033,-0.05572 0.209134,-0.05572 0.0919,0 0.159926,0.0246 0.06875,0.0246 0.116507,0.05934 l -0.05355,0.0825 q -0.04269,-0.02967 -0.09552,-0.04848 -0.0521,-0.01954 -0.125915,-0.01954 -0.08973,0 -0.127362,0.02822 -0.03763,0.0275 -0.03763,0.07164 0,0.03401 0.01809,0.05644 0.01882,0.02171 0.06296,0.03908 0.04414,0.01737 0.121573,0.03835 0.07453,0.02026 0.130256,0.04776 0.05572,0.0275 0.08611,0.07236 0.03112,0.04414 0.03112,0.11506 0,0.08105 -0.04631,0.131704 -0.04631,0.04993 -0.120125,0.07309 -0.07309,0.02243 -0.15486,0.02243 -0.103481,0 -0.17657,-0.02967 -0.07236,-0.03039 -0.121572,-0.07309 l 0.06947,-0.08032 q 0.04487,0.03691 0.102757,0.06006 0.05862,0.02243 0.125915,0.02243 z"
           style="font-family:'Fira Code';-inkscape-font-specification:'Fira Code'"
           id="path518" />
        <path
           d="m 89.968644,83.534974 q 0.0051,0.132428 0.06947,0.193214 0.06513,0.06006 0.153413,0.06006 0.05862,0 0.105652,-0.01737 0.04704,-0.01737 0.09769,-0.05138 l 0.05717,0.08033 q -0.05283,0.04197 -0.121573,0.06585 -0.06875,0.02388 -0.140387,0.02388 -0.111442,0 -0.189596,-0.04993 -0.07743,-0.04993 -0.118678,-0.13894 -0.04052,-0.08973 -0.04052,-0.207686 0,-0.115783 0.04052,-0.205516 0.04125,-0.08973 0.115784,-0.141111 0.07526,-0.05138 0.176569,-0.05138 0.144006,0 0.226502,0.09986 0.08322,0.09986 0.08322,0.273538 0,0.01954 -0.0014,0.03691 -7.24e-4,0.01737 -0.0014,0.02967 z m 0.206963,-0.340113 q -0.08467,0 -0.141835,0.06006 -0.05717,0.06006 -0.0644,0.185977 h 0.397281 q -0.0022,-0.122296 -0.05355,-0.183806 -0.05138,-0.06223 -0.137492,-0.06223 z"
           style="font-family:'Fira Code';-inkscape-font-specification:'Fira Code'"
           id="path520" />
        <path
           d="m 91.197395,82.788895 0.121573,0.0152 v 1.068825 h -0.106376 l -0.01158,-0.100587 q -0.04269,0.06079 -0.09842,0.08901 -0.055,0.02822 -0.117955,0.02822 -0.09914,0 -0.163544,-0.04993 -0.0644,-0.04993 -0.09552,-0.13894 -0.03112,-0.08973 -0.03112,-0.207686 0,-0.114336 0.03546,-0.204068 0.03546,-0.09046 0.102034,-0.141835 0.0673,-0.0521 0.161373,-0.0521 0.126638,0 0.204068,0.08973 z m -0.172227,0.403795 q -0.09552,0 -0.1469,0.07453 -0.05138,0.07454 -0.05138,0.225778 0,0.298142 0.183082,0.298142 0.06441,0 0.110718,-0.03618 0.04631,-0.03691 0.07671,-0.08394 v -0.380638 q -0.03112,-0.04631 -0.07526,-0.07164 -0.04414,-0.02605 -0.09697,-0.02605 z"
           style="font-family:'Fira Code';-inkscape-font-specification:'Fira Code'"
           id="path522" />
        <path
           d="m 92.485487,83.872917 v -0.09335 h 0.118678 v -0.575299 h -0.118678 v -0.09335 h 0.211305 l 0.02243,0.180188 q 0.04414,-0.09407 0.1071,-0.145453 0.06296,-0.05138 0.166438,-0.05138 0.03184,0 0.05644,0.0051 0.02533,0.0043 0.05138,0.01158 l -0.01737,0.257618 h -0.09986 v -0.162097 q -0.0029,0 -0.0065,0 -0.175122,0 -0.251105,0.250382 v 0.322746 h 0.15486 v 0.09335 z"
           style="font-family:'Fira Code';-inkscape-font-specification:'Fira Code'"
           id="path524" />
        <path
           d="m 93.892256,83.706479 q 0,0.04631 0.0152,0.0673 0.0152,0.02099 0.04704,0.03039 l -0.02967,0.08539 q -0.04921,-0.0065 -0.08611,-0.03112 -0.03691,-0.02533 -0.05355,-0.07598 -0.04125,0.05283 -0.103481,0.08033 -0.06151,0.02678 -0.135322,0.02678 -0.114336,0 -0.180188,-0.0644 -0.06585,-0.06441 -0.06585,-0.170781 0,-0.117954 0.0919,-0.180912 0.0919,-0.06296 0.265579,-0.06296 h 0.112165 v -0.06368 q 0,-0.08249 -0.04848,-0.116507 -0.04776,-0.03473 -0.133151,-0.03473 -0.03763,0 -0.08828,0.0094 -0.05066,0.0087 -0.109995,0.02967 l -0.03184,-0.0919 q 0.06947,-0.02605 0.13098,-0.03691 0.06223,-0.01085 0.117954,-0.01085 0.141835,0 0.213476,0.06658 0.07164,0.06658 0.07164,0.179464 z m -0.314786,0.09045 q 0.05644,0 0.107099,-0.02822 0.05138,-0.02895 0.08539,-0.0796 v -0.196108 h -0.109995 q -0.125914,0 -0.178017,0.04342 -0.05138,0.04342 -0.05138,0.116507 0,0.144005 0.1469,0.144005 z"
           style="font-family:'Fira Code';-inkscape-font-specification:'Fira Code'"
           id="path526" />
        <path
           d="m 94.215002,83.872917 v -0.761999 h 0.103482 l 0.0094,0.105652 q 0.04631,-0.05862 0.115784,-0.08973 0.06947,-0.03184 0.136045,-0.03184 0.112165,0 0.162821,0.05934 0.05138,0.05934 0.05138,0.164991 v 0.553589 H 94.672347 V 83.40906 q 0,-0.07815 -0.0087,-0.125914 -0.0087,-0.04776 -0.03691,-0.07019 -0.0275,-0.02243 -0.08467,-0.02243 -0.04487,0 -0.08467,0.01954 -0.03908,0.01954 -0.07019,0.04921 -0.03039,0.02895 -0.05066,0.05862 v 0.555036 z"
           style="font-family:'Fira Code';-inkscape-font-specification:'Fira Code'"
           id="path528" />
        <path
           d="m 95.702819,83.029869 0.03763,0.114336 q -0.04921,0.0152 -0.104205,0.01882 -0.05427,0.0036 -0.118678,0.0036 0.132427,0.06079 0.132427,0.191766 0,0.112889 -0.07598,0.185977 -0.07526,0.07309 -0.210581,0.07309 -0.03835,0 -0.0644,-0.0036 -0.02533,-0.0036 -0.04921,-0.01085 -0.01737,0.0123 -0.02895,0.03256 -0.01086,0.01954 -0.01086,0.04125 0,0.0275 0.02171,0.04559 0.02171,0.01809 0.08032,0.01809 h 0.137493 q 0.07671,0 0.137493,0.0275 0.06079,0.0275 0.09624,0.07454 0.03546,0.04631 0.03546,0.104929 0,0.112165 -0.09552,0.172228 -0.0948,0.06006 -0.268472,0.06006 -0.121573,0 -0.191767,-0.02533 -0.07019,-0.0246 -0.100587,-0.07598 -0.02967,-0.05066 -0.02967,-0.128086 h 0.109994 q 0,0.04414 0.01737,0.07309 0.01737,0.02894 0.06296,0.04269 0.04559,0.01447 0.13098,0.01447 0.125914,0 0.183806,-0.03184 0.05789,-0.03112 0.05789,-0.09335 0,-0.05427 -0.04921,-0.08177 -0.04921,-0.0275 -0.12302,-0.0275 h -0.136046 q -0.09914,0 -0.145452,-0.04342 -0.04631,-0.04342 -0.04631,-0.09986 0,-0.07815 0.08394,-0.133151 -0.128085,-0.06802 -0.128085,-0.210581 0,-0.07743 0.03835,-0.136769 0.03835,-0.06006 0.1071,-0.09407 0.06875,-0.03401 0.158478,-0.03401 0.09624,0 0.156308,-0.008 0.06006,-0.008 0.102758,-0.02243 0.04342,-0.01447 0.08828,-0.03401 z m -0.34735,0.153413 q -0.0919,0 -0.136045,0.04993 -0.04342,0.04993 -0.04342,0.125914 0,0.07743 0.04414,0.127362 0.04487,0.04993 0.138217,0.04993 0.08032,0 0.12302,-0.04704 0.04269,-0.04704 0.04269,-0.13098 0,-0.175123 -0.16861,-0.175123 z"
           style="font-family:'Fira Code';-inkscape-font-specification:'Fira Code'"
           id="path530" />
        <path
           d="m 96.047276,83.534974 q 0.0051,0.132428 0.06947,0.193214 0.06513,0.06006 0.153413,0.06006 0.05862,0 0.105653,-0.01737 0.04704,-0.01737 0.09769,-0.05138 l 0.05717,0.08033 q -0.05283,0.04197 -0.121573,0.06585 -0.06875,0.02388 -0.140387,0.02388 -0.111442,0 -0.189595,-0.04993 -0.07743,-0.04993 -0.118678,-0.13894 -0.04052,-0.08973 -0.04052,-0.207686 0,-0.115783 0.04052,-0.205516 0.04125,-0.08973 0.115783,-0.141111 0.07526,-0.05138 0.17657,-0.05138 0.144005,0 0.226501,0.09986 0.08322,0.09986 0.08322,0.273538 0,0.01954 -0.0014,0.03691 -7.24e-4,0.01737 -0.0014,0.02967 z m 0.206963,-0.340113 q -0.08467,0 -0.141835,0.06006 -0.05717,0.06006 -0.0644,0.185977 h 0.397282 q -0.0022,-0.122296 -0.05355,-0.183806 -0.05138,-0.06223 -0.137493,-0.06223 z"
           style="font-family:'Fira Code';-inkscape-font-specification:'Fira Code'"
           id="path532" />
        <path
           d="m 97.108866,83.634838 q 0.04993,0 0.08322,0.03401 0.03401,0.03401 0.03401,0.08177 0,0.02605 -0.0065,0.05283 -0.0058,0.02678 -0.02171,0.06079 l -0.117231,0.268473 h -0.109994 l 0.06947,-0.28584 q -0.04704,-0.03401 -0.04704,-0.09625 0,-0.04776 0.03329,-0.08177 0.03329,-0.03401 0.0825,-0.03401 z"
           style="font-family:'Fira Code';-inkscape-font-specification:'Fira Code'"
           id="path534" />
        <path
           d="m 99.102512,83.706479 q 0,0.04631 0.0152,0.0673 0.0152,0.02099 0.04704,0.03039 l -0.02967,0.08539 q -0.04921,-0.0065 -0.08611,-0.03112 -0.03691,-0.02533 -0.05355,-0.07598 -0.04125,0.05283 -0.103482,0.08033 -0.06151,0.02678 -0.135321,0.02678 -0.114337,0 -0.180188,-0.0644 -0.06585,-0.06441 -0.06585,-0.170781 0,-0.117954 0.0919,-0.180912 0.0919,-0.06296 0.265578,-0.06296 h 0.112165 v -0.06368 q 0,-0.08249 -0.04848,-0.116507 -0.04776,-0.03473 -0.133151,-0.03473 -0.03763,0 -0.08828,0.0094 -0.05066,0.0087 -0.109994,0.02967 l -0.03184,-0.0919 q 0.06947,-0.02605 0.13098,-0.03691 0.06223,-0.01085 0.117954,-0.01085 0.141835,0 0.213475,0.06658 0.07164,0.06658 0.07164,0.179464 z m -0.314786,0.09045 q 0.05644,0 0.1071,-0.02822 0.05138,-0.02895 0.08539,-0.0796 v -0.196108 h -0.109994 q -0.125914,0 -0.178017,0.04342 -0.05138,0.04342 -0.05138,0.116507 0,0.144005 0.1469,0.144005 z"
           style="font-family:'Fira Code';-inkscape-font-specification:'Fira Code'"
           id="path536" />
        <path
           d="m 99.875367,82.788895 q 0.06151,0 0.111441,0.01086 0.04993,0.01085 0.0948,0.03039 l -0.0391,0.09046 q -0.0369,-0.01592 -0.07888,-0.02388 -0.04125,-0.008 -0.08467,-0.008 -0.159926,0 -0.159926,0.126638 v 0.154861 h 0.258342 l -0.01303,0.09552 h -0.245316 v 0.607139 h -0.121572 v -0.607139 h -0.181635 v -0.09552 h 0.181635 v -0.151966 q 0,-0.07092 0.03618,-0.122296 0.03691,-0.05138 0.09986,-0.07888 0.06296,-0.02822 0.141835,-0.02822 z"
           style="font-family:'Fira Code';-inkscape-font-specification:'Fira Code'"
           id="path538" />
        <path
           d="m 100.8986,83.834564 q -0.0391,0.02605 -0.0948,0.04052 -0.0557,0.01447 -0.10928,0.01447 -0.12302,0 -0.18959,-0.0644 -0.0666,-0.06441 -0.0666,-0.165715 v -0.45445 h -0.17512 v -0.09407 h 0.17512 v -0.172952 l 0.12158,-0.01447 v 0.187425 h 0.2634 l -0.0145,0.09407 h -0.24893 v 0.453002 q 0,0.06368 0.0333,0.09697 0.034,0.03329 0.11217,0.03329 0.0427,0 0.0789,-0.01013 0.0362,-0.01013 0.0673,-0.02605 z"
           style="font-family:'Fira Code';-inkscape-font-specification:'Fira Code'"
           id="path540" />
        <path
           d="m 101.25753,83.534974 q 0.005,0.132428 0.0695,0.193214 0.0651,0.06006 0.15341,0.06006 0.0586,0 0.10566,-0.01737 0.047,-0.01737 0.0977,-0.05138 l 0.0572,0.08033 q -0.0528,0.04197 -0.12158,0.06585 -0.0687,0.02388 -0.14038,0.02388 -0.11144,0 -0.1896,-0.04993 -0.0774,-0.04993 -0.11868,-0.13894 -0.0405,-0.08973 -0.0405,-0.207686 0,-0.115783 0.0405,-0.205516 0.0413,-0.08973 0.11579,-0.141111 0.0753,-0.05138 0.17657,-0.05138 0.144,0 0.2265,0.09986 0.0832,0.09986 0.0832,0.273538 0,0.01954 -0.001,0.03691 -7.2e-4,0.01737 -0.001,0.02967 z m 0.20696,-0.340113 q -0.0847,0 -0.14183,0.06006 -0.0572,0.06006 -0.0644,0.185977 h 0.39728 q -0.002,-0.122296 -0.0536,-0.183806 -0.0514,-0.06223 -0.1375,-0.06223 z"
           style="font-family:'Fira Code';-inkscape-font-specification:'Fira Code'"
           id="path542" />
        <path
           d="m 102.03762,83.872917 v -0.09335 h 0.11868 v -0.575299 h -0.11868 v -0.09335 h 0.21131 l 0.0224,0.180188 q 0.0441,-0.09407 0.1071,-0.145453 0.063,-0.05138 0.16644,-0.05138 0.0318,0 0.0564,0.0051 0.0253,0.0043 0.0514,0.01158 l -0.0174,0.257618 h -0.0999 v -0.162097 q -0.003,0 -0.007,0 -0.17512,0 -0.25111,0.250382 v 0.322746 h 0.15486 v 0.09335 z"
           style="font-family:'Fira Code';-inkscape-font-specification:'Fira Code'"
           id="path544" />
        <path
           d="m 104.0262,83.788974 q 0.0883,0 0.13894,-0.03256 0.0507,-0.03256 0.0507,-0.08828 0,-0.03401 -0.013,-0.05934 -0.0123,-0.02533 -0.0514,-0.04559 -0.0391,-0.02099 -0.12012,-0.04125 -0.0789,-0.01954 -0.13749,-0.04487 -0.0579,-0.02605 -0.0905,-0.0673 -0.0318,-0.04125 -0.0318,-0.1071 0,-0.09624 0.0803,-0.151966 0.0803,-0.05572 0.20914,-0.05572 0.0919,0 0.15992,0.0246 0.0687,0.0246 0.11651,0.05934 l -0.0536,0.0825 q -0.0427,-0.02967 -0.0955,-0.04848 -0.0521,-0.01954 -0.12591,-0.01954 -0.0897,0 -0.12737,0.02822 -0.0376,0.0275 -0.0376,0.07164 0,0.03401 0.0181,0.05644 0.0188,0.02171 0.063,0.03908 0.0441,0.01737 0.12158,0.03835 0.0745,0.02026 0.13025,0.04776 0.0557,0.0275 0.0861,0.07236 0.0311,0.04414 0.0311,0.11506 0,0.08105 -0.0463,0.131704 -0.0463,0.04993 -0.12013,0.07309 -0.0731,0.02243 -0.15486,0.02243 -0.10348,0 -0.17657,-0.02967 -0.0724,-0.03039 -0.12157,-0.07309 l 0.0695,-0.08032 q 0.0449,0.03691 0.10276,0.06006 0.0586,0.02243 0.12591,0.02243 z"
           style="font-family:'Fira Code';-inkscape-font-specification:'Fira Code'"
           id="path546" />
        <path
           d="m 104.97635,83.094998 q 0.10131,0 0.16138,0.04921 0.0608,0.04921 0.0876,0.138941 0.0268,0.08901 0.0268,0.20841 0,0.115059 -0.0326,0.205515 -0.0318,0.08973 -0.097,0.141111 -0.0651,0.05138 -0.16427,0.05138 -0.12519,0 -0.20117,-0.08828 v 0.363271 l -0.12157,0.0152 v -1.068825 h 0.10348 l 0.0101,0.106376 q 0.042,-0.05862 0.0999,-0.09046 0.0579,-0.03184 0.12736,-0.03184 z m -0.0289,0.09769 q -0.063,0 -0.11144,0.03835 -0.0485,0.03763 -0.0789,0.08394 v 0.377743 q 0.0297,0.04414 0.0745,0.07019 0.0456,0.02533 0.0999,0.02533 0.0948,0 0.14256,-0.07237 0.0478,-0.07236 0.0478,-0.225054 0,-0.298142 -0.1744,-0.298142 z"
           style="font-family:'Fira Code';-inkscape-font-specification:'Fira Code'"
           id="path548" />
        <path
           d="m 105.80059,82.804092 v 0.880677 q 0,0.05644 0.0347,0.08033 0.0355,0.02316 0.0912,0.02316 0.034,0 0.0651,-0.0072 0.0318,-0.0072 0.063,-0.01954 l 0.0326,0.08901 q -0.0311,0.0152 -0.0774,0.02678 -0.0456,0.0123 -0.10348,0.0123 -0.10131,0 -0.16427,-0.05572 -0.063,-0.05644 -0.063,-0.155584 v -0.777919 h -0.23373 v -0.09624 z"
           style="font-family:'Fira Code';-inkscape-font-specification:'Fira Code'"
           id="path550" />
        <path
           d="m 106.661,82.75416 q 0.0405,0 0.0644,0.0246 0.0246,0.0246 0.0246,0.06006 0,0.03691 -0.0246,0.06223 -0.0239,0.0246 -0.0644,0.0246 -0.0384,0 -0.063,-0.0246 -0.0246,-0.02533 -0.0246,-0.06223 0,-0.03546 0.0246,-0.06006 0.0246,-0.0246 0.063,-0.0246 z m 0.097,0.356758 v 0.665754 h 0.21492 v 0.09624 h -0.57168 v -0.09624 h 0.23519 v -0.569509 h -0.22795 v -0.09624 z"
           style="font-family:'Fira Code';-inkscape-font-specification:'Fira Code'"
           id="path552" />
        <path
           d="m 107.84561,83.834564 q -0.0391,0.02605 -0.0948,0.04052 -0.0557,0.01447 -0.10927,0.01447 -0.12302,0 -0.18959,-0.0644 -0.0666,-0.06441 -0.0666,-0.165715 v -0.45445 h -0.17512 v -0.09407 h 0.17512 v -0.172952 l 0.12157,-0.01447 v 0.187425 h 0.26341 l -0.0145,0.09407 h -0.24894 v 0.453002 q 0,0.06368 0.0333,0.09697 0.034,0.03329 0.11217,0.03329 0.0427,0 0.0789,-0.01013 0.0362,-0.01013 0.0673,-0.02605 z"
           style="font-family:'Fira Code';-inkscape-font-specification:'Fira Code'"
           id="path554" />
        <path
           d="m 108.71399,83.834564 q -0.0391,0.02605 -0.0948,0.04052 -0.0557,0.01447 -0.10927,0.01447 -0.12302,0 -0.1896,-0.0644 -0.0666,-0.06441 -0.0666,-0.165715 v -0.45445 h -0.17512 v -0.09407 h 0.17512 v -0.172952 l 0.12157,-0.01447 v 0.187425 h 0.26341 l -0.0145,0.09407 h -0.24893 v 0.453002 q 0,0.06368 0.0333,0.09697 0.034,0.03329 0.11216,0.03329 0.0427,0 0.0789,-0.01013 0.0362,-0.01013 0.0673,-0.02605 z"
           style="font-family:'Fira Code';-inkscape-font-specification:'Fira Code'"
           id="path556" />
        <path
           d="m 109.26613,82.75416 q 0.0405,0 0.0644,0.0246 0.0246,0.0246 0.0246,0.06006 0,0.03691 -0.0246,0.06223 -0.0239,0.0246 -0.0644,0.0246 -0.0384,0 -0.063,-0.0246 -0.0246,-0.02533 -0.0246,-0.06223 0,-0.03546 0.0246,-0.06006 0.0246,-0.0246 0.063,-0.0246 z m 0.097,0.356758 v 0.665754 h 0.21492 v 0.09624 h -0.57168 v -0.09624 h 0.23519 v -0.569509 h -0.22795 v -0.09624 z"
           style="font-family:'Fira Code';-inkscape-font-specification:'Fira Code'"
           id="path558" />
        <path
           d="m 109.84577,83.872917 v -0.761999 h 0.10348 l 0.009,0.105652 q 0.0463,-0.05862 0.11578,-0.08973 0.0695,-0.03184 0.13605,-0.03184 0.11216,0 0.16282,0.05934 0.0514,0.05934 0.0514,0.164991 v 0.553589 h -0.12158 V 83.40906 q 0,-0.07815 -0.009,-0.125914 -0.009,-0.04776 -0.0369,-0.07019 -0.0275,-0.02243 -0.0847,-0.02243 -0.0449,0 -0.0847,0.01954 -0.0391,0.01954 -0.0702,0.04921 -0.0304,0.02895 -0.0507,0.05862 v 0.555036 z"
           style="font-family:'Fira Code';-inkscape-font-specification:'Fira Code'"
           id="path560" />
        <path
           d="m 111.33359,83.029869 0.0376,0.114336 q -0.0492,0.0152 -0.10421,0.01882 -0.0543,0.0036 -0.11867,0.0036 0.13242,0.06079 0.13242,0.191766 0,0.112889 -0.076,0.185977 -0.0753,0.07309 -0.21058,0.07309 -0.0384,0 -0.0644,-0.0036 -0.0253,-0.0036 -0.0492,-0.01085 -0.0174,0.0123 -0.0289,0.03256 -0.0109,0.01954 -0.0109,0.04125 0,0.0275 0.0217,0.04559 0.0217,0.01809 0.0803,0.01809 h 0.13749 q 0.0767,0 0.1375,0.0275 0.0608,0.0275 0.0962,0.07454 0.0355,0.04631 0.0355,0.104929 0,0.112165 -0.0955,0.172228 -0.0948,0.06006 -0.26847,0.06006 -0.12158,0 -0.19177,-0.02533 -0.0702,-0.0246 -0.10059,-0.07598 -0.0297,-0.05066 -0.0297,-0.128086 h 0.11 q 0,0.04414 0.0174,0.07309 0.0174,0.02894 0.063,0.04269 0.0456,0.01447 0.13098,0.01447 0.12592,0 0.18381,-0.03184 0.0579,-0.03112 0.0579,-0.09335 0,-0.05427 -0.0492,-0.08177 -0.0492,-0.0275 -0.12302,-0.0275 h -0.13604 q -0.0991,0 -0.14546,-0.04342 -0.0463,-0.04342 -0.0463,-0.09986 0,-0.07815 0.0839,-0.133151 -0.12808,-0.06802 -0.12808,-0.210581 0,-0.07743 0.0383,-0.136769 0.0384,-0.06006 0.1071,-0.09407 0.0688,-0.03401 0.15848,-0.03401 0.0962,0 0.15631,-0.008 0.0601,-0.008 0.10275,-0.02243 0.0434,-0.01447 0.0883,-0.03401 z m -0.34735,0.153413 q -0.0919,0 -0.13605,0.04993 -0.0434,0.04993 -0.0434,0.125914 0,0.07743 0.0442,0.127362 0.0449,0.04993 0.13821,0.04993 0.0803,0 0.12302,-0.04704 0.0427,-0.04704 0.0427,-0.13098 0,-0.175123 -0.16861,-0.175123 z"
           style="font-family:'Fira Code';-inkscape-font-specification:'Fira Code'"
           id="path562" />
      </g>
    </g>
    <g
       id="g355"
       inkscape:label="text"
       style="display:none">
      <text
         xml:space="preserve"
         style="font-size:1.41111px;fill:#000000;stroke-width:0.264583"
         x="89.693748"
         y="65.352081"
         id="text341"><tspan
           sodipodi:role="line"
           id="tspan339"
           style="font-style:normal;font-variant:normal;font-weight:normal;font-stretch:normal;font-size:1.41111px;font-family:'Fira Code';-inkscape-font-specification:'Fira Code';stroke-width:0.264583"
           x="89.693748"
           y="65.352081">open range, before splitting</tspan></text>
      <text
         xml:space="preserve"
         style="font-size:1.41111px;fill:#000000;stroke-width:0.264583"
         x="89.693748"
         y="60.060417"
         id="text345"><tspan
           sodipodi:role="line"
           id="tspan343"
           style="font-style:normal;font-variant:normal;font-weight:normal;font-stretch:normal;font-size:1.41111px;font-family:'Fira Code';-inkscape-font-specification:'Fira Code';stroke-width:0.264583"
           x="89.693748"
           y="60.060417">open range, after splitting</tspan></text>
      <text
         xml:space="preserve"
         style="font-size:1.41111px;fill:#000000;stroke-width:0.264583"
         x="86.254166"
         y="78.581253"
         id="text349"><tspan
           sodipodi:role="line"
           id="tspan347"
           style="font-style:normal;font-variant:normal;font-weight:normal;font-stretch:normal;font-size:1.41111px;font-family:'Fira Code';-inkscape-font-specification:'Fira Code';stroke-width:0.264583"
           x="86.254166"
           y="78.581253">closed range, before splitting</tspan></text>
      <text
         xml:space="preserve"
         style="font-size:1.41111px;fill:#000000;stroke-width:0.264583"
         x="86.254166"
         y="83.872917"
         id="text353"><tspan
           sodipodi:role="line"
           id="tspan351"
           style="font-style:normal;font-variant:normal;font-weight:normal;font-stretch:normal;font-size:1.41111px;font-family:'Fira Code';-inkscape-font-specification:'Fira Code';stroke-width:0.264583"
           x="86.254166"
           y="83.872917">closed range, after splitting</tspan></text>
    </g>
  </g>
</svg>
