<?xml version="1.0" encoding="UTF-8" standalone="no"?>
<!DOCTYPE svg PUBLIC "-//W3C//DTD SVG 1.1//EN"
 "http://www.w3.org/Graphics/SVG/1.1/DTD/svg11.dtd">
<!-- Generated by graphviz version 9.0.0 (20230911.1827)
 -->
<!-- Title: Graph Pages: 1 -->
<svg width="906pt" height="86pt"
 viewBox="0.00 0.00 906.40 86.45" xmlns="http://www.w3.org/2000/svg" xmlns:xlink="http://www.w3.org/1999/xlink">
<g id="graph0" class="graph" transform="scale(1 1) rotate(0) translate(4 82.45)">
<title>Graph</title>
<polygon fill="white" stroke="none" points="-4,4 -4,-82.45 902.4,-82.45 902.4,4 -4,4"/>
<!-- hidden -->
<g id="node1" class="node">
<title>hidden</title>
</g>
<!-- 0 -->
<g id="node2" class="node">
<title>0</title>
<ellipse fill="none" stroke="black" cx="104" cy="-18.4" rx="14.4" ry="14.4"/>
</g>
<!-- hidden&#45;&gt;0 -->
<g id="edge1" class="edge">
<title>hidden&#45;&gt;0</title>
<path fill="none" stroke="black" d="M53.77,-18.4C61.86,-18.4 69.95,-18.4 78.04,-18.4"/>
<polygon fill="black" stroke="black" points="77.97,-21.9 87.97,-18.4 77.97,-14.9 77.97,-21.9"/>
</g>
<!-- 0&#45;&gt;0 -->
<g id="edge2" class="edge">
<title>0:nw&#45;&gt;0:ne</title>
<path fill="none" stroke="black" d="M94,-28.4C85,-37.6 85,-47.2 104,-47.2 116.17,-47.2 120.55,-43.26 119.75,-38.01"/>
<polygon fill="black" stroke="black" points="122.92,-36.48 114.78,-29.7 116.91,-40.08 122.92,-36.48"/>
<text text-anchor="start" x="93.5" y="-52.45" font-family="Times New Roman,serif" font-weight="bold" font-size="20.00">.</text>
<text text-anchor="start" x="98.75" y="-52.45" font-family="Times New Roman,serif" font-size="20.00"> </text>
<text text-anchor="start" x="104" y="-52.45" font-family="Times New Roman,serif" font-weight="bold" font-size="20.00">?</text>
</g>
<!-- 1 -->
<g id="node3" class="node">
<title>1</title>
<ellipse fill="none" stroke="black" cx="176" cy="-18.4" rx="14.4" ry="14.4"/>
</g>
<!-- 0&#45;&gt;1 -->
<g id="edge3" class="edge">
<title>0&#45;&gt;1</title>
<path fill="none" stroke="black" d="M118.57,-18.4C127.59,-18.4 139.42,-18.4 150.01,-18.4"/>
<polygon fill="black" stroke="black" points="149.69,-21.9 159.69,-18.4 149.69,-14.9 149.69,-21.9"/>
<text text-anchor="start" x="126.88" y="-26.65" font-family="Times New Roman,serif" font-weight="bold" font-size="20.00">#</text>
<text text-anchor="start" x="137.38" y="-26.65" font-family="Times New Roman,serif" font-size="20.00"> </text>
<text text-anchor="start" x="142.62" y="-26.65" font-family="Times New Roman,serif" font-weight="bold" font-size="20.00">?</text>
</g>
<!-- 2 -->
<g id="node4" class="node">
<title>2</title>
<ellipse fill="none" stroke="black" cx="243" cy="-18.4" rx="14.4" ry="14.4"/>
</g>
<!-- 1&#45;&gt;2 -->
<g id="edge4" class="edge">
<title>1&#45;&gt;2</title>
<path fill="none" stroke="black" d="M190.87,-18.4C198.5,-18.4 208.03,-18.4 216.84,-18.4"/>
<polygon fill="black" stroke="black" points="216.66,-21.9 226.66,-18.4 216.66,-14.9 216.66,-21.9"/>
<text text-anchor="start" x="199" y="-26.65" font-family="Times New Roman,serif" font-weight="bold" font-size="20.00">.</text>
<text text-anchor="start" x="204.25" y="-26.65" font-family="Times New Roman,serif" font-size="20.00"> </text>
<text text-anchor="start" x="209.5" y="-26.65" font-family="Times New Roman,serif" font-weight="bold" font-size="20.00">?</text>
</g>
<!-- 2&#45;&gt;2 -->
<g id="edge5" class="edge">
<title>2:nw&#45;&gt;2:ne</title>
<path fill="none" stroke="black" d="M233,-28.4C224,-37.6 224,-47.2 243,-47.2 255.17,-47.2 259.55,-43.26 258.75,-38.01"/>
<polygon fill="black" stroke="black" points="261.92,-36.48 253.78,-29.7 255.91,-40.08 261.92,-36.48"/>
<text text-anchor="start" x="232.5" y="-52.45" font-family="Times New Roman,serif" font-weight="bold" font-size="20.00">.</text>
<text text-anchor="start" x="237.75" y="-52.45" font-family="Times New Roman,serif" font-size="20.00"> </text>
<text text-anchor="start" x="243" y="-52.45" font-family="Times New Roman,serif" font-weight="bold" font-size="20.00">?</text>
</g>
<!-- 3 -->
<g id="node5" class="node">
<title>3</title>
<ellipse fill="none" stroke="black" cx="315" cy="-18.4" rx="14.4" ry="14.4"/>
</g>
<!-- 2&#45;&gt;3 -->
<g id="edge6" class="edge">
<title>2&#45;&gt;3</title>
<path fill="none" stroke="black" d="M257.57,-18.4C266.59,-18.4 278.42,-18.4 289.01,-18.4"/>
<polygon fill="black" stroke="black" points="288.69,-21.9 298.69,-18.4 288.69,-14.9 288.69,-21.9"/>
<text text-anchor="start" x="265.88" y="-26.65" font-family="Times New Roman,serif" font-weight="bold" font-size="20.00">#</text>
<text text-anchor="start" x="276.38" y="-26.65" font-family="Times New Roman,serif" font-size="20.00"> </text>
<text text-anchor="start" x="281.62" y="-26.65" font-family="Times New Roman,serif" font-weight="bold" font-size="20.00">?</text>
</g>
<!-- 4 -->
<g id="node6" class="node">
<title>4</title>
<ellipse fill="none" stroke="black" cx="382" cy="-18.4" rx="14.4" ry="14.4"/>
</g>
<!-- 3&#45;&gt;4 -->
<g id="edge7" class="edge">
<title>3&#45;&gt;4</title>
<path fill="none" stroke="black" d="M329.87,-18.4C337.5,-18.4 347.03,-18.4 355.84,-18.4"/>
<polygon fill="black" stroke="black" points="355.66,-21.9 365.66,-18.4 355.66,-14.9 355.66,-21.9"/>
<text text-anchor="start" x="338" y="-26.65" font-family="Times New Roman,serif" font-weight="bold" font-size="20.00">.</text>
<text text-anchor="start" x="343.25" y="-26.65" font-family="Times New Roman,serif" font-size="20.00"> </text>
<text text-anchor="start" x="348.5" y="-26.65" font-family="Times New Roman,serif" font-weight="bold" font-size="20.00">?</text>
</g>
<!-- 4&#45;&gt;4 -->
<g id="edge8" class="edge">
<title>4:nw&#45;&gt;4:ne</title>
<path fill="none" stroke="black" d="M372,-28.4C363,-37.6 363,-47.2 382,-47.2 394.17,-47.2 398.55,-43.26 397.75,-38.01"/>
<polygon fill="black" stroke="black" points="400.92,-36.48 392.78,-29.7 394.91,-40.08 400.92,-36.48"/>
<text text-anchor="start" x="371.5" y="-52.45" font-family="Times New Roman,serif" font-weight="bold" font-size="20.00">.</text>
<text text-anchor="start" x="376.75" y="-52.45" font-family="Times New Roman,serif" font-size="20.00"> </text>
<text text-anchor="start" x="382" y="-52.45" font-family="Times New Roman,serif" font-weight="bold" font-size="20.00">?</text>
</g>
<!-- 5 -->
<g id="node7" class="node">
<title>5</title>
<ellipse fill="none" stroke="black" cx="454" cy="-18.4" rx="14.4" ry="14.4"/>
</g>
<!-- 4&#45;&gt;5 -->
<g id="edge9" class="edge">
<title>4&#45;&gt;5</title>
<path fill="none" stroke="black" d="M396.57,-18.4C405.59,-18.4 417.42,-18.4 428.01,-18.4"/>
<polygon fill="black" stroke="black" points="427.69,-21.9 437.69,-18.4 427.69,-14.9 427.69,-21.9"/>
<text text-anchor="start" x="404.88" y="-26.65" font-family="Times New Roman,serif" font-weight="bold" font-size="20.00">#</text>
<text text-anchor="start" x="415.38" y="-26.65" font-family="Times New Roman,serif" font-size="20.00"> </text>
<text text-anchor="start" x="420.62" y="-26.65" font-family="Times New Roman,serif" font-weight="bold" font-size="20.00">?</text>
</g>
<!-- 6 -->
<g id="node8" class="node">
<title>6</title>
<ellipse fill="none" stroke="black" cx="521" cy="-18.4" rx="14.4" ry="14.4"/>
</g>
<!-- 5&#45;&gt;6 -->
<g id="edge10" class="edge">
<title>5&#45;&gt;6</title>
<path fill="none" stroke="black" d="M468.87,-18.4C476.5,-18.4 486.03,-18.4 494.84,-18.4"/>
<polygon fill="black" stroke="black" points="494.66,-21.9 504.66,-18.4 494.66,-14.9 494.66,-21.9"/>
<text text-anchor="start" x="477" y="-26.65" font-family="Times New Roman,serif" font-weight="bold" font-size="20.00">.</text>
<text text-anchor="start" x="482.25" y="-26.65" font-family="Times New Roman,serif" font-size="20.00"> </text>
<text text-anchor="start" x="487.5" y="-26.65" font-family="Times New Roman,serif" font-weight="bold" font-size="20.00">?</text>
</g>
<!-- 6&#45;&gt;6 -->
<g id="edge11" class="edge">
<title>6:nw&#45;&gt;6:ne</title>
<path fill="none" stroke="black" d="M511,-28.4C502,-37.6 502,-47.2 521,-47.2 533.17,-47.2 537.55,-43.26 536.75,-38.01"/>
<polygon fill="black" stroke="black" points="539.92,-36.48 531.78,-29.7 533.91,-40.08 539.92,-36.48"/>
<text text-anchor="start" x="510.5" y="-52.45" font-family="Times New Roman,serif" font-weight="bold" font-size="20.00">.</text>
<text text-anchor="start" x="515.75" y="-52.45" font-family="Times New Roman,serif" font-size="20.00"> </text>
<text text-anchor="start" x="521" y="-52.45" font-family="Times New Roman,serif" font-weight="bold" font-size="20.00">?</text>
</g>
<!-- 7 -->
<g id="node9" class="node">
<title>7</title>
<ellipse fill="none" stroke="black" cx="593" cy="-18.4" rx="14.4" ry="14.4"/>
</g>
<!-- 6&#45;&gt;7 -->
<g id="edge12" class="edge">
<title>6&#45;&gt;7</title>
<path fill="none" stroke="black" d="M535.57,-18.4C544.59,-18.4 556.42,-18.4 567.01,-18.4"/>
<polygon fill="black" stroke="black" points="566.69,-21.9 576.69,-18.4 566.69,-14.9 566.69,-21.9"/>
<text text-anchor="start" x="543.88" y="-26.65" font-family="Times New Roman,serif" font-weight="bold" font-size="20.00">#</text>
<text text-anchor="start" x="554.38" y="-26.65" font-family="Times New Roman,serif" font-size="20.00"> </text>
<text text-anchor="start" x="559.62" y="-26.65" font-family="Times New Roman,serif" font-weight="bold" font-size="20.00">?</text>
</g>
<!-- 8 -->
<g id="node10" class="node">
<title>8</title>
<ellipse fill="none" stroke="black" cx="665" cy="-18.4" rx="14.4" ry="14.4"/>
</g>
<!-- 7&#45;&gt;8 -->
<g id="edge13" class="edge">
<title>7&#45;&gt;8</title>
<path fill="none" stroke="black" d="M607.57,-18.4C616.59,-18.4 628.42,-18.4 639.01,-18.4"/>
<polygon fill="black" stroke="black" points="638.69,-21.9 648.69,-18.4 638.69,-14.9 638.69,-21.9"/>
<text text-anchor="start" x="615.88" y="-26.65" font-family="Times New Roman,serif" font-weight="bold" font-size="20.00">#</text>
<text text-anchor="start" x="626.38" y="-26.65" font-family="Times New Roman,serif" font-size="20.00"> </text>
<text text-anchor="start" x="631.62" y="-26.65" font-family="Times New Roman,serif" font-weight="bold" font-size="20.00">?</text>
</g>
<!-- 9 -->
<g id="node11" class="node">
<title>9</title>
<ellipse fill="none" stroke="black" cx="737" cy="-18.4" rx="14.4" ry="14.4"/>
</g>
<!-- 8&#45;&gt;9 -->
<g id="edge14" class="edge">
<title>8&#45;&gt;9</title>
<path fill="none" stroke="black" d="M679.57,-18.4C688.59,-18.4 700.42,-18.4 711.01,-18.4"/>
<polygon fill="black" stroke="black" points="710.69,-21.9 720.69,-18.4 710.69,-14.9 710.69,-21.9"/>
<text text-anchor="start" x="687.88" y="-26.65" font-family="Times New Roman,serif" font-weight="bold" font-size="20.00">#</text>
<text text-anchor="start" x="698.38" y="-26.65" font-family="Times New Roman,serif" font-size="20.00"> </text>
<text text-anchor="start" x="703.62" y="-26.65" font-family="Times New Roman,serif" font-weight="bold" font-size="20.00">?</text>
</g>
<!-- 10 -->
<g id="node12" class="node">
<title>10</title>
<ellipse fill="none" stroke="black" cx="808" cy="-18.4" rx="14.4" ry="14.4"/>
<ellipse fill="none" stroke="black" cx="808" cy="-18.4" rx="18.4" ry="18.4"/>
</g>
<!-- 9&#45;&gt;10 -->
<g id="edge15" class="edge">
<title>9&#45;&gt;10</title>
<path fill="none" stroke="black" d="M751.71,-18.4C759.28,-18.4 768.8,-18.4 777.84,-18.4"/>
<polygon fill="black" stroke="black" points="777.74,-21.9 787.74,-18.4 777.74,-14.9 777.74,-21.9"/>
<text text-anchor="start" x="760" y="-26.65" font-family="Times New Roman,serif" font-weight="bold" font-size="20.00">.</text>
<text text-anchor="start" x="765.25" y="-26.65" font-family="Times New Roman,serif" font-size="20.00"> </text>
<text text-anchor="start" x="770.5" y="-26.65" font-family="Times New Roman,serif" font-weight="bold" font-size="20.00">?</text>
</g>
<!-- 10&#45;&gt;10 -->
<g id="edge16" class="edge">
<title>10:nw&#45;&gt;10:ne</title>
<path fill="none" stroke="black" d="M795,-31.4C786,-42.93 786,-55.2 808,-55.2 823.47,-55.2 828.06,-49.14 826.3,-41.53"/>
<polygon fill="black" stroke="black" points="829.44,-39.98 821.7,-32.74 823.23,-43.22 829.44,-39.98"/>
<text text-anchor="start" x="797.5" y="-60.45" font-family="Times New Roman,serif" font-weight="bold" font-size="20.00">.</text>
<text text-anchor="start" x="802.75" y="-60.45" font-family="Times New Roman,serif" font-size="20.00"> </text>
<text text-anchor="start" x="808" y="-60.45" font-family="Times New Roman,serif" font-weight="bold" font-size="20.00">?</text>
</g>
<!-- 11 -->
<g id="node13" class="node">
<title>11</title>
<ellipse fill="none" stroke="black" cx="884" cy="-18.4" rx="14.4" ry="14.4"/>
</g>
<!-- 10&#45;&gt;11 -->
<g id="edge17" class="edge">
<title>10&#45;&gt;11</title>
<path fill="none" stroke="black" d="M826.79,-18.4C836.26,-18.4 847.91,-18.4 858.21,-18.4"/>
<polygon fill="black" stroke="black" points="857.96,-21.9 867.96,-18.4 857.96,-14.9 857.96,-21.9"/>
<text text-anchor="start" x="834.88" y="-26.65" font-family="Times New Roman,serif" font-weight="bold" font-size="20.00">#</text>
<text text-anchor="start" x="845.38" y="-26.65" font-family="Times New Roman,serif" font-size="20.00"> </text>
<text text-anchor="start" x="850.62" y="-26.65" font-family="Times New Roman,serif" font-weight="bold" font-size="20.00">?</text>
</g>
</g>
</svg>
